<?xml version="1.0" encoding="utf-8"?>
<!-- Generator: Adobe Illustrator 23.0.0, SVG Export Plug-In . SVG Version: 6.00 Build 0)  -->
<svg version="1.1" id="Layer_1" xmlns="http://www.w3.org/2000/svg" xmlns:xlink="http://www.w3.org/1999/xlink" x="0px" y="0px"
	 viewBox="0 0 555 289" style="enable-background:new 0 0 555 289;" xml:space="preserve">
<style type="text/css">
	.st0{clip-path:url(#SVGID_2_);fill:none;stroke:#000000;stroke-width:3.0523;stroke-linecap:square;stroke-miterlimit:10;}
	.st1{clip-path:url(#SVGID_4_);fill:none;stroke:#000000;stroke-width:2.2884;stroke-linecap:square;stroke-miterlimit:10;}
	.st2{clip-path:url(#SVGID_6_);fill:none;stroke:#000000;stroke-width:2.2884;stroke-linecap:square;stroke-miterlimit:10;}
	.st3{clip-path:url(#SVGID_8_);fill:none;stroke:#000000;stroke-width:2.2884;stroke-linecap:square;stroke-miterlimit:10;}
	.st4{clip-path:url(#SVGID_10_);fill:none;stroke:#000000;stroke-width:2.2884;stroke-linecap:square;stroke-miterlimit:10;}
	.st5{display:none;}
	.st6{display:inline;}
</style>
<g>
	<g>
		<g>
			<g>
				<defs>
					<rect id="SVGID_1_" x="26.9" y="39.2" width="192.1" height="209.2"/>
				</defs>
				<clipPath id="SVGID_2_">
					<use xlink:href="#SVGID_1_"  style="overflow:visible;"/>
				</clipPath>
				<polygon class="st0" points="152.1,247 152.1,228.1 152.8,223.7 154,219 156.7,215.9 161.1,214.1 174.9,211.2 183.2,209.5 
					189.8,206.8 194.5,204.6 196.7,202.4 198.4,199.4 198.4,194.3 198.1,187.7 197.4,178.6 197.4,171 198.4,163.9 200.3,159.8 
					203,156.8 207.7,154.9 214.1,152.4 216,150.7 217.2,148.7 217.2,145.8 215,142.8 213.1,140.4 197.6,121.3 196.4,119.6 
					197.2,116.6 199.1,113.7 202,105.6 203,100.5 203,92.6 199.4,81.1 195.7,72.5 189.8,62 184.2,55.4 177.8,49.3 169.2,44.9 
					156,41.7 143.5,40.4 130.5,40.2 118,40.7 107.7,42.2 97.9,44.1 86.7,48.3 75.6,53.9 62.2,63.2 55.8,68.4 50.2,74 44,81.1 
					37.9,90.2 32,101.4 29.1,111 27.6,121.8 28.4,129.9 30.1,138.2 33.7,146.8 44.3,163.4 58.2,184 63.9,194.3 66.1,200.2 
					67.3,205.8 68,211.2 68.3,216.1 68.8,225.9 67.3,247 				"/>
			</g>
			<g>
				<defs>
					<rect id="SVGID_3_" x="26.9" y="39.2" width="192.1" height="209.2"/>
				</defs>
				<clipPath id="SVGID_4_">
					<use xlink:href="#SVGID_3_"  style="overflow:visible;"/>
				</clipPath>
				<polygon class="st1" points="119.7,66.2 122.7,64.9 126.1,64.2 129,64 131.2,68.1 134.4,68.6 138.1,69.1 141.5,70.1 145.7,66.7 
					147.9,68.1 150.4,69.8 152.8,71.8 151.3,76.9 154,80.1 155.5,83.1 157,87 161.6,87.2 162.4,90.2 162.9,93.4 162.6,97 
					158.2,98.5 157.2,102.2 155.7,105.6 153.5,109 156.2,113.4 154,115.9 151.6,118.1 147.9,120.6 144.2,117.9 140.3,119.8 
					136.6,120.6 133,120.8 130.5,125.5 127.3,125 124.1,124.5 121.4,123.7 121.2,118.6 118,116.4 114.6,113.9 111.9,111.2 
					106.8,112.7 105,110 104.1,107.6 102.8,104.6 106.8,101.4 106.3,97 105.8,93.6 106,89.7 101.9,86.3 102.6,83.8 104.1,81.1 
					105.5,78.4 111.4,78.2 113.6,75.7 116.1,73.5 119.5,71.1 				"/>
			</g>
			<g>
				<defs>
					<rect id="SVGID_5_" x="26.9" y="39.2" width="192.1" height="209.2"/>
				</defs>
				<clipPath id="SVGID_6_">
					<use xlink:href="#SVGID_5_"  style="overflow:visible;"/>
				</clipPath>
				<path class="st2" d="M120.7,99c-2.7-6.4,0.5-13.5,6.9-16.2c6.4-2.4,13.5,0.5,16.2,6.9c2.7,6.4-0.5,13.5-6.9,16.2
					C130.3,108.3,123.2,105.4,120.7,99L120.7,99z"/>
			</g>
			<g>
				<defs>
					<rect id="SVGID_7_" x="26.9" y="39.2" width="192.1" height="209.2"/>
				</defs>
				<clipPath id="SVGID_8_">
					<use xlink:href="#SVGID_7_"  style="overflow:visible;"/>
				</clipPath>
				<polygon class="st3" points="80.3,155.6 77.1,155.6 73.7,155.1 70.7,154.1 70.5,149.5 67.8,148 64.4,146 61.4,143.6 56.5,145.3 
					54.8,143.3 53.1,140.6 51.9,137.9 55.3,133.8 53.8,129.6 53.6,126.4 53.6,122.3 49.2,120.3 49.9,117.1 50.6,114.2 52.1,110.8 
					56.8,111.2 59.2,108.1 61.7,105.4 65.1,103.2 64.1,98 67.1,96.5 70.5,95.6 74.7,94.6 76.9,98.5 81.3,98.3 84.9,98.7 88.6,99.7 
					92.5,96.5 95.5,98.3 98.2,100 100.1,101.7 98.4,106.3 100.9,109.5 103.1,113.2 104.5,116.6 109.7,117.1 110.4,120.6 110.4,123 
					110.4,126.2 105.5,127.7 104.5,132.1 103.6,135.3 101.9,138.9 104.3,143.6 102.8,145.5 100.6,147.7 98.2,149.7 92.5,147.5 
					89.6,149 86.7,150 82.3,150.9 				"/>
			</g>
			<g>
				<defs>
					<rect id="SVGID_9_" x="26.9" y="39.2" width="192.1" height="209.2"/>
				</defs>
				<clipPath id="SVGID_10_">
					<use xlink:href="#SVGID_9_"  style="overflow:visible;"/>
				</clipPath>
				<path class="st4" d="M68,125.5c0-6.9,5.4-12.2,12.2-12.2s12.2,5.4,12.2,12.2s-5.4,12.2-12.2,12.2S68,132.3,68,125.5L68,125.5z"
					/>
			</g>
		</g>
	</g>
	<g class="st5">
		<rect x="-3.2" y="150.4" transform="matrix(0.9816 -0.191 0.191 0.9816 -29.1549 2.5637)" class="st6" width="3.9" height="4.2"/>
		<path class="st6" d="M-10.1,138.9l-17.4,3.4l1,4.2l12.7-2.4l4.2,20.8c0.2,1.2,0,2-0.5,2.7c-0.5,0.7-1.5,1.2-2.7,1.5
			c-1.5,0.2-2.4,0.2-3.2-0.2c-0.7-0.5-1.2-1.2-1.5-2.4l-4.4,1c0.5,2.7,1.2,4.4,2.4,5.1c1.5,1,4.2,1.2,7.8,0.5
			c3.2-0.7,5.4-1.5,6.4-2.7c1-1.2,1.2-2.9,0.7-5.4L-10.1,138.9z"/>
		<path class="st6" d="M-5,80.9c-0.5,1.2-1,2-1.7,2.4c-0.7,0.2-1.5,0.2-2.7-0.2l-1.7-0.7c-2.2-0.7-2.9-2.2-2.2-4.4l2.4-6.1l-3.9-1.5
			l-2.9,8.1c-0.7,1.7-0.7,3.4,0,4.7c0.7,1.5,2.2,2.7,4.4,3.4l3.7,1.5c0.7,0.2,1.2,0.5,2,0.5l-0.2,0.5l-1.2-0.2l-0.5,2.7
			c-0.5,1-1,1.5-2,1.7c-0.5,0-1-0.2-1.5-0.2c-2.7-0.2-4.7-0.2-5.9,0.5s-2.2,2-2.7,3.9l-3.9,13c-0.2,0.7-0.2,1.2-0.5,2
			c-0.5,3.4,1,5.4,4.4,5.9l7.6,1.2c-0.2,1.2-0.5,2-0.7,2.2c-0.5,0.7-1.7,1-3.2,0.7l-5.1-0.7l-0.7,4.2l5.1,0.7
			c1.5,0.2,2.4,0.7,2.9,1.7c0,0.2,0.2,0.7,0,1.5l-0.2,0.7l1.2,0.2c0,0.2-0.2,0.7-0.2,1c-0.5,0.7-1.2,1-2.2,1l-19.6,0.7l0.2,4.7
			l20.8-0.7c2.2,0,3.7-0.7,4.9-2c1-1,1.5-2.9,1.5-5.9v-0.7h-1.5c0-0.2,0-0.5-0.2-1c-0.2-1.2-0.7-2-1.5-2.4c0.7,0,1.5-0.7,2.2-1.7
			c0.5-0.7,1-1.7,1.2-2.9l2.9-19.4c0.5-2.4,0-4.4-1-5.6l0,0c1-0.5,1.7-1.7,2.2-3.2l0.5,0.2l6.9-17.9L-2,73L-5,80.9z M-11.1,100.7
			l-2.2,14.5l-5.4-1c-1-0.2-1.7-0.5-2-1c-0.2-0.5-0.2-1.2,0-2.7l3.4-11.3c0.5-2,1.5-2.9,2.9-2.7h0.5C-11.8,97-10.8,98.3-11.1,100.7z
			"/>
		<path class="st6" d="M-17,60.3c-0.2,0.2-0.2,0.7-0.2,1l1,0.2c0-0.5,0.5-1.5,1.2-2.7l-0.7-0.5l-0.5,0.2c-0.2,0.2-0.5,0.2-0.7,0.5
			c-0.7,0.2-1,0.2-1.2,0c0,0,0-0.5,0.5-1.2l-1-0.5l-0.5,1c-0.5,0.7-0.2,1.5,0.2,2C-18.2,60.8-17.7,60.8-17,60.3z"/>
		<path class="st6" d="M3.6,59.1l-18.4-9.8l-2,3.9l17.4,9.3c0.7,0.5,1.2,1,1.2,1.7l-15.7-5.4l-2.2,3.9l16.2,5.6
			c-0.5,0.5-1,0.7-1.5,0.7l4.4,2.2c1.2-1,2.2-2.4,2.9-4.2s1-3.2,0.7-4.7C6.8,61.3,5.6,60,3.6,59.1z"/>
		
			<rect x="-1.9" y="37.3" transform="matrix(0.5421 -0.8403 0.8403 0.5421 -42.5671 23.7025)" class="st6" width="4.7" height="27.2"/>
		<path class="st6" d="M26.9,41.9L11.5,29.7l-5.6,7.1c-5.9,7.3,3.4,16.2,9.1,14.9c1.2-0.2,2.4-1.2,3.9-3.2l3.4-4.2l1.2,1
			c1,0.7,1.5,1.5,1.5,2.4s-3.2,5.4-3.9,6.4l4.7,1c2-2.7,4.2-7.1,4.2-8.6C29.8,45.1,28.8,43.4,26.9,41.9z M14.6,45.8
			C12.2,48.8,5.3,43.4,9,39l2.4-3.2l6.9,5.4L14.6,45.8z"/>
		<rect x="22.1" y="7.4" transform="matrix(0.7904 -0.6126 0.6126 0.7904 -0.6677 16.7436)" class="st6" width="4.2" height="3.9"/>
		<path class="st6" d="M73.7-21.8l-4.4,1.5l6.4,18.6c0.2,1,0.2,1.7-0.2,2.2c-0.2,0.2-0.5,0.5-1,0.7L74.2,1c-1.5,0.7-2.4,1.2-2.7,1.2
			c-1,0.2-2,0-2.7-1l-0.5-0.7l-1-2c-1.2-2.4-2.7-3.9-4.7-4.4c-1.7-0.2-3.9,0-6.4,1.5c-2.7,1.2-4.4,2.7-5.1,4.4
			c-0.7,1.7-0.5,3.9,0.7,6.4l1,2l0.2,1c0.2,1.2,0,2-0.7,2.7c-0.2,0-0.5,0.2-1,0.5l-0.2-0.2l-0.2,0c-1.2,1-2.2,1.5-2.4,1.7
			c-1,0.5-2,0.2-2.7-0.5l-1.2-1c-1.5-1.7-2.9-2.9-3.9-3.2c-1.2-0.5-2.9,0-4.7,1l-13.5,7.8l2.7,3.9L37.9,15c1.7-1,3.2-1,3.9,0
			l0.2,0.5c1.2,1.7,1,3.2-1,4.7l-7.8,6.1c-3.2,2.4-3.7,5.1-1.5,8.1l1,1.2l0.7,0.7c1.5,1.7,2.9,2.4,4.2,2.4s2.7-0.5,4.7-2l2.9-2.2
			l-2.4-3.2l-2,1.5c-1,0.7-1.7,1-2.4,1c-0.5,0-0.7-0.2-1.2-0.5c-0.7-0.5-1.2-1-1.5-1.7c-0.2-0.5,0-1,0.5-1.5c0.2-0.2,0.5-0.5,1-0.7
			l7.3-5.6c2-1.7,3.2-3.2,3.2-4.9c0,0,0-0.2,0-0.5c1.2,0.5,2.7,0.2,4.4-0.7l0,0l0.5-0.2c2.7-1.5,4.2-2.9,4.4-4.7l0.7,0.2h0.5
			c1.2,0.2,2.9,0,4.9-1c0.5-0.2,1-0.5,1.5-0.7c0.5-0.2,1-0.5,1.5-0.7c2-1.2,3.2-2.4,3.7-3.7c0-0.2,0.2-0.5,0.2-0.7
			c1.2,0.7,2.7,0.7,4.7,0l0.2,0.5l0.7-0.2c2.7-1,4.4-2,5.1-3.4c0.7-1.5,0.7-3.2,0-5.1L73.7-21.8z M62.4,7.9
			c-1.2,0.5-2.2,0.7-2.9,0.5c-0.7-0.2-1.5-1-2.2-2.2l-1-2.2c-0.7-1.2-0.7-2.2-0.2-3.2c0.2-0.7,1-1.2,2.2-2c2.2-1.2,3.9-0.5,4.9,1.7
			l1,2.2C65.3,5.2,64.6,6.9,62.4,7.9z"/>
		<rect x="81" y="-24.2" transform="matrix(0.9624 -0.2715 0.2715 0.9624 6.0097 22.2275)" class="st6" width="4.7" height="27.2"/>
		
			<rect x="135.8" y="-28" transform="matrix(1.267804e-02 -0.9999 0.9999 1.267804e-02 161.9421 112.1985)" class="st6" width="3.9" height="4.2"/>
		<path class="st6" d="M145.7-17.6l-13.2-2c-0.7,0-1.5-0.2-2-0.2c-3.4,0-5.1,1.7-5.4,5.1l-0.2,7.6h-1.2c-0.7,0-1,0-1.5,0
			c-1.2,0-2-0.5-2.4-1c-0.2-0.5-0.5-1-0.7-1.7v-4.4h-4.7l-0.2,12.2c0,2.2-1.5,3.7-4.4,3.9c-2.7,0.5-4.9,0-6.4-1.2
			c-0.5-0.5-0.7-1.5-0.7-2.9v-6.1h-4.7v6.1c0,2.9,0.5,4.9,2,6.1c1.2,1.2,3.2,1.7,5.4,2.2s4.2,0.2,6.4,0c2.2-0.5,3.9-1.2,5.4-2.7
			c1.5-1.5,2.2-3.2,2.2-5.4v-0.7c1,0.2,2,0.2,2.9,0.2L144-2.2c2.7,0,4.4-0.5,5.6-1.7c1-1.2,1.7-3.2,1.7-5.9s-0.2-4.7-1-5.6
			C149.4-16.6,147.9-17.4,145.7-17.6z M147.4-10c0,2-1.2,2.9-3.7,2.9L129-7.3l0.2-5.4c0-1,0.2-1.7,0.7-2c0.5-0.2,1.2-0.5,2.7-0.5
			l11.8,2c2,0.2,3.2,1.2,3.2,2.4L147.4-10z"/>
		
			<rect x="143.9" y="-14.3" transform="matrix(0.2376 -0.9714 0.9714 0.2376 131.7157 143.8288)" class="st6" width="27.2" height="4.7"/>
		<path class="st6" d="M193,5.4c1.2-2.4,1.5-4.7,0.5-6.4c-0.7-1.5-2.4-2.9-5.1-4.2c-2.7-1.2-4.9-1.7-6.6-1.2c-2,0.5-3.4,2-4.4,4.4
			l-1,2.2l-0.5,0.5c-0.7,1-1.5,1.2-2.4,1c-0.2,0-1.2-0.5-2.7-1.2L170.4,1l-0.7-0.2l3.9-12.2l-4.4-1.2l-5.9,18.1
			c-0.5,1.2-1,2-1.5,2.4c-0.7,0.5-1.5,0.5-2.7,0c-1.5-0.5-2.4-1-2.9-1.5l0-0.2l-1.2,3.9c0.7,0.5,2,1,3.2,1.2c2.7,0.7,4.7,1,6.1,0.5
			c1.5-0.7,2.4-2,3.2-4.2l0.7-2.2l2.4,0.7V5.9c2,0.7,3.4,0.5,4.7-0.2l0.2,0.7l0.2,0.5c0.5,1.2,1.7,2.2,3.7,3.2
			c0.5,0.2,1,0.5,1.5,0.7c2.7,1.2,4.9,1.7,6.6,1.2c1.7-0.5,3.2-2,4.4-4.4L193,5.4z M188.6,3.4l-1,2.2c-1.2,2.4-2.7,2.9-5.1,2
			c-1.2-0.5-2-1.2-2.2-2c-0.2-0.7-0.2-1.7,0.5-3.2l1-2.2c0.5-1.2,1.2-2,2.2-2.2c0.7-0.2,1.7,0,2.7,0.5
			C189.1-0.5,189.6,1.2,188.6,3.4z"/>
		<path class="st6" d="M211.8-2.7L201.1,14c-0.5,0.7-1,1-1.7,1.2L206.2,0l-3.9-2.4l-7.1,15.7c-0.2-0.5-0.5-1-0.7-1.5l-2.7,4.2
			c1,1.2,2.2,2.4,3.9,3.4s3.2,1.2,4.4,1c1.5-0.2,2.7-1.2,3.9-2.9L215.5,0L211.8-2.7z"/>
		<path class="st6" d="M206.5-1.9l-0.2-0.7C206-2.9,206-3.2,206-3.4c-0.2-0.7-0.2-1,0.2-1.2c0.2,0,0.5,0.2,1.2,0.5l0.5-0.7l-1.2-0.5
			c-0.7-0.5-1.5-0.5-2,0c-0.5,0.5-0.5,1.2,0,2c-0.2-0.2-0.7-0.2-1-0.2l-0.2,1c0.5,0,1.5,0.5,2.7,1.2L206.5-1.9z"/>
		<path class="st6" d="M220.4,37.7c1.7,0,3.7-0.7,5.6-2.9l1.7-1.7c2-2,2.7-3.9,2.4-5.9c-0.2-1.7-1.5-3.7-3.4-5.6
			c-2.2-2-3.9-3.2-5.9-3.2c-2,0-3.7,0.7-5.6,2.7l-1.7,1.7c-2,2-2.9,3.9-2.7,5.6c0.2,1.7,1.5,3.7,3.7,5.9
			C216.7,36.5,218.7,37.5,220.4,37.7z M217.2,26.2l1.7-1.7c1-1,2-1.5,2.9-1.2c0.7,0,1.5,0.5,2.4,1.5c1.7,1.7,2,3.4,0.2,5.1l-1.7,1.5
			c-1.7,2-3.7,2-5.4,0c-1-1-1.5-1.7-1.5-2.7C215.8,28.2,216.3,27.2,217.2,26.2z"/>
		
			<rect x="226.5" y="13.1" transform="matrix(0.6923 -0.7216 0.7216 0.6923 59.3557 169.5259)" class="st6" width="3.9" height="4.2"/>
		
			<rect x="230.9" y="17.1" transform="matrix(0.6925 -0.7215 0.7215 0.6925 57.7647 173.9289)" class="st6" width="3.9" height="4.2"/>
		<path class="st6" d="M242,38.5l-2.9-3.7l-14.7,12c-1,0.7-1.7,1.2-2.4,1.2c-0.7,0-1.5-0.5-2.2-1.5c-1-1.2-1.5-2.2-1.7-2.7v-0.2
			l-3.2,2.7c0.5,0.7,1,1.7,2,2.9c1.7,2.2,3.4,3.4,4.9,3.7c1.5,0.2,3.2-0.2,4.9-1.7L242,38.5z"/>
		<rect x="261.8" y="61" transform="matrix(0.911 -0.4124 0.4124 0.911 -2.5616 114.39)" class="st6" width="3.9" height="4.2"/>
		
			<rect x="268.4" y="61.5" transform="matrix(0.9109 -0.4126 0.4126 0.9109 -2.1334 117.2253)" class="st6" width="3.9" height="4.2"/>
		
			<rect x="264.2" y="66.4" transform="matrix(0.911 -0.4125 0.4125 0.911 -4.5634 115.9081)" class="st6" width="3.9" height="4.2"/>
		<path class="st6" d="M245.9,80.1L245.9,80.1l0.2,0.7c1,2.7,2.2,4.4,3.4,5.1c1.5,0.7,3.2,0.7,5.1,0l19.6-7.1l-1.7-4.4l-18.4,6.6
			c-1,0.2-1.7,0.2-2.2-0.2c-0.2-0.2-0.7-0.7-1-1.2c-0.7-1.7-1-2.7-1-3.2c0-1,0.5-1.7,1.7-2.2l9.3-4.2l-2-4.2l-9.3,4.2
			c-1.2,0.5-2.2,0.5-2.7-0.2c-0.2-0.2-1-1.2-1.7-2.9l-0.7-1.7h0.2l-0.7-1.2l-0.2-0.5l0,0l-0.5-0.7l10.8-6.9l-4.9-7.6
			c-5.1-7.8-16.4-2-17.1,3.7c-0.2,1.2,0.5,2.9,1.7,4.9l2.9,4.7l-1.5,1c-1,0.7-2,0.7-2.7,0.5c-1-0.2-4.2-4.7-4.7-5.9l-2.4,4.2
			c1.7,2.7,5.4,6.1,6.9,6.6c1.5,0.5,3.2,0,5.4-1.5l2-1.2l0.5,0.7l1.2,2.7c1.2,2.7,2.9,4.7,5.1,5.4C245.2,76.2,245.2,78.2,245.9,80.1
			z M237.3,54.4c-2.2-3.2,5.1-7.8,8.3-3.2l2.2,3.4l-7.3,4.7L237.3,54.4z"/>
		
			<rect x="249.3" y="86.8" transform="matrix(0.9599 -0.2805 0.2805 0.9599 -14.4339 77.327)" class="st6" width="27.2" height="4.7"/>
		
			<rect x="275.5" y="106.6" transform="matrix(0.9888 -0.1494 0.1494 0.9888 -13.1203 42.6769)" class="st6" width="3.9" height="4.2"/>
		<path class="st6" d="M281.7,122.5c-0.2-2-0.7-3.4-1.7-4.4c-1.2-1-3.2-1.5-5.6-1.2c-1.5,0-2.4,0.5-3.2,1c-0.7,0.5-1.5,1.7-2.4,3.4
			l-3.4,5.9c-0.2,0.5-0.7,1-1,1c-0.2,0.2-1,0.2-1.7,0.2c-1.5,0-2-1-2.2-3.2l-0.2-10.5h-0.2v-0.7l12.7-2l-0.7-4.7l-18.9,2.9
			c-1.2,0.2-2.2,0-2.7-0.2c-0.7-0.5-1-1.2-1.2-2.2c-0.2-1.7-0.2-2.7,0-3.2v-0.2l-4.7,0.5c0,1,0,2.2,0.2,3.4c0.5,2.7,1.2,4.7,2.4,5.6
			c1.2,1,2.9,1.5,5.1,1l2.4-0.2l0.5,2.4l0,0l0.2,10.3c0,2.2,0.7,3.7,2,4.7c1.2,1,2.9,1.5,5.6,1.2c1.7,0,2.7-0.2,3.4-0.7
			c0.5-0.5,1.2-1.2,2.2-2.7l4.2-6.9c0.2-0.5,0.7-1,1-1.2c0.5-0.2,1-0.5,1.5-0.2c0.7,0,1.5,0.5,1.7,1c0.2,0.5,0.5,1.2,0.7,2.7
			l0.7,7.6l4.2-0.2L281.7,122.5z"/>
		<path class="st6" d="M250.8,139.7c-0.5-0.5-0.7-1.2-0.7-2.4c0.2-1.7,0.2-2.7,0.7-3.2l0.2-0.2l-4.2-0.2c-0.2,1-0.5,2-0.5,3.4
			c-0.2,2.7,0,4.9,1,6.1c1,1.2,2.4,2,4.7,2.2l2.4,0.2l-0.2,2.4h0.2c-0.2,2,0.2,3.4,1.2,4.4l-0.7,0.5l-0.5,0.2
			c-1,0.7-1.7,2.2-2.2,4.4c-0.2,0.5-0.2,1-0.2,1.5c-0.7,2.9-0.5,5.1,0.2,6.9c0.7,1.7,2.7,2.7,5.4,3.2l2.4,0.5c2.7,0.5,4.9,0.2,6.4-1
			c1.2-1,2.2-2.9,2.9-5.9c0.7-2.9,0.5-5.1-0.2-6.6c-1-1.7-2.7-2.9-5.4-3.4l-2.2-0.5l-0.7-0.5c-1-0.5-1.5-1.2-1.7-2.2
			c0-0.2,0.2-1.2,0.5-2.9h-0.5V146l12.7,1l0.5-4.7l-18.9-1.5C252.3,140.6,251.3,140.4,250.8,139.7z M260.4,156.8l2.2,0.5
			c1.5,0.2,2.2,1,2.7,1.7c0.2,0.7,0.2,1.7,0,2.9c-0.5,2.4-2,3.4-4.4,2.9l-2.2-0.5c-2.4-0.5-3.4-2-2.9-4.7c0.2-1.2,0.7-2.2,1.5-2.7
			S258.9,156.6,260.4,156.8z"/>
	</g>
</g>
<g>
	<path d="M254.8,172.3c1.2,1,1.8,2.6,1.8,4.9v2.1c0,2.3-0.6,3.9-1.7,4.9c-1.1,1-2.9,1.5-5.4,1.5c-2.6,0-4.4-0.5-5.5-1.5
		c-1.1-1-1.7-2.6-1.7-4.9v-2.1c0-2.2,0.6-3.9,1.8-4.9c1.1-0.9,2.8-1.3,5.2-1.3C252,171,253.7,171.5,254.8,172.3z M245.1,167.8v-3.2
		h3.4v3.2H245.1z M247.3,174.9c-0.6,0.5-1,1.3-1,2.4v2c0,1.2,0.2,2,0.7,2.4s1.3,0.7,2.3,0.7c2.2,0,3.2-1.1,3.2-3.2v-2
		c0-2-1-2.9-3-2.9C248.6,174.3,247.8,174.4,247.3,174.9z M250,167.8v-3.2h3.4v3.2H250z"/>
	<path d="M267,187.6c0,1.8-0.5,3.2-1.5,4s-2.7,1.2-4.9,1.2c-1.1,0-2.1-0.1-2.8-0.2v-3.4h0.1c0.4,0.2,1.2,0.4,2.6,0.4
		c1,0,1.6-0.2,2.1-0.7c0.4-0.5,0.6-1.2,0.6-2.2v-15.5h3.9v16.5H267z"/>
	<path d="M285.9,185.5h-2.1v1.8c0,2.1-0.5,3.5-1.3,4.3c-1,0.7-4.9,1.7-7.7,1.7l-1.8-3.5c1,0,5.5-0.2,6.1-0.7
		c0.6-0.5,0.9-1.2,0.9-2.2v-1.3h-4.4c-2,0-3.3-0.4-4-1c-3.7-3-2.8-13.4,4.9-13.4h7.4v10.5h2.1L285.9,185.5L285.9,185.5z
		 M276.6,174.5c-4.6,0-4.6,7.1-1.5,7.1h4.8v-7.1H276.6z"/>
	<path d="M284.7,185.5v-3.9h9.9v3.9H284.7z"/>
	<path d="M292.7,185.5v-3.9h9.9v3.9H292.7z"/>
	<path d="M300.8,185.5v-3.9h9.9v3.9H300.8z"/>
	<path d="M308.8,185.5v-3.9h9.9v3.9H308.8z"/>
	<path d="M316.8,185.5v-3.9h9.9v3.9H316.8z"/>
	<path d="M324.9,185.5v-3.9h9.9v3.9H324.9z"/>
	<path d="M332.9,185.5v-3.9h9.9v3.9H332.9z"/>
	<path d="M341,185.5v-3.9h9.9v3.9H341z"/>
	<path d="M349,185.5v-3.9h9.9v3.9H349z"/>
	<path d="M357.1,185.5v-3.9h9.9v3.9H357.1z"/>
	<path d="M375.7,179.4c0,1.1,0.4,1.7,1.1,2.1c0.4,0.1,1.3,0.2,2.8,0.2h0.2v3.8h-0.2c-2.4,0-4.4-0.6-5.7-2c-1.3,1.3-3.3,2-5.7,2h-2.9
		v-3.9h2.9c1.5,0,2.4-0.1,2.8-0.2c0.7-0.2,1.1-1,1.1-2.1v-8.4h3.8v8.5H375.7z M369.8,167.8v-3.2h3.4v3.2H369.8z M372.3,163v-3.2h3.4
		v3.2H372.3z M374.6,167.8v-3.2h3.4v3.2H374.6z"/>
	<path d="M385.7,180.2c0,1.8-0.5,3.2-1.5,4c-1,0.9-2.6,1.2-4.9,1.2h-0.7v-3.9h0.6c0.9-0.1,1.5-0.2,1.8-0.5c0.5-0.4,0.7-1,0.7-1.7
		v-16.1h3.9V180.2z"/>
	<path d="M388.2,185.5v-22.2h3.9v22.2H388.2z"/>
	<path d="M411.4,181.6v3.9h-2.1v2c0,1.8-0.5,3.2-1.5,4s-2.7,1.2-4.9,1.2c-1.1,0-2.1-0.1-2.8-0.2V189l0.1,0.1
		c0.4,0.2,1.2,0.4,2.6,0.4c1,0,1.6-0.2,2.1-0.7c0.5-0.5,0.6-1.2,0.6-2.2v-15.5h3.9v10.6h2V181.6z M405.5,167.8v-3.2h3.4v3.2H405.5z"
		/>
	<path d="M410.1,185.5v-3.9h9.9v3.9H410.1z"/>
	<path d="M418.2,185.5v-3.9h9.9v3.9H418.2z"/>
	<path d="M426.2,185.5v-3.9h9.9v3.9H426.2z"/>
	<path d="M434.3,185.5v-3.9h9.9v3.9H434.3z"/>
	<path d="M442.3,185.5v-3.9h9.9v3.9H442.3z"/>
	<path d="M450.4,185.5v-3.9h9.9v3.9H450.4z"/>
	<path d="M458.4,185.5v-3.9h9.9v3.9H458.4z"/>
	<path d="M466.5,185.5v-3.9h9.9v3.9H466.5z"/>
	<path d="M474.5,185.5v-3.9h9.9v3.9H474.5z"/>
	<path d="M482.6,185.5v-3.9h9.9v3.9H482.6z"/>
	<path d="M499.8,167.2c-1.1,0-1.8,0.2-2.2,0.5c-0.5,0.2-0.7,0.7-0.9,1.5c0,0.4,0,0.9,0.2,1.2c0.2,0.4,0.5,0.6,1,1l5.6,3.7
		c1.1,0.7,1.8,1.3,2.2,1.8c0.2,0.5,0.4,1.5,0.4,2.8c0,2.2-0.4,3.7-1.2,4.6c-0.9,1-2.1,1.3-3.9,1.3h-10.5v-3.9h8.5
		c1.8,0,2.8-0.5,2.8-1.7c0-0.7,0-1.2-0.1-1.5c-0.1-0.4-0.4-0.6-0.9-0.9l-4.8-2.9c-1.5-0.9-2.3-1.6-2.8-2.2c-0.5-0.6-0.7-1.5-0.7-2.6
		c0-2.2,0.4-3.8,1.2-4.6c0.7-0.9,2-1.3,3.7-1.3l8.3-0.4v3.5H499.8z"/>
	<path d="M518.7,181.6v3.9h-2.1v2c0,1.8-0.5,3.2-1.5,4s-2.7,1.2-4.9,1.2c-1.1,0-2.1-0.1-2.8-0.2V189l0.1,0.1
		c0.4,0.2,1.2,0.4,2.6,0.4c1,0,1.6-0.2,2.1-0.7c0.5-0.5,0.6-1.2,0.6-2.2v-15.5h3.9v10.6h2V181.6z"/>
	<path d="M534,172.3c1.2,1,1.8,2.6,1.8,4.9v2.1c0,2.3-0.6,3.9-1.7,4.9c-1.1,1-2.9,1.5-5.4,1.5c-0.4,0-0.9,0-1.2,0
		c-1.8-0.1-3-0.5-3.9-1.1l-0.4-0.2l-0.5-0.5c-0.7,1.2-2.4,1.8-4.9,1.8h-0.5v-3.9c1.5,0,2.2,0,2.4-0.1c0.9-0.2,1.3-0.7,1.6-1.7
		l0.1-0.7v-2c0-2.2,0.6-3.9,1.8-4.9c1.1-0.9,2.8-1.3,5.2-1.3S532.9,171.3,534,172.3z M526.5,174.8c-0.6,0.5-1,1.3-1,2.4v2
		c0,1.2,0.2,2,0.7,2.4c0.5,0.5,1.3,0.7,2.4,0.7c2.1,0,3.2-1.1,3.2-3.2v-2c0-2.1-1-3-3-3C527.7,174.3,527,174.4,526.5,174.8z"/>
	<path d="M250.6,239.6c-2.1,0-3.5-0.5-4.3-1.5c-0.7-1-1.1-2.8-1.1-5.5c0-3.2,0.5-5.2,1.6-6.3c0.7-0.7,2.2-1.1,4.4-1.1v3.8
		c-1,0-1.7,0.2-2.2,0.9c-0.5,0.5-0.7,1.5-0.7,2.6c0,1,0.2,1.8,0.7,2.3c0.5,0.6,1.2,0.9,2.2,0.9h17.4V225h3.4v14.5h-21.5V239.6z
		 M258.1,246.1v-3.2h3.4v3.2H258.1z"/>
	<path d="M278.3,233.4c0,0.9,0.2,1.5,0.7,1.7c0.4,0.2,0.9,0.4,1.8,0.5h0.6v3.9h-0.6c-2.3,0-3.9-0.4-4.9-1.2c-1-0.9-1.5-2.2-1.5-4
		v-17h3.9v16.1H278.3z"/>
	<path d="M315,239.6h-0.6c-2.2,0-3.7-0.5-4.5-1.6l0,0c-0.9,1-2.3,1.6-4.5,1.6h-16.1c-1.1,0-2-0.2-2.6-0.5c-0.9-0.4-1.5-0.9-1.8-1.5
		c-0.2,0.6-0.9,1.1-1.8,1.5c-0.7,0.4-1.3,0.5-1.8,0.5h-1.1v-3.9h0.7c0.6,0,1-0.1,1.2-0.2c0.7-0.4,1.1-1.2,1.1-2.6v-4.3h3.5v4.3
		c0,1.2,0.4,2.1,1,2.4c0.4,0.2,1,0.4,2,0.4v-6.3c0-2.8,1.5-4.3,4.3-4.3c0.5,0,1.1,0,1.7,0.1l11,1.6c1.7,0.2,2.9,0.9,3.5,1.7
		c0.6,1,1,2.4,1,4.6c0,0.4,0,0.7,0,1.1c0.2,0.7,0.7,1.1,1.6,1.3h2.2v4H315z M308.1,232.8c0-1.2-0.9-1.8-2.6-2.1l-9.6-1.5
		c-1.1,0-1.7,0.1-2.1,0.4c-0.4,0.2-0.5,0.7-0.6,1.7l-0.1,4.4h12.1c2,0,2.8-0.9,2.8-2.4v-0.5H308.1z"/>
	<path d="M322.5,228.5c-1.8,0-2.8,1-2.8,2.9v1.5c0,1.1,0.1,1.8,0.6,2.2c0.5,0.4,1.1,0.5,2.2,0.5h7v3.9h-15.7v-3.9h2.1
		c-0.1-0.5-0.1-1.1-0.1-1.6v-3.2c0-2,0.5-3.3,1.3-4.3c0.9-1,2.1-1.5,3.7-1.5h7.2v3.4H322.5z"/>
	<path d="M342.2,234.4c0,1.7-0.5,3-1.3,3.8s-2.1,1.2-3.5,1.3c-1.5,0.1-2.9,0-4.1-0.6v-4c0.2,0.2,0.6,0.5,1.1,0.7l-2.2-13.9h3.8
		l2.2,13.4c0.5-0.4,0.7-1,0.7-1.6v-16.2h3.7v17.1H342.2z M334.8,218.4c-0.6,0-1,0-1.1,0.1c-0.2,0.2-0.1,0.5,0.4,0.9
		c0.1,0.1,0.2,0.2,0.6,0.4l0.5,0.2l-0.1,0.6c-1.2,0-2,0-2.3,0.2l-0.2-0.9c0.2-0.2,0.5-0.2,0.9-0.2c-0.6-0.2-0.9-0.7-0.7-1.3
		c0.1-0.6,0.6-1,1.3-1h1v1H334.8z"/>
	<path d="M344.7,239.6v-22.3h3.9v22.3C348.6,239.6,344.7,239.6,344.7,239.6z"/>
	<path d="M365.3,241.5c0,2.1-0.5,3.5-1.3,4.3c-1,0.7-4.9,1.7-7.7,1.7l-1.8-3.5c1,0,5.5-0.2,6.1-0.7s0.9-1.2,0.9-2.2v-1.3H357
		c-2,0-3.3-0.4-4-1c-3.7-3-2.8-13.4,4.9-13.4h7.4V241.5L365.3,241.5z M358.1,228.5c-4.6,0-4.6,7.1-1.5,7.1h4.8v-7.1H358.1z"/>
	<path d="M389,226.8c1.7,0.2,2.9,0.9,3.5,1.8c0.6,0.9,1,2.2,1,4.1l0.2,1.3c0.1,0.9,0.7,1.5,1.6,1.7c0.2,0,1.1,0.1,2.4,0.1h0.2v3.9
		h-0.5c-2.7,0-4.4-0.6-5.2-1.8c-0.1,0.1-0.1,0.2-0.2,0.2c-0.9,1-2.4,1.6-4.5,1.6H380c-0.4,0-0.7,0-1,0c-0.7,0.1-1.1,0.4-1.1,0.7
		c-0.1,0.6,0,1.2,0.1,1.8c0.1,0.4,0.4,0.6,0.6,0.9c0.5,0.5,1.2,0.6,2.1,0.6h2.1v3.4h-2.9c-2,0-3.2-0.4-4-1c-0.9-0.6-1.5-2-1.6-3.7
		l-0.1-1.2v-1.2c0-2.9,1.7-4.4,5-4.4h8c2,0,2.9-0.9,2.9-2.6v-0.5c0-1.1-0.9-1.8-2.6-2.1l-11.8-1.7l0.2-3.9L389,226.8z M380.3,221.8
		v-3.2h3.4v3.2H380.3z"/>
	<path d="M413.5,226.3c1.2,1,1.8,2.6,1.8,4.9v1.8l0.1,0.7c0.1,1,0.7,1.5,1.6,1.7c0.2,0.1,1.1,0.1,2.4,0.1v3.9H419
		c-2.6,0-4.3-0.6-5-1.8c-0.1,0.1-0.2,0.4-0.5,0.5c-0.9,0.9-2.2,1.3-4.1,1.5c-0.4,0-0.9,0-1.3,0c-0.4,0-0.9,0-1.2,0
		c-1.8-0.1-3-0.5-3.9-1.1l-0.4-0.2l-0.5-0.5c-0.7,1.2-2.4,1.8-4.9,1.8H397v-3.9c1.5,0,2.2,0,2.4-0.1c0.9-0.2,1.3-0.7,1.6-1.7
		l0.1-0.7v-2c0-2.2,0.6-3.9,1.8-4.9c1.1-0.9,2.8-1.3,5.2-1.3S412.5,225.5,413.5,226.3z M406,228.9c-0.6,0.5-1,1.3-1,2.4v2
		c0,1.2,0.2,2,0.7,2.4c0.5,0.5,1.3,0.7,2.4,0.7c2.1,0,3.2-1.1,3.2-3.2v-2c0-2.1-1-3-3-3C407.3,228.3,406.5,228.5,406,228.9z"/>
	<path d="M425.4,234.4c0,1.8-0.5,3.2-1.5,4c-1,0.9-2.6,1.2-4.9,1.2h-0.6v-3.9h0.6c0.9-0.1,1.5-0.2,1.8-0.5c0.5-0.4,0.7-1,0.7-1.7
		v-16.2h3.9v17.1H425.4z"/>
	<path d="M427.8,239.6v-22.3h3.9v22.3C431.7,239.6,427.8,239.6,427.8,239.6z"/>
	<path d="M468.8,225.2l11,1.6c1.7,0.2,2.9,0.9,3.5,1.7c0.6,1,1,2.4,1,4.6c0,2.2-0.4,3.9-1.3,4.9c-0.9,1-2.4,1.6-4.5,1.6h-17.8
		c-1,0-1.7-0.1-2.4-0.2v0.6c0,1.7-0.6,3.2-1.8,4.4c-1.1,1.1-2.6,1.8-4.4,2.2c-1.7,0.4-3.4,0.5-5.1,0.1c-1.8-0.4-3.3-0.9-4.4-1.8
		c-1.2-1-1.7-2.6-1.7-4.9v-5h3.9v5c0,1.1,0.2,2,0.7,2.3c1.2,1.1,3,1.3,5.2,1c2.4-0.4,3.7-1.6,3.7-3.4v-10.1h3.9v3.7
		c0.1,0.6,0.2,1.1,0.5,1.5c0.4,0.4,1,0.6,2,0.7c0.2,0,0.6,0,1.2,0h1v-6.2c0-2.8,1.5-4.3,4.3-4.3
		C467.7,225.1,468.3,225.2,468.8,225.2z M469,229.3c-1.1,0-1.7,0.1-2.2,0.4c-0.4,0.2-0.5,0.7-0.5,1.7l-0.1,4.4h12.1
		c2,0,2.9-0.9,2.9-2.4v-0.5c0-1.2-0.9-1.8-2.6-2.1L469,229.3z M471.5,221.8v-3.2h3.4v3.2H471.5z"/>
	<path d="M486.7,239.6v-22.3h3.9v22.3C490.6,239.6,486.7,239.6,486.7,239.6z"/>
	<path d="M503.2,235.7v3.9h-2.1v2c0,1.8-0.5,3.2-1.5,4c-1,0.9-2.7,1.2-4.9,1.2c-1.1,0-2.1-0.1-2.8-0.2v-3.4l0.1,0.1
		c0.4,0.2,1.2,0.4,2.6,0.4c1,0,1.6-0.2,2.1-0.7c0.4-0.5,0.6-1.2,0.6-2.2v-15.6h3.9v10.6H503.2z"/>
	<path d="M518.5,226.3c1.2,1,1.8,2.6,1.8,4.9v2.1c0,2.3-0.6,3.9-1.7,4.9c-1.1,1-2.9,1.5-5.4,1.5c-0.4,0-0.9,0-1.2,0
		c-1.8-0.1-3-0.5-3.9-1.1l-0.4-0.2l-0.5-0.5c-0.7,1.2-2.4,1.8-4.9,1.8H502v-3.9c1.5,0,2.2,0,2.4-0.1c0.9-0.2,1.3-0.7,1.6-1.7
		l0.1-0.7v-2c0-2.2,0.6-3.9,1.8-4.9c1.1-0.9,2.8-1.3,5.2-1.3C515.6,225,517.4,225.5,518.5,226.3z M511,228.9c-0.6,0.5-1,1.3-1,2.4v2
		c0,1.2,0.2,2,0.7,2.4s1.3,0.7,2.4,0.7c2.1,0,3.2-1.1,3.2-3.2v-2c0-2.1-1-3-3-3C512.2,228.3,511.5,228.5,511,228.9z"/>
	<path d="M533.1,234.4c0,1.7-0.5,3-1.3,3.8s-2.1,1.2-3.5,1.3c-1.5,0.1-2.9,0-4.1-0.6v-4c0.2,0.2,0.6,0.5,1.1,0.7l-2.2-13.9h3.8
		l2.2,13.4c0.5-0.4,0.7-1,0.7-1.6v-16.2h3.7v17.1H533.1z M525.6,218.4c-0.6,0-1,0-1.1,0.1c-0.2,0.2-0.1,0.5,0.4,0.9
		c0.1,0.1,0.2,0.2,0.6,0.4l0.5,0.2l-0.1,0.6c-1.2,0-2,0-2.3,0.2l-0.2-0.9c0.2-0.2,0.5-0.2,0.9-0.2c-0.6-0.2-0.9-0.7-0.7-1.3
		c0.1-0.6,0.6-1,1.3-1h1v1H525.6z"/>
</g>
</svg>
