<?xml version="1.0" encoding="utf-8"?>
<!-- Generator: Adobe Illustrator 23.0.0, SVG Export Plug-In . SVG Version: 6.00 Build 0)  -->
<svg version="1.1" id="Layer_2" xmlns="http://www.w3.org/2000/svg" xmlns:xlink="http://www.w3.org/1999/xlink" x="0px" y="0px"
	 viewBox="0 0 365 90" style="enable-background:new 0 0 365 90;" xml:space="preserve">
<style type="text/css">
	
		.st0{clip-path:url(#SVGID_1_);fill-rule:evenodd;clip-rule:evenodd;fill:none;stroke:#000000;stroke-width:1.2459;stroke-linecap:square;stroke-miterlimit:10;}
	
		.st1{clip-path:url(#SVGID_1_);fill-rule:evenodd;clip-rule:evenodd;fill:none;stroke:#000000;stroke-width:0.9341;stroke-linecap:square;stroke-miterlimit:10;}
	.st2{display:none;}
	.st3{display:inline;}
</style>
<g>
	<g>
		<g>
			<defs>
				<polygon id="SVGID_3_" points="6.4,87.6 84.9,87.6 84.9,2.2 6.4,2.2 6.4,87.6 				"/>
			</defs>
			<clipPath id="SVGID_1_">
				<use xlink:href="#SVGID_3_"  style="overflow:visible;"/>
			</clipPath>
			<polygon class="st0" points="57.6,87 57.6,79.3 57.8,77.5 58.4,75.6 59.5,74.3 61.2,73.6 66.9,72.4 70.3,71.7 73,70.6 74.9,69.7 
				75.8,68.8 76.5,67.6 76.5,65.5 76.3,62.8 76.1,59.1 76.1,56 76.5,53.1 77.3,51.4 78.4,50.2 80.3,49.4 82.8,48.4 83.6,47.7 
				84.2,46.9 84.2,45.7 83.2,44.5 82.4,43.5 76.2,35.7 75.7,35 75.9,33.8 76.8,32.6 78,29.3 78.4,27.2 78.4,24 76.9,19.3 75.4,15.8 
				73,11.5 70.7,8.8 68.1,6.3 64.6,4.5 59.2,3.2 54.1,2.7 48.8,2.6 43.7,2.8 39.5,3.4 35.4,4.2 30.8,5.9 26.4,8.2 20.8,12 
				18.3,14.1 16,16.4 13.4,19.3 11,23 8.6,27.6 7.3,31.5 6.8,35.9 7.1,39.2 7.7,42.6 9.2,46.1 13.6,52.9 19.2,61.3 21.5,65.5 
				22.5,67.9 23,70.2 23.3,72.4 23.4,74.4 23.5,78.4 23,87 			"/>
			<polygon class="st1" points="44.3,13.2 45.6,12.7 46.9,12.4 48.2,12.3 49.1,14 50.3,14.2 51.8,14.4 53.3,14.8 54.9,13.4 55.9,14 
				56.9,14.7 57.8,15.5 57.2,17.6 58.3,18.9 59,20.1 59.6,21.7 61.5,21.8 61.8,23 62,24.3 61.9,25.8 60,26.4 59.6,27.9 59.1,29.3 
				58.2,30.7 59.3,32.5 58.4,33.5 57.3,34.4 55.9,35.4 54.4,34.3 52.7,35.1 51.3,35.4 49.7,35.5 48.7,37.4 47.4,37.2 46.1,37 
				45.1,36.7 45,34.6 43.6,33.7 42.3,32.7 41.1,31.6 39.1,32.2 38.4,31.1 37.9,30.1 37.5,28.9 39.1,27.6 38.8,25.8 38.7,24.4 
				38.8,22.8 37.1,21.4 37.4,20.4 37.9,19.3 38.5,18.2 41,18.1 41.9,17.1 42.9,16.2 44.3,15.2 			"/>
			<path class="st1" d="M44.7,26.6c-1.1-2.6,0.2-5.5,2.8-6.6c2.6-1,5.5,0.2,6.6,2.8c1.1,2.6-0.2,5.5-2.8,6.6
				C48.7,30.4,45.8,29.2,44.7,26.6L44.7,26.6z"/>
			<polygon class="st1" points="28.3,49.7 26.9,49.7 25.6,49.5 24.4,49.1 24.2,47.2 23.1,46.6 21.8,45.8 20.6,44.8 18.5,45.5 
				17.9,44.7 17.2,43.6 16.6,42.5 18,40.8 17.5,39.1 17.3,37.8 17.3,36.1 15.6,35.3 15.8,34 16.1,32.8 16.8,31.4 18.7,31.6 
				19.6,30.3 20.7,29.2 22,28.3 21.7,26.2 22.9,25.6 24.2,25.2 25.9,24.8 26.9,26.4 28.7,26.3 30.2,26.5 31.6,26.9 33.3,25.6 
				34.5,26.3 35.5,27 36.4,27.7 35.7,29.6 36.6,30.9 37.6,32.4 38.1,33.8 40.3,34 40.5,35.4 40.6,36.4 40.6,37.7 38.5,38.3 
				38.1,40.1 37.7,41.4 37,42.9 38.1,44.8 37.4,45.6 36.5,46.5 35.5,47.3 33.3,46.4 32,47 30.8,47.4 29.1,47.8 			"/>
			<path class="st1" d="M23.2,37.4c0-2.8,2.2-5,5-5s5,2.2,5,5s-2.2,5-5,5S23.2,40.2,23.2,37.4L23.2,37.4z"/>
		</g>
	</g>
	<g class="st2">
		
			<rect x="-5.9" y="47.6" transform="matrix(0.9816 -0.191 0.191 0.9816 -9.3433 -7.333440e-02)" class="st3" width="1.6" height="1.7"/>
		<path class="st3" d="M-8.6,42.9l-7.1,1.4l0.3,1.7l5.2-1l1.7,8.5c0.1,0.5,0,0.8-0.2,1.1c-0.2,0.3-0.6,0.5-1.1,0.6
			c-0.6,0.1-1,0.1-1.3-0.1c-0.3-0.2-0.5-0.5-0.6-1l-1.8,0.4c0.2,1.1,0.5,1.8,1,2.1c0.6,0.4,1.7,0.5,3.2,0.2c1.3-0.3,2.2-0.6,2.6-1.1
			c0.4-0.5,0.5-1.2,0.3-2.2L-8.6,42.9z"/>
		<path class="st3" d="M-6.6,19.2c-0.2,0.5-0.4,0.8-0.7,1c-0.3,0.1-0.6,0.1-1.1-0.1l-0.7-0.3c-0.9-0.3-1.2-0.9-0.9-1.8l1-2.5
			l-1.6-0.6l-1.3,3.3c-0.3,0.7-0.3,1.4,0,1.9c0.3,0.6,0.9,1.1,1.8,1.4l1.5,0.6c0.3,0.1,0.5,0.2,0.8,0.2l-0.1,0.2l-0.5-0.1l-0.2,1.1
			c-0.2,0.4-0.4,0.6-0.8,0.7c-0.2,0-0.4-0.1-0.6-0.1c-1.1-0.2-1.9-0.1-2.4,0.1c-0.5,0.3-0.9,0.8-1.1,1.6l-1.6,5.3
			c-0.1,0.3-0.1,0.5-0.2,0.8c-0.2,1.4,0.4,2.2,1.8,2.4l3.1,0.5c-0.1,0.5-0.2,0.8-0.3,0.9c-0.2,0.3-0.7,0.4-1.3,0.3l-2.1-0.3
			l-0.3,1.7l2.1,0.3c0.6,0.1,1,0.3,1.2,0.7c0,0.1,0.1,0.3,0,0.6l-0.1,0.3l0.5,0.1c0,0.1-0.1,0.3-0.1,0.4c-0.2,0.3-0.5,0.4-0.9,0.4
			l-8,0.3l0.1,1.9l8.5-0.3c0.9,0,1.5-0.3,2-0.8c0.4-0.5,0.6-1.3,0.5-2.5l0-0.3l-0.6,0c0-0.1,0-0.2-0.1-0.4c-0.1-0.5-0.3-0.8-0.6-1
			c0.3-0.1,0.6-0.4,0.9-0.8c0.2-0.3,0.4-0.7,0.5-1.2l1.2-7.9c0.2-1,0-1.8-0.4-2.3l0,0c0.4-0.2,0.7-0.7,0.9-1.3l0.4,0.1l2.8-7.3
			L-5.3,16L-6.6,19.2z M-9.1,27.3l-0.9,5.9l-2.2-0.4c-0.4-0.1-0.7-0.2-0.8-0.4c-0.1-0.2-0.1-0.5,0-1.1l1.4-4.6
			c0.2-0.8,0.6-1.2,1.2-1.1l0.2,0C-9.3,25.8-9,26.3-9.1,27.3z"/>
		<path class="st3" d="M-11.5,10.8c-0.1,0.1-0.1,0.3-0.1,0.4l0.4,0.1c0-0.2,0.2-0.6,0.5-1.1l-0.3-0.2l-0.2,0.1
			c-0.1,0.1-0.2,0.1-0.3,0.2c-0.3,0.1-0.4,0.1-0.5,0c0,0,0-0.2,0.2-0.5l-0.3-0.2l-0.2,0.4c-0.2,0.3-0.1,0.6,0.1,0.8
			C-12,11-11.7,11-11.5,10.8z"/>
		<path class="st3" d="M-3,10.3l-7.5-4l-0.9,1.6l7.1,3.8c0.3,0.2,0.5,0.4,0.5,0.7l-6.4-2.2l-0.9,1.6l6.6,2.3
			c-0.2,0.2-0.4,0.3-0.6,0.3l1.8,0.9c0.5-0.4,0.9-1,1.2-1.7c0.3-0.7,0.4-1.3,0.3-1.9C-1.8,11.2-2.3,10.7-3,10.3z"/>
		
			<rect x="-5.3" y="1.4" transform="matrix(0.5421 -0.8403 0.8403 0.5421 -7.7862 -0.4876)" class="st3" width="1.9" height="11.1"/>
		<path class="st3" d="M6.4,3.3l-6.3-5l-2.3,2.9c-2.4,3,1.4,6.6,3.7,6.1C2,7.1,2.5,6.7,3.1,6l1.4-1.7L5,4.7c0.4,0.3,0.6,0.6,0.6,1
			C5.6,6,4.3,7.9,4,8.2L6,8.7c0.8-1.1,1.7-2.9,1.7-3.5C7.6,4.6,7.2,3.9,6.4,3.3z M1.5,4.9c-1,1.2-3.8-1-2.3-2.8l1-1.3L3,3L1.5,4.9z"
			/>
		<rect x="4.5" y="-10.8" transform="matrix(0.7904 -0.6126 0.6126 0.7904 7.2652 1.162)" class="st3" width="1.7" height="1.6"/>
		<path class="st3" d="M25.5-22.7l-1.8,0.6l2.6,7.6c0.1,0.4,0.1,0.7-0.1,0.9c-0.1,0.1-0.2,0.2-0.4,0.3l-0.1-0.1
			c-0.6,0.3-1,0.5-1.1,0.5c-0.4,0.1-0.8,0-1.1-0.4l-0.2-0.3L23-14.5c-0.5-1-1.1-1.6-1.9-1.8c-0.7-0.1-1.6,0-2.6,0.6
			c-1.1,0.5-1.8,1.1-2.1,1.8c-0.3,0.7-0.2,1.6,0.3,2.6l0.4,0.8l0.1,0.4c0.1,0.5,0,0.8-0.3,1.1c-0.1,0-0.2,0.1-0.4,0.2l-0.1-0.1
			l-0.1,0.1c-0.5,0.4-0.9,0.6-1,0.7c-0.4,0.2-0.8,0.1-1.1-0.2l-0.5-0.4C13.1-9.4,12.5-9.9,12-10c-0.5-0.2-1.2,0-1.9,0.4L4.5-6.5
			l1.1,1.6l5.2-2.9c0.7-0.4,1.3-0.4,1.6,0l0.1,0.2c0.5,0.7,0.4,1.3-0.4,1.9L9-3.2c-1.3,1-1.5,2.1-0.6,3.3l0.4,0.5L9.2,1
			c0.6,0.7,1.2,1,1.7,1c0.5,0,1.1-0.2,1.9-0.8l1.2-0.9l-1-1.3l-0.8,0.6c-0.4,0.3-0.7,0.4-1,0.4c-0.2,0-0.3-0.1-0.5-0.2
			c-0.3-0.2-0.5-0.4-0.6-0.7c-0.1-0.2,0-0.4,0.2-0.6c0.1-0.1,0.2-0.2,0.4-0.3l3-2.3c0.8-0.7,1.3-1.3,1.3-2c0,0,0-0.1,0-0.2
			c0.5,0.2,1.1,0.1,1.8-0.3l0,0l0.2-0.1C18-7.3,18.6-8,18.6-8.7l0.3,0.1l0.2,0c0.5,0.1,1.2,0,2-0.4c0.2-0.1,0.4-0.2,0.6-0.3
			c0.2-0.1,0.4-0.2,0.6-0.3c0.8-0.5,1.3-1,1.5-1.5c0-0.1,0.1-0.2,0.1-0.3c0.5,0.3,1.1,0.3,1.9,0l0.1,0.2l0.3-0.1
			c1.1-0.4,1.8-0.8,2.1-1.4c0.3-0.6,0.3-1.3,0-2.1L25.5-22.7z M20.9-10.6c-0.5,0.2-0.9,0.3-1.2,0.2c-0.3-0.1-0.6-0.4-0.9-0.9
			l-0.4-0.9c-0.3-0.5-0.3-0.9-0.1-1.3c0.1-0.3,0.4-0.5,0.9-0.8c0.9-0.5,1.6-0.2,2,0.7l0.4,0.9C22.1-11.7,21.9-11,20.9-10.6z"/>
		
			<rect x="28.6" y="-23.7" transform="matrix(0.9624 -0.2715 0.2715 0.9624 6.0291 7.3413)" class="st3" width="1.9" height="11.1"/>
		
			<rect x="50.9" y="-25.2" transform="matrix(1.267779e-02 -0.9999 0.9999 1.267779e-02 75.415 27.6763)" class="st3" width="1.6" height="1.7"/>
		<path class="st3" d="M55-21l-5.4-0.8c-0.3,0-0.6-0.1-0.8-0.1c-1.4,0-2.1,0.7-2.2,2.1l-0.1,3.1l-0.5,0c-0.3,0-0.4,0-0.6,0
			c-0.5,0-0.8-0.2-1-0.4c-0.1-0.2-0.2-0.4-0.3-0.7l0-1.8l-1.9,0l-0.1,5c0,0.9-0.6,1.5-1.8,1.6c-1.1,0.2-2,0-2.6-0.5
			c-0.2-0.2-0.3-0.6-0.3-1.2l0-2.5l-1.9,0l0,2.5c0,1.2,0.2,2,0.8,2.5c0.5,0.5,1.3,0.7,2.2,0.9c0.9,0.2,1.7,0.1,2.6,0
			c0.9-0.2,1.6-0.5,2.2-1.1c0.6-0.6,0.9-1.3,0.9-2.2l0-0.3c0.4,0.1,0.8,0.1,1.2,0.1l8.9,0.1c1.1,0,1.8-0.2,2.3-0.7
			c0.4-0.5,0.7-1.3,0.7-2.4c0-1.1-0.1-1.9-0.4-2.3C56.4-20.6,55.8-20.9,55-21z M55.6-17.9c0,0.8-0.5,1.2-1.5,1.2l-6-0.1l0.1-2.2
			c0-0.4,0.1-0.7,0.3-0.8c0.2-0.1,0.5-0.2,1.1-0.2l4.8,0.8c0.8,0.1,1.3,0.5,1.3,1L55.6-17.9z"/>
		
			<rect x="54.2" y="-19.6" transform="matrix(0.2376 -0.9714 0.9714 0.2376 63.6705 43.8232)" class="st3" width="11.1" height="1.9"/>
		<path class="st3" d="M74.3-11.6c0.5-1,0.6-1.9,0.2-2.6c-0.3-0.6-1-1.2-2.1-1.7c-1.1-0.5-2-0.7-2.7-0.5c-0.8,0.2-1.4,0.8-1.8,1.8
			l-0.4,0.9l-0.2,0.3c-0.3,0.4-0.6,0.5-1,0.4c-0.1,0-0.5-0.2-1.1-0.5L65-13.3l-0.3-0.1l1.6-5L64.5-19l-2.4,7.4
			c-0.2,0.5-0.4,0.8-0.6,1c-0.3,0.2-0.6,0.2-1.1,0c-0.6-0.2-1-0.4-1.2-0.6l-0.1-0.1l-0.5,1.6C59-9.5,59.5-9.3,60-9.1
			c1.1,0.3,1.9,0.4,2.5,0.2c0.6-0.3,1-0.8,1.3-1.7l0.3-0.9l1,0.3l0-0.1c0.8,0.3,1.4,0.2,1.9-0.1l0.1,0.3l0.1,0.2
			c0.2,0.5,0.7,0.9,1.5,1.3c0.2,0.1,0.4,0.2,0.6,0.3c1.1,0.5,2,0.7,2.7,0.5c0.7-0.2,1.3-0.8,1.8-1.8L74.3-11.6z M72.5-12.4l-0.4,0.9
			c-0.5,1-1.1,1.2-2.1,0.8c-0.5-0.2-0.8-0.5-0.9-0.8c-0.1-0.3-0.1-0.7,0.2-1.3l0.4-0.9c0.2-0.5,0.5-0.8,0.9-0.9
			c0.3-0.1,0.7,0,1.1,0.2C72.6-14,72.9-13.3,72.5-12.4z"/>
		<path class="st3" d="M81.9-14.9l-4.4,6.8c-0.2,0.3-0.4,0.4-0.7,0.5l2.8-6.2l-1.6-1l-2.9,6.4C75-8.6,74.9-8.8,74.8-9l-1.1,1.7
			c0.4,0.5,0.9,1,1.6,1.4c0.7,0.4,1.3,0.5,1.8,0.4c0.6-0.1,1.1-0.5,1.6-1.2l4.7-7.1L81.9-14.9z"/>
		<path class="st3" d="M79.7-14.6l-0.1-0.3c-0.1-0.1-0.1-0.2-0.1-0.3c-0.1-0.3-0.1-0.4,0.1-0.5c0.1,0,0.2,0.1,0.5,0.2l0.2-0.3
			L79.9-16c-0.3-0.2-0.6-0.2-0.8,0c-0.2,0.2-0.2,0.5,0,0.8c-0.1-0.1-0.3-0.1-0.4-0.1l-0.1,0.4c0.2,0,0.6,0.2,1.1,0.5L79.7-14.6z"/>
		<path class="st3" d="M85.5,1.6c0.7,0,1.5-0.3,2.3-1.2l0.7-0.7c0.8-0.8,1.1-1.6,1-2.4C89.4-3.4,89-4.2,88.1-5
			c-0.9-0.8-1.6-1.3-2.4-1.3c-0.8,0-1.5,0.3-2.3,1.1l-0.7,0.7c-0.8,0.8-1.2,1.6-1.1,2.3c0.1,0.7,0.6,1.5,1.5,2.4
			C84,1.1,84.8,1.5,85.5,1.6z M84.1-3.1l0.7-0.7c0.4-0.4,0.8-0.6,1.2-0.5c0.3,0,0.6,0.2,1,0.6c0.7,0.7,0.8,1.4,0.1,2.1L86.4-1
			c-0.7,0.8-1.5,0.8-2.2,0c-0.4-0.4-0.6-0.7-0.6-1.1C83.5-2.3,83.7-2.7,84.1-3.1z"/>
		<rect x="88" y="-8.5" transform="matrix(0.6923 -0.7216 0.7216 0.6923 32.8124 61.7232)" class="st3" width="1.6" height="1.7"/>
		
			<rect x="89.7" y="-6.8" transform="matrix(0.6925 -0.7215 0.7215 0.6925 32.1272 63.4897)" class="st3" width="1.6" height="1.7"/>
		<path class="st3" d="M94.2,1.9L93,0.4l-6,4.9c-0.4,0.3-0.7,0.5-1,0.5c-0.3,0-0.6-0.2-0.9-0.6c-0.4-0.5-0.6-0.9-0.7-1.1l0-0.1
			L83,5.1c0.2,0.3,0.4,0.7,0.8,1.2c0.7,0.9,1.4,1.4,2,1.5c0.6,0.1,1.3-0.1,2-0.7L94.2,1.9z"/>
		<rect x="102.4" y="11.1" transform="matrix(0.911 -0.4124 0.4124 0.911 4.2387 43.6155)" class="st3" width="1.6" height="1.7"/>
		<rect x="105" y="11.3" transform="matrix(0.9109 -0.4126 0.4126 0.9109 4.4138 44.7422)" class="st3" width="1.6" height="1.7"/>
		<rect x="103.4" y="13.3" transform="matrix(0.911 -0.4125 0.4125 0.911 3.4212 44.236)" class="st3" width="1.6" height="1.7"/>
		<path class="st3" d="M95.8,18.9L95.8,18.9l0.1,0.3c0.4,1.1,0.9,1.8,1.4,2.1c0.6,0.3,1.3,0.3,2.1,0l8-2.9l-0.7-1.8l-7.5,2.7
			c-0.4,0.1-0.7,0.1-0.9-0.1c-0.1-0.1-0.3-0.3-0.4-0.5c-0.3-0.7-0.4-1.1-0.4-1.3c0-0.4,0.2-0.7,0.7-0.9l3.8-1.7l-0.8-1.7l-3.8,1.7
			c-0.5,0.2-0.9,0.2-1.1-0.1c-0.1-0.1-0.4-0.5-0.7-1.2l-0.3-0.7l0.1,0L95,12.4l-0.1-0.2l0,0L94.7,12l4.4-2.8l-2-3.1
			c-2.1-3.2-6.7-0.8-7,1.5c-0.1,0.5,0.2,1.2,0.7,2l1.2,1.9l-0.6,0.4c-0.4,0.3-0.8,0.3-1.1,0.2c-0.4-0.1-1.7-1.9-1.9-2.4l-1,1.7
			c0.7,1.1,2.2,2.5,2.8,2.7c0.6,0.2,1.3,0,2.2-0.6l0.8-0.5l0.2,0.3l0.5,1.1c0.5,1.1,1.2,1.9,2.1,2.2C95.5,17.3,95.5,18.1,95.8,18.9z
			 M92.4,8.4c-0.9-1.3,2.1-3.2,3.4-1.3l0.9,1.4l-3,1.9L92.4,8.4z"/>
		
			<rect x="97.3" y="21.6" transform="matrix(0.9599 -0.2805 0.2805 0.9599 -2.1999 29.7487)" class="st3" width="11.1" height="1.9"/>
		
			<rect x="107.9" y="29.7" transform="matrix(0.9888 -0.1494 0.1494 0.9888 -3.3492 16.5882)" class="st3" width="1.6" height="1.7"/>
		<path class="st3" d="M110.4,36.2c-0.1-0.8-0.3-1.4-0.7-1.8c-0.5-0.4-1.3-0.6-2.3-0.5c-0.6,0-1,0.2-1.3,0.4c-0.3,0.2-0.6,0.7-1,1.4
			l-1.4,2.4c-0.1,0.2-0.3,0.4-0.4,0.4c-0.1,0.1-0.4,0.1-0.7,0.1c-0.6,0-0.8-0.4-0.9-1.3l-0.1-4.3l-0.1,0l0-0.3l5.2-0.8l-0.3-1.9
			l-7.7,1.2c-0.5,0.1-0.9,0-1.1-0.1c-0.3-0.2-0.4-0.5-0.5-0.9c-0.1-0.7-0.1-1.1,0-1.3l0-0.1L95.2,29c0,0.4,0,0.9,0.1,1.4
			c0.2,1.1,0.5,1.9,1,2.3c0.5,0.4,1.2,0.6,2.1,0.4l1-0.1l0.2,1l0,0l0.1,4.2c0,0.9,0.3,1.5,0.8,1.9c0.5,0.4,1.2,0.6,2.3,0.5
			c0.7,0,1.1-0.1,1.4-0.3c0.2-0.2,0.5-0.5,0.9-1.1l1.7-2.8c0.1-0.2,0.3-0.4,0.4-0.5c0.2-0.1,0.4-0.2,0.6-0.1c0.3,0,0.6,0.2,0.7,0.4
			c0.1,0.2,0.2,0.5,0.3,1.1l0.3,3.1l1.7-0.1L110.4,36.2z"/>
		<path class="st3" d="M97.9,43.2c-0.2-0.2-0.3-0.5-0.3-1c0.1-0.7,0.1-1.1,0.3-1.3l0.1-0.1l-1.7-0.1c-0.1,0.4-0.2,0.8-0.2,1.4
			c-0.1,1.1,0,2,0.4,2.5c0.4,0.5,1,0.8,1.9,0.9l1,0.1l-0.1,1l0.1,0c-0.1,0.8,0.1,1.4,0.5,1.8l-0.3,0.2l-0.2,0.1
			c-0.4,0.3-0.7,0.9-0.9,1.8c-0.1,0.2-0.1,0.4-0.1,0.6c-0.3,1.2-0.2,2.1,0.1,2.8c0.3,0.7,1.1,1.1,2.2,1.3l1,0.2
			c1.1,0.2,2,0.1,2.6-0.4c0.5-0.4,0.9-1.2,1.2-2.4c0.3-1.2,0.2-2.1-0.1-2.7c-0.4-0.7-1.1-1.2-2.2-1.4l-0.9-0.2l-0.3-0.2
			c-0.4-0.2-0.6-0.5-0.7-0.9c0-0.1,0.1-0.5,0.2-1.2l-0.2,0l0-0.2l5.2,0.4l0.2-1.9l-7.7-0.6C98.4,43.6,98.1,43.5,97.9,43.2z
			 M101.8,50.2l0.9,0.2c0.6,0.1,0.9,0.4,1.1,0.7c0.1,0.3,0.1,0.7,0,1.2c-0.2,1-0.8,1.4-1.8,1.2l-0.9-0.2c-1-0.2-1.4-0.8-1.2-1.9
			c0.1-0.5,0.3-0.9,0.6-1.1C100.8,50.1,101.2,50.1,101.8,50.2z"/>
	</g>
</g>
<g>
	<path d="M111.5,16.8c1,0.8,1.6,2.2,1.6,4.2v1.8c0,2-0.5,3.4-1.5,4.2c-1,0.8-2.5,1.2-4.6,1.2c-2.2,0-3.8-0.4-4.8-1.2
		c-1-0.8-1.4-2.2-1.4-4.2V21c0-2,0.5-3.3,1.5-4.2c1-0.8,2.5-1.2,4.6-1.2C109,15.6,110.6,16,111.5,16.8z M103.1,12.9v-2.8h3v2.8
		H103.1z M105,19c-0.5,0.4-0.8,1.1-0.8,2.1v1.7c0,1,0.2,1.7,0.7,2.1c0.4,0.4,1.1,0.6,2.1,0.6c1.9,0,2.8-0.9,2.8-2.8v-1.7
		c0-1.7-0.9-2.6-2.7-2.6C106.1,18.5,105.5,18.6,105,19z M107.4,12.9v-2.8h3v2.8H107.4z"/>
	<path d="M122.2,30c0,1.6-0.4,2.7-1.3,3.5c-0.9,0.7-2.3,1.1-4.3,1.1c-1,0-1.8-0.1-2.5-0.2v-3l0.2,0.1c0.3,0.2,1.1,0.3,2.2,0.3
		c0.8,0,1.4-0.2,1.8-0.6c0.3-0.4,0.5-1,0.5-1.9V15.7h3.4V30z"/>
	<path d="M138.6,28.3h-1.8v1.6c0,1.8-0.4,3.1-1.2,3.7s-4.3,1.5-6.6,1.5l-1.5-3.1c0.9,0,4.8-0.2,5.3-0.6c0.5-0.4,0.7-1,0.7-1.9v-1.2
		h-3.8c-1.6,0-2.8-0.3-3.5-0.9c-3.2-2.6-2.4-11.7,4.3-11.7h6.4v9.1h1.8V28.3z M130.5,18.7c-4,0-4.1,6.2-1.3,6.2h4.2v-6.2H130.5z"/>
	<path d="M137.5,28.3v-3.4h8.6v3.4H137.5z"/>
	<path d="M144.5,28.3v-3.4h8.6v3.4H144.5z"/>
	<path d="M151.5,28.3v-3.4h8.6v3.4H151.5z"/>
	<path d="M158.5,28.3v-3.4h8.6v3.4H158.5z"/>
	<path d="M165.5,28.3v-3.4h8.6v3.4H165.5z"/>
	<path d="M172.5,28.3v-3.4h8.6v3.4H172.5z"/>
	<path d="M179.5,28.3v-3.4h8.6v3.4H179.5z"/>
	<path d="M186.5,28.3v-3.4h8.6v3.4H186.5z"/>
	<path d="M193.5,28.3v-3.4h8.6v3.4H193.5z"/>
	<path d="M200.5,28.3v-3.4h8.6v3.4H200.5z"/>
	<path d="M216.7,22.9c0,0.9,0.3,1.5,0.9,1.8c0.3,0.1,1.1,0.2,2.4,0.2h0.3v3.4H220c-2.2,0-3.8-0.5-5-1.7c-1.2,1.1-2.8,1.7-5,1.7h-2.6
		v-3.4h2.6c1.3,0,2.1-0.1,2.4-0.2c0.6-0.2,0.9-0.8,0.9-1.8v-7.3h3.3V22.9z M211.5,12.9v-2.8h3v2.8H211.5z M213.7,8.8V6h3v2.8H213.7z
		 M215.7,12.9v-2.8h3v2.8H215.7z"/>
	<path d="M225.4,23.7c0,1.6-0.4,2.7-1.3,3.5c-0.9,0.7-2.3,1.1-4.3,1.1h-0.5v-3.4h0.5c0.8-0.1,1.3-0.3,1.6-0.4
		c0.4-0.3,0.7-0.8,0.7-1.5v-14h3.4V23.7z"/>
	<path d="M227.4,28.3V8.9h3.4v19.4H227.4z"/>
	<path d="M247.6,24.9v3.4h-1.8V30c0,1.6-0.4,2.7-1.3,3.5c-0.9,0.7-2.3,1.1-4.3,1.1c-1,0-1.8-0.1-2.5-0.2v-3l0.2,0.1
		c0.3,0.2,1.1,0.3,2.2,0.3c0.8,0,1.4-0.2,1.8-0.6c0.3-0.4,0.5-1,0.5-1.9V15.7h3.4v9.2H247.6z M242.5,12.9v-2.8h3v2.8H242.5z"/>
	<path d="M246.5,28.3v-3.4h8.6v3.4H246.5z"/>
	<path d="M253.5,28.3v-3.4h8.6v3.4H253.5z"/>
	<path d="M260.5,28.3v-3.4h8.6v3.4H260.5z"/>
	<path d="M267.5,28.3v-3.4h8.6v3.4H267.5z"/>
	<path d="M274.5,28.3v-3.4h8.6v3.4H274.5z"/>
	<path d="M281.5,28.3v-3.4h8.6v3.4H281.5z"/>
	<path d="M288.5,28.3v-3.4h8.6v3.4H288.5z"/>
	<path d="M295.5,28.3v-3.4h8.6v3.4H295.5z"/>
	<path d="M302.5,28.3v-3.4h8.6v3.4H302.5z"/>
	<path d="M309.5,28.3v-3.4h8.6v3.4H309.5z"/>
	<path d="M324.4,12.4c-1,0.1-1.6,0.2-1.9,0.4c-0.4,0.3-0.7,0.7-0.7,1.2c-0.1,0.4,0,0.7,0.2,1c0.2,0.3,0.5,0.5,0.9,0.8l4.9,3.1
		c1,0.7,1.6,1.2,1.9,1.6c0.2,0.4,0.4,1.3,0.4,2.4c0,1.9-0.4,3.2-1.1,4c-0.7,0.8-1.8,1.2-3.3,1.2h-9.1v-3.4h7.4
		c1.6,0,2.4-0.5,2.4-1.4c0-0.6-0.1-1-0.1-1.3c-0.1-0.3-0.3-0.5-0.7-0.8l-4.2-2.6c-1.3-0.8-2.1-1.4-2.4-1.9c-0.4-0.5-0.6-1.3-0.6-2.3
		c0-1.9,0.4-3.2,1.1-4c0.7-0.8,1.7-1.1,3.2-1.2l7.2-0.4v3L324.4,12.4z"/>
	<path d="M340.9,24.9v3.4h-1.8V30c0,1.6-0.4,2.7-1.3,3.5c-0.9,0.7-2.3,1.1-4.3,1.1c-1,0-1.8-0.1-2.5-0.2v-3l0.2,0.1
		c0.3,0.2,1.1,0.3,2.2,0.3c0.8,0,1.4-0.2,1.8-0.6s0.5-1,0.5-1.9V15.7h3.4v9.2H340.9z"/>
	<path d="M354.2,16.8c1.1,0.9,1.6,2.3,1.6,4.3v1.8c0,2-0.5,3.4-1.5,4.3c-1,0.8-2.5,1.3-4.6,1.3c-0.4,0-0.7,0-1.1,0
		c-1.5-0.1-2.6-0.4-3.4-1l-0.3-0.2l-0.4-0.4c-0.7,1.1-2.1,1.6-4.3,1.6h-0.4v-3.4c1.2,0,1.9-0.1,2.2-0.1c0.7-0.2,1.2-0.7,1.3-1.5
		l0.1-0.7V21c0-2,0.5-3.4,1.6-4.2c1-0.8,2.5-1.2,4.6-1.2S353.3,16,354.2,16.8z M347.7,18.9c-0.5,0.4-0.8,1.1-0.8,2.1v1.7
		c0,1,0.2,1.7,0.7,2.1s1.1,0.6,2.1,0.6c1.8,0,2.7-0.9,2.7-2.8v-1.7c0-1.8-0.9-2.6-2.7-2.6C348.8,18.5,348.1,18.6,347.7,18.9z"/>
	<path d="M107.9,75.3c-1.8,0-3.1-0.4-3.7-1.2c-0.7-0.8-1-2.4-1-4.8c0-2.8,0.4-4.6,1.4-5.5c0.7-0.7,2-1,3.9-1v3.3
		c-0.9,0-1.5,0.2-2,0.7c-0.4,0.5-0.7,1.2-0.7,2.2c0,0.9,0.2,1.5,0.6,2c0.4,0.5,1,0.7,1.9,0.7h15.1v-9.2h3v12.6H107.9z M114.4,81
		v-2.8h3V81H114.4z"/>
	<path d="M131.9,69.9c0,0.7,0.2,1.2,0.7,1.5c0.3,0.2,0.8,0.3,1.5,0.4h0.5v3.4h-0.5c-2,0-3.4-0.4-4.3-1.1c-0.9-0.8-1.3-1.9-1.3-3.5
		V55.9h3.4V69.9z"/>
	<path d="M163.9,75.3h-0.5c-1.9,0-3.2-0.4-3.9-1.4l0,0c-0.8,0.9-2.1,1.3-3.9,1.3h-14c-0.9,0-1.6-0.2-2.2-0.5
		c-0.8-0.3-1.3-0.7-1.6-1.3c-0.3,0.5-0.8,1-1.6,1.3c-0.6,0.3-1.1,0.5-1.6,0.5h-0.9v-3.4h0.6c0.5-0.1,0.9-0.1,1-0.2
		c0.6-0.3,0.9-1.1,0.9-2.2v-3.7h3.1v3.7c0,1.1,0.3,1.8,0.9,2.1c0.3,0.2,0.9,0.3,1.7,0.3v-5.4c0-2.5,1.3-3.7,3.7-3.7
		c0.5,0,0.9,0,1.4,0.1l9.6,1.4c1.5,0.2,2.5,0.7,3.1,1.5c0.6,0.8,0.9,2.2,0.9,4c0,0.3,0,0.7-0.1,1c0.2,0.6,0.7,1,1.4,1.1h2V75.3z
		 M157.8,69.3c0-1-0.7-1.6-2.2-1.8l-8.4-1.3c-0.9,0-1.5,0.1-1.8,0.3c-0.3,0.2-0.5,0.7-0.5,1.5l-0.1,3.8h10.5c1.6,0,2.5-0.7,2.5-2.2
		V69.3z"/>
	<path d="M170.3,65.7c-1.6,0-2.4,0.8-2.4,2.5v1.3c0,0.9,0.2,1.6,0.5,1.9s1,0.5,2,0.5h6.1v3.4h-13.7v-3.4h1.8
		c-0.1-0.4-0.1-0.9-0.1-1.4v-2.8c0-1.6,0.4-2.9,1.2-3.7c0.8-0.8,1.8-1.2,3.2-1.2h6.2v3H170.3z"/>
	<path d="M187.5,70.8c0,1.5-0.4,2.6-1.2,3.3c-0.7,0.6-1.8,1-3.1,1.1c-1.3,0.1-2.6-0.1-3.6-0.5v-3.5c0.2,0.3,0.6,0.5,1,0.6l-2-12.1
		h3.2l1.9,11.7c0.4-0.4,0.6-0.8,0.6-1.4V55.9h3.2V70.8z M181.1,56.9c-0.6,0-0.9,0.1-0.9,0.1c-0.2,0.2-0.1,0.5,0.4,0.8
		c0.1,0.1,0.3,0.2,0.5,0.3l0.4,0.3l-0.1,0.5c-1,0-1.7,0-2.1,0.2l-0.2-0.7c0.2-0.2,0.4-0.3,0.7-0.3c-0.5-0.2-0.8-0.6-0.7-1.1
		c0.1-0.5,0.5-0.8,1.1-0.8h0.8V56.9z"/>
	<path d="M189.6,75.3V55.9h3.4v19.4H189.6z"/>
	<path d="M207.5,76.9c0,1.8-0.4,3.1-1.2,3.7s-4.3,1.5-6.6,1.5l-1.5-3.1c0.9,0,4.8-0.2,5.3-0.6c0.5-0.4,0.7-1,0.7-1.9v-1.2h-3.8
		c-1.6,0-2.8-0.3-3.5-0.9c-3.2-2.6-2.4-11.7,4.3-11.7h6.4V76.9z M201.3,65.7c-4,0-4.1,6.2-1.3,6.2h4.2v-6.2H201.3z"/>
	<path d="M228.2,64.1c1.5,0.2,2.5,0.7,3.1,1.5c0.5,0.7,0.8,1.9,0.9,3.6l0.2,1.1c0.2,0.8,0.6,1.2,1.3,1.4c0.2,0.1,1,0.1,2.1,0.1h0.3
		v3.4h-0.4c-2.4,0-3.9-0.5-4.5-1.6c-0.1,0.1-0.2,0.2-0.2,0.3c-0.8,0.9-2.1,1.3-3.9,1.3h-6.6c-0.3,0-0.6,0-0.8,0
		c-0.6,0.1-0.9,0.3-1,0.7c-0.1,0.5-0.1,1.1,0.1,1.6c0.1,0.3,0.3,0.5,0.5,0.8c0.4,0.4,1,0.6,1.9,0.6h1.8v3h-2.6
		c-1.6,0-2.8-0.3-3.5-0.9c-0.7-0.6-1.2-1.6-1.3-3.2l-0.1-1v-1c0-2.6,1.5-3.8,4.4-3.8h7c1.7,0,2.5-0.7,2.5-2.2v-0.4
		c0-1-0.7-1.6-2.2-1.8L217,66l0.2-3.4L228.2,64.1z M220.6,59.9v-2.8h3v2.8H220.6z"/>
	<path d="M249.5,63.8c1.1,0.9,1.6,2.3,1.6,4.3v1.6l0.1,0.7c0.2,0.8,0.6,1.3,1.3,1.5c0.2,0.1,1,0.1,2.2,0.1v3.4h-0.4
		c-2.2,0-3.7-0.5-4.3-1.6c-0.1,0.2-0.3,0.3-0.4,0.4c-0.7,0.7-1.9,1.1-3.6,1.2c-0.3,0-0.7,0-1.1,0c-0.4,0-0.7,0-1.1,0
		c-1.5-0.1-2.6-0.4-3.4-1l-0.3-0.2l-0.4-0.4c-0.7,1.1-2.1,1.6-4.3,1.6h-0.4v-3.4c1.2,0,1.9-0.1,2.2-0.1c0.7-0.2,1.2-0.7,1.3-1.5
		l0.1-0.7V68c0-2,0.5-3.4,1.6-4.2c1-0.8,2.5-1.2,4.6-1.2C247,62.6,248.5,63,249.5,63.8z M243,66c-0.5,0.4-0.8,1.1-0.8,2.1v1.7
		c0,1,0.2,1.7,0.7,2.1c0.4,0.4,1.1,0.6,2.1,0.6c1.8,0,2.7-0.9,2.7-2.8v-1.7c0-1.8-0.9-2.6-2.7-2.6C244.1,65.5,243.4,65.6,243,66z"/>
	<path d="M259.8,70.7c0,1.6-0.4,2.7-1.3,3.5c-0.9,0.7-2.3,1.1-4.3,1.1h-0.5v-3.4h0.5c0.8-0.1,1.3-0.3,1.6-0.4
		c0.4-0.3,0.7-0.8,0.7-1.5v-14h3.4V70.7z"/>
	<path d="M261.9,75.3V55.9h3.4v19.4H261.9z"/>
	<path d="M297.6,62.9l9.5,1.4c1.5,0.2,2.6,0.7,3.1,1.5c0.6,0.8,0.8,2.2,0.8,4c0,1.9-0.4,3.3-1.1,4.2c-0.8,0.9-2.1,1.3-3.9,1.3h-15.5
		c-0.8,0-1.5-0.1-2.1-0.2v0.5c0,1.5-0.5,2.8-1.6,3.8c-0.9,0.9-2.2,1.5-3.8,1.9c-1.5,0.3-3,0.4-4.5,0.1c-1.5-0.3-2.8-0.8-3.8-1.6
		c-1-0.8-1.5-2.3-1.5-4.3v-4.3h3.4v4.3c0,1,0.2,1.7,0.6,2.1c1.1,0.9,2.6,1.2,4.6,0.9c2.1-0.3,3.2-1.3,3.2-2.9v-8.8h3.3V70
		c0.1,0.5,0.2,1,0.5,1.3c0.3,0.3,0.9,0.5,1.7,0.6c0.2,0,0.6,0,1,0h0.8l0-5.4c0-2.5,1.3-3.7,3.7-3.7
		C296.6,62.7,297.1,62.8,297.6,62.9z M297.8,66.3c-0.9,0-1.5,0.1-1.9,0.3c-0.3,0.2-0.4,0.7-0.5,1.5l-0.1,3.8h10.5
		c1.7,0,2.5-0.7,2.5-2.2v-0.4c0-1-0.7-1.6-2.2-1.8L297.8,66.3z M299.9,59.9v-2.8h3v2.8H299.9z"/>
	<path d="M313.2,75.3V55.9h3.4v19.4H313.2z"/>
	<path d="M327.4,71.9v3.4h-1.8V77c0,1.6-0.4,2.7-1.3,3.5c-0.9,0.7-2.3,1.1-4.3,1.1c-1,0-1.8-0.1-2.5-0.2v-3l0.2,0.1
		c0.3,0.2,1.1,0.3,2.2,0.3c0.8,0,1.4-0.2,1.8-0.6c0.3-0.4,0.5-1,0.5-1.9V62.7h3.4v9.2H327.4z"/>
	<path d="M340.8,63.8c1.1,0.9,1.6,2.3,1.6,4.3v1.8c0,2-0.5,3.4-1.5,4.3c-1,0.8-2.5,1.3-4.6,1.3c-0.4,0-0.7,0-1.1,0
		c-1.5-0.1-2.6-0.4-3.4-1l-0.3-0.2l-0.4-0.4c-0.7,1.1-2.1,1.6-4.3,1.6h-0.4v-3.4c1.2,0,1.9-0.1,2.2-0.1c0.7-0.2,1.2-0.7,1.3-1.5
		l0.1-0.7V68c0-2,0.5-3.4,1.6-4.2c1-0.8,2.5-1.2,4.6-1.2S339.8,63,340.8,63.8z M334.2,66c-0.5,0.4-0.8,1.1-0.8,2.1v1.7
		c0,1,0.2,1.7,0.7,2.1s1.1,0.6,2.1,0.6c1.8,0,2.7-0.9,2.7-2.8v-1.7c0-1.8-0.9-2.6-2.7-2.6C335.3,65.5,334.7,65.6,334.2,66z"/>
	<path d="M353.4,70.8c0,1.5-0.4,2.6-1.2,3.3c-0.7,0.6-1.8,1-3.1,1.1c-1.3,0.1-2.6-0.1-3.6-0.5v-3.5c0.2,0.3,0.6,0.5,1,0.6l-2-12.1
		h3.2l1.9,11.7c0.4-0.4,0.6-0.8,0.6-1.4V55.9h3.2V70.8z M346.9,56.9c-0.6,0-0.9,0.1-0.9,0.1c-0.2,0.2-0.1,0.5,0.4,0.8
		c0.1,0.1,0.3,0.2,0.5,0.3l0.4,0.3l-0.1,0.5c-1,0-1.7,0-2.1,0.2l-0.2-0.7c0.2-0.2,0.4-0.3,0.7-0.3c-0.5-0.2-0.8-0.6-0.7-1.1
		c0.1-0.5,0.5-0.8,1.1-0.8h0.8V56.9z"/>
</g>
</svg>
