<?xml version="1.0" encoding="utf-8"?>
<!-- Generator: Adobe Illustrator 23.0.0, SVG Export Plug-In . SVG Version: 6.00 Build 0)  -->
<svg version="1.1" id="Layer_1" xmlns="http://www.w3.org/2000/svg" xmlns:xlink="http://www.w3.org/1999/xlink" x="0px" y="0px"
	 viewBox="0 0 90 73" style="enable-background:new 0 0 90 73;" xml:space="preserve">
<style type="text/css">
	
		.st0{clip-path:url(#SVGID_1_);fill-rule:evenodd;clip-rule:evenodd;fill:none;stroke:#000000;stroke-width:0.8422;stroke-linecap:square;stroke-miterlimit:10;}
	
		.st1{clip-path:url(#SVGID_1_);fill-rule:evenodd;clip-rule:evenodd;fill:none;stroke:#000000;stroke-width:0.6315;stroke-linecap:square;stroke-miterlimit:10;}
</style>
<g>
	<g>
		<g>
			<defs>
				<polygon id="SVGID_3_" points="18.5,72.3 71.5,72.3 71.5,14.6 18.5,14.6 18.5,72.3 				"/>
			</defs>
			<clipPath id="SVGID_1_">
				<use xlink:href="#SVGID_3_"  style="overflow:visible;"/>
			</clipPath>
			<polygon class="st0" points="53,71.9 53,66.6 53.2,65.4 53.6,64.2 54.3,63.3 55.5,62.8 59.3,62 61.6,61.5 63.4,60.8 64.7,60.2 
				65.4,59.6 65.8,58.8 65.8,57.3 65.7,55.5 65.5,53 65.5,50.9 65.8,49 66.4,47.8 67.1,47 68.4,46.4 70.1,45.8 70.7,45.3 71,44.8 
				71,44 70.4,43.1 69.8,42.5 65.6,37.2 65.3,36.7 65.4,35.9 66,35.1 66.8,32.9 67.1,31.5 67.1,29.3 66.1,26.1 65.1,23.8 63.4,20.8 
				61.9,19 60.1,17.4 57.8,16.1 54.1,15.3 50.7,14.9 47.1,14.8 43.6,15 40.8,15.3 38,15.9 34.9,17.1 31.9,18.6 28.2,21.2 26.5,22.6 
				24.9,24.1 23.2,26.1 21.5,28.6 19.9,31.7 19.1,34.4 18.7,37.3 18.9,39.6 19.3,41.9 20.3,44.3 23.3,48.8 27.1,54.5 28.6,57.3 
				29.3,59 29.7,60.5 29.8,62 29.9,63.3 30,66.1 29.7,71.9 			"/>
			<polygon class="st1" points="44.1,22 44.9,21.6 45.8,21.4 46.7,21.4 47.3,22.5 48.1,22.6 49.1,22.8 50.1,23.1 51.2,22.1 
				51.9,22.5 52.6,23 53.2,23.5 52.8,25 53.5,25.9 54,26.6 54.4,27.7 55.7,27.8 55.9,28.6 56,29.5 56,30.5 54.7,30.9 54.4,31.9 
				54,32.9 53.4,33.8 54.2,35 53.6,35.7 52.9,36.3 51.9,37 50.9,36.3 49.8,36.8 48.8,37 47.7,37.1 47.1,38.3 46.2,38.2 45.3,38.1 
				44.6,37.8 44.5,36.4 43.6,35.9 42.7,35.2 41.9,34.4 40.5,34.9 40,34.1 39.8,33.4 39.4,32.6 40.5,31.7 40.3,30.5 40.3,29.6 
				40.3,28.5 39.2,27.5 39.4,26.9 39.7,26.1 40.2,25.3 41.8,25.3 42.4,24.6 43.1,24.1 44.1,23.4 			"/>
			<path class="st1" d="M44.3,31c-0.7-1.8,0.1-3.7,1.9-4.4c1.8-0.7,3.7,0.1,4.4,1.9c0.7,1.8-0.1,3.7-1.9,4.4
				C47,33.6,45.1,32.8,44.3,31L44.3,31z"/>
			<polygon class="st1" points="33.2,46.7 32.3,46.7 31.4,46.5 30.6,46.3 30.5,45 29.7,44.6 28.8,44 28,43.4 26.6,43.9 26.2,43.3 
				25.7,42.6 25.3,41.8 26.3,40.6 25.9,39.5 25.8,38.6 25.8,37.5 24.6,37 24.8,36.1 25,35.2 25.4,34.3 26.7,34.4 27.4,33.6 
				28.1,32.8 29,32.2 28.8,30.8 29.6,30.4 30.5,30.1 31.6,29.8 32.3,30.9 33.5,30.8 34.5,31 35.5,31.3 36.6,30.4 37.4,30.8 
				38.1,31.3 38.7,31.8 38.2,33.1 38.9,34 39.5,35 39.9,35.9 41.3,36.1 41.5,37 41.5,37.7 41.5,38.6 40.2,39 39.9,40.2 39.6,41.1 
				39.1,42.1 39.8,43.4 39.4,43.9 38.8,44.5 38.1,45 36.6,44.5 35.8,44.8 34.9,45.1 33.8,45.4 			"/>
			<path class="st1" d="M29.8,38.4c0-1.9,1.5-3.4,3.4-3.4c1.9,0,3.4,1.5,3.4,3.4s-1.5,3.4-3.4,3.4C31.3,41.8,29.8,40.2,29.8,38.4
				L29.8,38.4z"/>
		</g>
	</g>
	<g>
		<rect x="10.2" y="49.8" transform="matrix(0.9816 -0.191 0.191 0.9816 -9.4353 2.9714)" width="1.1" height="1.2"/>
		<path d="M8.3,46.7l-4.8,0.9l0.2,1.1l3.5-0.7l1.1,5.7c0.1,0.3,0,0.6-0.1,0.8C8,54.8,7.8,54.9,7.5,55c-0.4,0.1-0.7,0.1-0.9-0.1
			c-0.2-0.1-0.4-0.4-0.4-0.7l-1.2,0.2c0.1,0.7,0.4,1.2,0.7,1.4c0.4,0.3,1.1,0.3,2.2,0.1c0.9-0.2,1.5-0.4,1.7-0.7
			c0.3-0.3,0.3-0.8,0.2-1.5L8.3,46.7z"/>
		<path d="M9.7,30.7c-0.1,0.3-0.3,0.6-0.4,0.6c-0.2,0.1-0.4,0-0.8-0.1L8,31.1c-0.6-0.2-0.8-0.6-0.6-1.2l0.7-1.7L7,27.7L6.1,30
			c-0.2,0.5-0.2,0.9,0,1.3c0.2,0.4,0.6,0.7,1.2,0.9l1,0.4c0.2,0.1,0.4,0.1,0.5,0.1l0,0.1l-0.4-0.1l-0.1,0.7
			c-0.1,0.3-0.3,0.4-0.5,0.5C7.7,34,7.6,34,7.4,34c-0.7-0.1-1.3-0.1-1.6,0.1c-0.3,0.2-0.6,0.5-0.7,1.1L4,38.8
			c-0.1,0.2-0.1,0.4-0.1,0.5c-0.1,0.9,0.3,1.5,1.2,1.6l2.1,0.3c-0.1,0.3-0.1,0.5-0.2,0.6c-0.2,0.2-0.5,0.3-0.9,0.2l-1.4-0.2
			l-0.2,1.2l1.4,0.2c0.4,0.1,0.7,0.2,0.8,0.5c0,0.1,0,0.2,0,0.4l0,0.2l0.4,0.1c0,0.1-0.1,0.2-0.1,0.2C6.9,44.9,6.7,45,6.4,45L1,45.2
			l0,1.3l5.7-0.2c0.6,0,1-0.2,1.3-0.5c0.3-0.3,0.4-0.9,0.4-1.7l0-0.2l-0.4,0c0-0.1,0-0.2-0.1-0.3c-0.1-0.3-0.2-0.5-0.4-0.7
			c0.2-0.1,0.4-0.2,0.6-0.5c0.1-0.2,0.3-0.5,0.3-0.8l0.8-5.3c0.1-0.7,0-1.2-0.3-1.6l0,0c0.3-0.2,0.5-0.4,0.6-0.8l0.3,0.1l1.9-4.9
			l-1.2-0.5L9.7,30.7z M8,36.1l-0.6,4l-1.5-0.3c-0.3-0.1-0.5-0.2-0.5-0.3c-0.1-0.1-0.1-0.4,0-0.7l1-3.1C6.5,35.2,6.7,35,7.1,35
			l0.1,0C7.8,35.1,8.1,35.5,8,36.1z"/>
		<path d="M6.4,25c0,0.1-0.1,0.2,0,0.3l0.3,0.1c0-0.1,0.1-0.4,0.3-0.7l-0.2-0.1l-0.2,0.1c-0.1,0.1-0.2,0.1-0.2,0.1
			c-0.2,0.1-0.3,0.1-0.3,0c0,0,0-0.1,0.1-0.3l-0.2-0.1l-0.1,0.3c-0.1,0.2-0.1,0.4,0.1,0.5C6,25.1,6.2,25.1,6.4,25z"/>
		<path d="M12.1,24.6L7,21.9L6.4,23l4.8,2.6c0.2,0.1,0.3,0.3,0.4,0.5l-4.3-1.5l-0.6,1.1l4.5,1.5c-0.1,0.1-0.2,0.2-0.4,0.2l1.2,0.6
			c0.3-0.3,0.6-0.7,0.8-1.1c0.2-0.5,0.3-0.9,0.2-1.3C12.9,25.2,12.6,24.9,12.1,24.6z"/>
		<rect x="10.5" y="18.6" transform="matrix(0.5421 -0.8403 0.8403 0.5421 -13.6653 19.623)" width="1.3" height="7.5"/>
		<path d="M18.4,19.9l-4.3-3.4l-1.5,1.9c-1.6,2,0.9,4.5,2.5,4.1c0.3-0.1,0.7-0.4,1.1-0.9l0.9-1.2l0.4,0.3c0.3,0.2,0.4,0.4,0.4,0.7
			c0,0.3-0.9,1.5-1.1,1.7l1.3,0.3c0.6-0.7,1.1-2,1.1-2.4C19.3,20.8,19,20.4,18.4,19.9z M15.1,21c-0.7,0.8-2.5-0.7-1.6-1.9l0.7-0.9
			l1.9,1.5L15.1,21z"/>
		<rect x="17.1" y="10.4" transform="matrix(0.7904 -0.6126 0.6126 0.7904 -2.9654 13.1342)" width="1.2" height="1.1"/>
		<path d="M31.4,2.3l-1.2,0.4l1.8,5.1c0.1,0.3,0.1,0.5,0,0.6c0,0.1-0.1,0.1-0.3,0.2l-0.1-0.1C31.2,8.8,30.9,9,30.8,9
			c-0.3,0.1-0.5,0-0.7-0.3l-0.2-0.2l-0.3-0.6c-0.3-0.7-0.8-1.1-1.3-1.2c-0.5-0.1-1.1,0-1.8,0.4c-0.7,0.4-1.2,0.8-1.4,1.2
			C25,8.8,25,9.4,25.4,10l0.3,0.6l0.1,0.2c0.1,0.3,0,0.5-0.2,0.7c0,0-0.1,0.1-0.2,0.2l-0.1-0.1l-0.1,0.1c-0.4,0.3-0.6,0.4-0.7,0.5
			c-0.3,0.1-0.5,0.1-0.7-0.1l-0.3-0.3c-0.4-0.5-0.8-0.8-1.1-0.9c-0.4-0.1-0.8,0-1.3,0.3l-3.7,2.1l0.7,1.1l3.5-2
			c0.5-0.3,0.9-0.3,1.1,0l0.1,0.1c0.3,0.4,0.3,0.9-0.2,1.3l-2.1,1.7c-0.9,0.7-1,1.4-0.4,2.2L20,18l0.3,0.3c0.4,0.4,0.8,0.6,1.2,0.7
			c0.3,0,0.8-0.2,1.3-0.6l0.8-0.6l-0.7-0.9l-0.5,0.4c-0.2,0.2-0.5,0.3-0.7,0.3c-0.1,0-0.2-0.1-0.3-0.1c-0.2-0.1-0.3-0.3-0.4-0.5
			c-0.1-0.1,0-0.3,0.1-0.4c0-0.1,0.1-0.1,0.2-0.2l2-1.6c0.6-0.4,0.9-0.9,0.9-1.3c0,0,0-0.1,0-0.1c0.3,0.1,0.7,0,1.2-0.2l0,0l0.1-0.1
			c0.8-0.4,1.2-0.8,1.2-1.3l0.2,0.1l0.1,0c0.3,0.1,0.8,0,1.3-0.2c0.1-0.1,0.3-0.1,0.4-0.2c0.1-0.1,0.3-0.1,0.4-0.2
			c0.6-0.3,0.9-0.7,1-1c0-0.1,0.1-0.1,0.1-0.2c0.3,0.2,0.8,0.2,1.3,0l0,0.1l0.2-0.1c0.7-0.3,1.2-0.6,1.4-0.9c0.2-0.4,0.2-0.9,0-1.4
			L31.4,2.3z M28.3,10.5c-0.3,0.2-0.6,0.2-0.8,0.1c-0.2-0.1-0.4-0.3-0.6-0.6l-0.3-0.6c-0.2-0.3-0.2-0.6-0.1-0.9
			c0.1-0.2,0.3-0.4,0.6-0.5c0.6-0.3,1.1-0.2,1.4,0.4l0.3,0.6C29.1,9.7,28.9,10.2,28.3,10.5z"/>
		<rect x="33.4" y="1.7" transform="matrix(0.9624 -0.2715 0.2715 0.9624 -0.196 9.4576)" width="1.3" height="7.5"/>
		<rect x="48.5" y="0.6" transform="matrix(1.267779e-02 -0.9999 0.9999 1.267779e-02 47.2275 50.2786)" width="1.1" height="1.2"/>
		<path d="M51.3,3.5l-3.7-0.6c-0.2,0-0.4,0-0.6,0c-1,0-1.5,0.5-1.5,1.4l0,2.1l-0.3,0c-0.2,0-0.3,0-0.4,0c-0.3,0-0.5-0.1-0.7-0.2
			C44.1,6,44,5.8,44,5.6l0-1.2l-1.3,0l0,3.4c0,0.6-0.4,1-1.2,1.1c-0.8,0.1-1.4,0-1.8-0.4c-0.2-0.1-0.2-0.4-0.2-0.8l0-1.7l-1.3,0
			l0,1.7c0,0.8,0.2,1.3,0.6,1.7c0.4,0.3,0.9,0.5,1.5,0.6c0.6,0.1,1.2,0.1,1.7,0c0.6-0.1,1.1-0.4,1.5-0.7c0.4-0.4,0.6-0.9,0.6-1.5
			l0-0.2c0.2,0.1,0.5,0.1,0.8,0.1l6,0.1c0.7,0,1.2-0.2,1.5-0.5c0.3-0.3,0.4-0.9,0.5-1.6c0-0.7-0.1-1.3-0.3-1.6
			C52.2,3.8,51.8,3.6,51.3,3.5z M51.7,5.6c0,0.6-0.3,0.8-1,0.8l-4.1-0.1l0.1-1.5c0-0.3,0.1-0.5,0.2-0.6c0.1-0.1,0.4-0.1,0.7-0.1
			l3.2,0.5c0.6,0.1,0.9,0.3,0.8,0.7L51.7,5.6z"/>
		<rect x="50.8" y="4.4" transform="matrix(0.2376 -0.9714 0.9714 0.2376 36.6195 56.813)" width="7.5" height="1.3"/>
		<path d="M64.3,9.8c0.3-0.7,0.4-1.3,0.1-1.8c-0.2-0.4-0.7-0.8-1.4-1.2c-0.7-0.4-1.3-0.5-1.8-0.3c-0.5,0.1-0.9,0.5-1.2,1.2l-0.3,0.6
			l-0.2,0.2c-0.2,0.3-0.4,0.3-0.7,0.3c-0.1,0-0.3-0.1-0.8-0.3L58,8.7l-0.2-0.1L59,5.2l-1.2-0.4l-1.6,5c-0.1,0.3-0.2,0.5-0.4,0.7
			c-0.2,0.1-0.4,0.1-0.7,0c-0.4-0.1-0.7-0.3-0.8-0.4l0,0l-0.4,1.1c0.2,0.1,0.5,0.3,0.9,0.4c0.7,0.2,1.3,0.3,1.7,0.1
			c0.4-0.2,0.7-0.5,0.9-1.1l0.2-0.6l0.7,0.2l0-0.1c0.5,0.2,1,0.2,1.3,0l0.1,0.2l0.1,0.1c0.2,0.3,0.5,0.6,1,0.9
			c0.1,0.1,0.3,0.1,0.4,0.2c0.7,0.3,1.4,0.5,1.8,0.3c0.5-0.1,0.9-0.5,1.2-1.2L64.3,9.8z M63.1,9.3l-0.3,0.6
			c-0.3,0.6-0.8,0.8-1.4,0.5c-0.3-0.2-0.5-0.3-0.6-0.6c-0.1-0.2,0-0.5,0.1-0.9l0.3-0.6c0.2-0.3,0.4-0.5,0.6-0.6c0.2,0,0.5,0,0.8,0.2
			C63.2,8.2,63.4,8.7,63.1,9.3z"/>
		<path d="M69.5,7.6l-3,4.6c-0.1,0.2-0.3,0.3-0.5,0.3l1.9-4.2l-1-0.7L64.9,12c-0.1-0.1-0.2-0.3-0.2-0.4L64,12.7
			c0.3,0.4,0.6,0.7,1.1,0.9c0.5,0.2,0.9,0.3,1.3,0.3c0.4-0.1,0.8-0.3,1.1-0.8l3.1-4.8L69.5,7.6z"/>
		<path d="M68,7.8l-0.1-0.2c0-0.1-0.1-0.2-0.1-0.2c-0.1-0.2-0.1-0.3,0-0.3c0,0,0.1,0,0.3,0.2L68.4,7l-0.3-0.2
			c-0.2-0.1-0.4-0.1-0.5,0c-0.1,0.2-0.2,0.3,0,0.5c-0.1-0.1-0.2-0.1-0.3-0.1l-0.1,0.3c0.1,0,0.4,0.1,0.7,0.4L68,7.8z"/>
		<path d="M71.9,18.8c0.5,0,1-0.2,1.5-0.8l0.5-0.5c0.5-0.6,0.8-1.1,0.7-1.6c-0.1-0.5-0.4-1-1-1.6c-0.6-0.6-1.1-0.9-1.6-0.9
			c-0.5,0-1,0.2-1.6,0.8L70,14.7c-0.5,0.6-0.8,1.1-0.7,1.6c0.1,0.5,0.4,1,1,1.6C70.9,18.4,71.4,18.7,71.9,18.8z M71,15.6l0.4-0.5
			c0.3-0.3,0.5-0.4,0.8-0.4c0.2,0,0.4,0.2,0.7,0.4c0.5,0.5,0.5,1,0.1,1.4L72.5,17c-0.5,0.5-1,0.5-1.5,0c-0.3-0.3-0.4-0.5-0.4-0.7
			C70.6,16.1,70.7,15.9,71,15.6z"/>
		<rect x="73.6" y="12" transform="matrix(0.6923 -0.7216 0.7216 0.6923 13.761 57.3482)" width="1.1" height="1.2"/>
		<rect x="74.8" y="13.1" transform="matrix(0.6925 -0.7215 0.7215 0.6925 13.2981 58.5384)" width="1.1" height="1.2"/>
		<path d="M77.8,19l-0.8-1l-4,3.3c-0.3,0.2-0.5,0.3-0.7,0.3c-0.2,0-0.4-0.1-0.6-0.4c-0.3-0.4-0.4-0.6-0.5-0.7l0-0.1l-0.9,0.7
			c0.1,0.2,0.3,0.5,0.5,0.8c0.5,0.6,0.9,0.9,1.4,1c0.4,0.1,0.9-0.1,1.4-0.5L77.8,19z"/>
		<rect x="83.3" y="25.2" transform="matrix(0.911 -0.4124 0.4124 0.911 -3.1727 36.8776)" width="1.1" height="1.2"/>
		<rect x="85.1" y="25.3" transform="matrix(0.9109 -0.4126 0.4126 0.9109 -3.0562 37.6431)" width="1.1" height="1.2"/>
		<rect x="84" y="26.7" transform="matrix(0.911 -0.4125 0.4125 0.911 -3.7265 37.2995)" width="1.1" height="1.2"/>
		<path d="M78.9,30.5L78.9,30.5l0,0.2c0.3,0.7,0.6,1.2,1,1.4c0.4,0.2,0.9,0.2,1.4,0l5.4-1.9L86.3,29l-5.1,1.8
			c-0.3,0.1-0.5,0.1-0.6,0c-0.1-0.1-0.2-0.2-0.3-0.4c-0.2-0.4-0.3-0.7-0.3-0.9c0-0.2,0.1-0.5,0.5-0.6l2.6-1.2l-0.5-1.2l-2.6,1.2
			c-0.3,0.1-0.6,0.1-0.8,0c-0.1-0.1-0.3-0.4-0.5-0.8l-0.2-0.5l0,0l-0.2-0.3l0-0.1l0,0l-0.1-0.2l3-1.9l-1.3-2.1
			c-1.4-2.2-4.5-0.6-4.7,1c0,0.3,0.1,0.8,0.4,1.3l0.8,1.3l-0.4,0.2c-0.3,0.2-0.5,0.2-0.8,0.2c-0.2-0.1-1.1-1.3-1.3-1.6l-0.7,1.1
			c0.5,0.8,1.5,1.7,1.9,1.8c0.4,0.1,0.9,0,1.5-0.4l0.5-0.3l0.1,0.2l0.3,0.7c0.3,0.8,0.8,1.3,1.4,1.5C78.7,29.4,78.7,29.9,78.9,30.5z
			 M76.5,23.3c-0.6-0.9,1.4-2.2,2.3-0.9l0.6,0.9l-2,1.3L76.5,23.3z"/>
		<rect x="79.9" y="32.3" transform="matrix(0.9599 -0.2805 0.2805 0.9599 -5.8816 24.7783)" width="7.5" height="1.3"/>
		<rect x="87.1" y="37.8" transform="matrix(0.9888 -0.1494 0.1494 0.9888 -4.7486 13.5209)" width="1.1" height="1.2"/>
		<path d="M88.8,42.2c0-0.6-0.2-1-0.5-1.2c-0.3-0.3-0.9-0.4-1.6-0.4c-0.4,0-0.7,0.1-0.9,0.3c-0.2,0.1-0.4,0.5-0.7,1l-0.9,1.6
			c-0.1,0.1-0.2,0.2-0.3,0.3c-0.1,0-0.3,0.1-0.5,0.1c-0.4,0-0.6-0.3-0.6-0.9L82.7,40l-0.1,0l0-0.2l3.5-0.5L85.9,38l-5.2,0.8
			c-0.3,0.1-0.6,0-0.8-0.1c-0.2-0.1-0.3-0.3-0.3-0.6c-0.1-0.4-0.1-0.7,0-0.9l0-0.1l-1.1,0.2c0,0.3,0,0.6,0.1,1
			c0.1,0.8,0.3,1.3,0.7,1.6c0.3,0.3,0.8,0.4,1.4,0.3l0.7-0.1l0.1,0.7l0,0l0.1,2.8c0,0.6,0.2,1,0.5,1.3c0.3,0.3,0.8,0.4,1.6,0.4
			c0.5,0,0.8-0.1,0.9-0.2c0.2-0.1,0.4-0.4,0.6-0.7l1.1-1.9c0.1-0.2,0.2-0.3,0.3-0.4c0.1-0.1,0.3-0.1,0.4-0.1c0.2,0,0.4,0.1,0.5,0.3
			c0.1,0.1,0.2,0.3,0.2,0.7l0.2,2.1l1.2,0L88.8,42.2z"/>
		<path d="M80.3,46.9c-0.1-0.1-0.2-0.4-0.2-0.7c0-0.5,0.1-0.7,0.2-0.9l0-0.1l-1.2-0.1c-0.1,0.2-0.1,0.6-0.2,0.9
			c-0.1,0.8,0,1.3,0.3,1.7c0.3,0.4,0.7,0.6,1.3,0.6l0.7,0.1l-0.1,0.7l0.1,0c0,0.6,0.1,1,0.3,1.2l-0.2,0.1l-0.1,0.1
			c-0.3,0.2-0.5,0.6-0.6,1.2c0,0.1-0.1,0.3-0.1,0.4c-0.2,0.8-0.1,1.4,0.1,1.9c0.2,0.4,0.7,0.7,1.5,0.9l0.7,0.1
			c0.8,0.2,1.3,0.1,1.7-0.3c0.4-0.3,0.6-0.8,0.8-1.6c0.2-0.8,0.1-1.4-0.1-1.8c-0.2-0.5-0.7-0.8-1.5-0.9l-0.6-0.1L83,50.3
			c-0.3-0.1-0.4-0.3-0.4-0.6c0-0.1,0-0.4,0.1-0.8l-0.1,0l0-0.2l3.5,0.3l0.1-1.3L81,47.2C80.7,47.1,80.4,47.1,80.3,46.9z M82.9,51.6
			l0.6,0.1c0.4,0.1,0.6,0.2,0.7,0.5c0.1,0.2,0.1,0.5,0,0.8c-0.1,0.7-0.5,0.9-1.2,0.8l-0.6-0.1c-0.7-0.2-1-0.6-0.8-1.3
			c0.1-0.4,0.2-0.6,0.4-0.7C82.2,51.6,82.5,51.6,82.9,51.6z"/>
	</g>
</g>
</svg>
