<?xml version="1.0" encoding="utf-8"?>
<!-- Generator: Adobe Illustrator 23.0.0, SVG Export Plug-In . SVG Version: 6.00 Build 0)  -->
<svg version="1.1" id="Layer_1" xmlns="http://www.w3.org/2000/svg" xmlns:xlink="http://www.w3.org/1999/xlink" x="0px" y="0px"
	 viewBox="0 0 365 90" style="enable-background:new 0 0 365 90;" xml:space="preserve">
<style type="text/css">
	
		.st0{clip-path:url(#SVGID_1_);fill-rule:evenodd;clip-rule:evenodd;fill:none;stroke:#000000;stroke-width:1.2459;stroke-linecap:square;stroke-miterlimit:10;}
	
		.st1{clip-path:url(#SVGID_1_);fill-rule:evenodd;clip-rule:evenodd;fill:none;stroke:#000000;stroke-width:0.9341;stroke-linecap:square;stroke-miterlimit:10;}
	.st2{display:none;}
	.st3{display:inline;}
</style>
<g>
	<g>
		<g>
			<defs>
				<polygon id="SVGID_3_" points="22.2,87.6 100.6,87.6 100.6,2.2 22.2,2.2 22.2,87.6 				"/>
			</defs>
			<clipPath id="SVGID_1_">
				<use xlink:href="#SVGID_3_"  style="overflow:visible;"/>
			</clipPath>
			<polygon class="st0" points="73.3,87 73.3,79.3 73.6,77.5 74.1,75.6 75.2,74.3 77,73.6 82.6,72.4 86,71.7 88.7,70.6 90.6,69.7 
				91.5,68.8 92.2,67.6 92.2,65.5 92.1,62.8 91.8,59.1 91.8,56 92.2,53.1 93,51.4 94.1,50.2 96,49.4 98.6,48.4 99.4,47.7 99.9,46.9 
				99.9,45.7 99,44.5 98.2,43.5 91.9,35.7 91.4,35 91.7,33.8 92.5,32.6 93.7,29.3 94.1,27.2 94.1,24 92.6,19.3 91.1,15.8 88.7,11.5 
				86.4,8.8 83.8,6.3 80.3,4.5 74.9,3.2 69.8,2.7 64.5,2.6 59.4,2.8 55.2,3.4 51.2,4.2 46.6,5.9 42.1,8.2 36.6,12 34,14.1 
				31.7,16.4 29.2,19.3 26.7,23 24.3,27.6 23.1,31.5 22.5,35.9 22.8,39.2 23.5,42.6 25,46.1 29.3,52.9 35,61.3 37.3,65.5 38.2,67.9 
				38.7,70.2 39,72.4 39.1,74.4 39.3,78.4 38.7,87 			"/>
			<polygon class="st1" points="60.1,13.2 61.3,12.7 62.7,12.4 63.9,12.3 64.8,14 66.1,14.2 67.6,14.4 69,14.8 70.7,13.4 71.6,14 
				72.6,14.7 73.6,15.5 73,17.6 74.1,18.9 74.7,20.1 75.3,21.7 77.2,21.8 77.5,23 77.7,24.3 77.6,25.8 75.8,26.4 75.4,27.9 
				74.8,29.3 73.9,30.7 75,32.5 74.1,33.5 73.1,34.4 71.6,35.4 70.1,34.3 68.5,35.1 67,35.4 65.5,35.5 64.5,37.4 63.2,37.2 61.9,37 
				60.8,36.7 60.7,34.6 59.4,33.7 58,32.7 56.9,31.6 54.8,32.2 54.1,31.1 53.7,30.1 53.2,28.9 54.8,27.6 54.6,25.8 54.4,24.4 
				54.5,22.8 52.8,21.4 53.1,20.4 53.7,19.3 54.3,18.2 56.7,18.1 57.6,17.1 58.6,16.2 60,15.2 			"/>
			<path class="st1" d="M60.5,26.6c-1.1-2.6,0.2-5.5,2.8-6.6c2.6-1,5.5,0.2,6.6,2.8c1.1,2.6-0.2,5.5-2.8,6.6
				C64.4,30.4,61.5,29.2,60.5,26.6L60.5,26.6z"/>
			<polygon class="st1" points="44,49.7 42.7,49.7 41.3,49.5 40.1,49.1 40,47.2 38.9,46.6 37.5,45.8 36.3,44.8 34.3,45.5 33.6,44.7 
				32.9,43.6 32.4,42.5 33.8,40.8 33.2,39.1 33.1,37.8 33.1,36.1 31.3,35.3 31.6,34 31.9,32.8 32.5,31.4 34.4,31.6 35.4,30.3 
				36.4,29.2 37.8,28.3 37.4,26.2 38.6,25.6 40,25.2 41.7,24.8 42.6,26.4 44.4,26.3 45.9,26.5 47.4,26.9 49,25.6 50.2,26.3 51.3,27 
				52.1,27.7 51.4,29.6 52.4,30.9 53.3,32.4 53.9,33.8 56,34 56.3,35.4 56.3,36.4 56.3,37.7 54.3,38.3 53.9,40.1 53.5,41.4 
				52.8,42.9 53.8,44.8 53.2,45.6 52.3,46.5 51.3,47.3 49,46.4 47.8,47 46.6,47.4 44.8,47.8 			"/>
			<path class="st1" d="M39,37.4c0-2.8,2.2-5,5-5s5,2.2,5,5s-2.2,5-5,5S39,40.2,39,37.4L39,37.4z"/>
		</g>
	</g>
	<g class="st2">
		<rect x="9.9" y="47.6" transform="matrix(0.9816 -0.191 0.191 0.9816 -9.0533 2.9346)" class="st3" width="1.6" height="1.7"/>
		<path class="st3" d="M7.1,42.9l-7.1,1.4L0.4,46l5.2-1l1.7,8.5c0.1,0.5,0,0.8-0.2,1.1c-0.2,0.3-0.6,0.5-1.1,0.6
			c-0.6,0.1-1,0.1-1.3-0.1c-0.3-0.2-0.5-0.5-0.6-1l-1.8,0.4c0.2,1.1,0.5,1.8,1,2.1c0.6,0.4,1.7,0.5,3.2,0.2c1.3-0.3,2.2-0.6,2.6-1.1
			c0.4-0.5,0.5-1.2,0.3-2.2L7.1,42.9z"/>
		<path class="st3" d="M9.2,19.2c-0.2,0.5-0.4,0.8-0.7,1c-0.3,0.1-0.6,0.1-1.1-0.1l-0.7-0.3c-0.9-0.3-1.2-0.9-0.9-1.8l1-2.5
			l-1.6-0.6L4,18.2c-0.3,0.7-0.3,1.4,0,1.9c0.3,0.6,0.9,1.1,1.8,1.4l1.5,0.6c0.3,0.1,0.5,0.2,0.8,0.2l-0.1,0.2l-0.5-0.1l-0.2,1.1
			c-0.2,0.4-0.4,0.6-0.8,0.7c-0.2,0-0.4-0.1-0.6-0.1C4.8,24,4,24,3.5,24.3c-0.5,0.3-0.9,0.8-1.1,1.6l-1.6,5.3
			c-0.1,0.3-0.1,0.5-0.2,0.8c-0.2,1.4,0.4,2.2,1.8,2.4l3.1,0.5c-0.1,0.5-0.2,0.8-0.3,0.9c-0.2,0.3-0.7,0.4-1.3,0.3l-2.1-0.3
			l-0.3,1.7l2.1,0.3c0.6,0.1,1,0.3,1.2,0.7c0,0.1,0.1,0.3,0,0.6l-0.1,0.3l0.5,0.1c0,0.1-0.1,0.3-0.1,0.4c-0.2,0.3-0.5,0.4-0.9,0.4
			l-8,0.3l0.1,1.9l8.5-0.3c0.9,0,1.5-0.3,2-0.8C7.2,41,7.4,40.2,7.4,39l0-0.3l-0.6,0c0-0.1,0-0.2-0.1-0.4c-0.1-0.5-0.3-0.8-0.6-1
			C6.4,37.3,6.7,37,7,36.6c0.2-0.3,0.4-0.7,0.5-1.2l1.2-7.9c0.2-1,0-1.8-0.4-2.3l0,0c0.4-0.2,0.7-0.7,0.9-1.3L9.4,24l2.8-7.3
			L10.4,16L9.2,19.2z M6.7,27.3l-0.9,5.9l-2.2-0.4c-0.4-0.1-0.7-0.2-0.8-0.4c-0.1-0.2-0.1-0.5,0-1.1l1.4-4.6
			c0.2-0.8,0.6-1.2,1.2-1.1l0.2,0C6.4,25.8,6.8,26.3,6.7,27.3z"/>
		<path class="st3" d="M4.3,10.8c-0.1,0.1-0.1,0.3-0.1,0.4l0.4,0.1c0-0.2,0.2-0.6,0.5-1.1L4.8,10l-0.2,0.1c-0.1,0.1-0.2,0.1-0.3,0.2
			c-0.3,0.1-0.4,0.1-0.5,0c0,0,0-0.2,0.2-0.5L3.6,9.6L3.4,10c-0.2,0.3-0.1,0.6,0.1,0.8C3.8,11,4,11,4.3,10.8z"/>
		<path class="st3" d="M12.7,10.3l-7.5-4L4.4,7.9l7.1,3.8c0.3,0.2,0.5,0.4,0.5,0.7l-6.4-2.2l-0.9,1.6l6.6,2.3
			c-0.2,0.2-0.4,0.3-0.6,0.3l1.8,0.9c0.5-0.4,0.9-1,1.2-1.7c0.3-0.7,0.4-1.3,0.3-1.9C14,11.2,13.5,10.7,12.7,10.3z"/>
		
			<rect x="10.4" y="1.4" transform="matrix(0.5421 -0.8403 0.8403 0.5421 -0.5773 12.7425)" class="st3" width="1.9" height="11.1"/>
		<path class="st3" d="M22.2,3.3l-6.3-5l-2.3,2.9c-2.4,3,1.4,6.6,3.7,6.1c0.5-0.1,1-0.5,1.6-1.3l1.4-1.7l0.5,0.4
			c0.4,0.3,0.6,0.6,0.6,1c0,0.4-1.3,2.2-1.6,2.6l1.9,0.4c0.8-1.1,1.7-2.9,1.7-3.5C23.4,4.6,23,3.9,22.2,3.3z M17.2,4.9
			c-1,1.2-3.8-1-2.3-2.8l1-1.3L18.7,3L17.2,4.9z"/>
		
			<rect x="20.2" y="-10.8" transform="matrix(0.7904 -0.6126 0.6126 0.7904 10.5649 10.8066)" class="st3" width="1.7" height="1.6"/>
		<path class="st3" d="M41.3-22.7l-1.8,0.6l2.6,7.6c0.1,0.4,0.1,0.7-0.1,0.9c-0.1,0.1-0.2,0.2-0.4,0.3l-0.1-0.1
			c-0.6,0.3-1,0.5-1.1,0.5c-0.4,0.1-0.8,0-1.1-0.4l-0.2-0.3l-0.4-0.8c-0.5-1-1.1-1.6-1.9-1.8c-0.7-0.1-1.6,0-2.6,0.6
			c-1.1,0.5-1.8,1.1-2.1,1.8c-0.3,0.7-0.2,1.6,0.3,2.6l0.4,0.8l0.1,0.4c0.1,0.5,0,0.8-0.3,1.1c-0.1,0-0.2,0.1-0.4,0.2l-0.1-0.1
			L32-8.8c-0.5,0.4-0.9,0.6-1,0.7c-0.4,0.2-0.8,0.1-1.1-0.2l-0.5-0.4c-0.6-0.7-1.2-1.2-1.6-1.3c-0.5-0.2-1.2,0-1.9,0.4l-5.5,3.2
			l1.1,1.6l5.2-2.9c0.7-0.4,1.3-0.4,1.6,0l0.1,0.2c0.5,0.7,0.4,1.3-0.4,1.9l-3.2,2.5c-1.3,1-1.5,2.1-0.6,3.3l0.4,0.5L24.9,1
			c0.6,0.7,1.2,1,1.7,1c0.5,0,1.1-0.2,1.9-0.8l1.2-0.9l-1-1.3l-0.8,0.6c-0.4,0.3-0.7,0.4-1,0.4c-0.2,0-0.3-0.1-0.5-0.2
			c-0.3-0.2-0.5-0.4-0.6-0.7c-0.1-0.2,0-0.4,0.2-0.6c0.1-0.1,0.2-0.2,0.4-0.3l3-2.3c0.8-0.7,1.3-1.3,1.3-2c0,0,0-0.1,0-0.2
			c0.5,0.2,1.1,0.1,1.8-0.3l0,0l0.2-0.1c1.1-0.6,1.7-1.2,1.8-1.9l0.3,0.1l0.2,0c0.5,0.1,1.2,0,2-0.4c0.2-0.1,0.4-0.2,0.6-0.3
			c0.2-0.1,0.4-0.2,0.6-0.3c0.8-0.5,1.3-1,1.5-1.5c0-0.1,0.1-0.2,0.1-0.3c0.5,0.3,1.1,0.3,1.9,0l0.1,0.2l0.3-0.1
			c1.1-0.4,1.8-0.8,2.1-1.4c0.3-0.6,0.3-1.3,0-2.1L41.3-22.7z M36.7-10.6c-0.5,0.2-0.9,0.3-1.2,0.2c-0.3-0.1-0.6-0.4-0.9-0.9
			l-0.4-0.9c-0.3-0.5-0.3-0.9-0.1-1.3c0.1-0.3,0.4-0.5,0.9-0.8c0.9-0.5,1.6-0.2,2,0.7l0.4,0.9C37.9-11.7,37.6-11,36.7-10.6z"/>
		
			<rect x="44.3" y="-23.7" transform="matrix(0.9624 -0.2715 0.2715 0.9624 6.6205 11.616)" class="st3" width="1.9" height="11.1"/>
		
			<rect x="66.7" y="-25.2" transform="matrix(1.267779e-02 -0.9999 0.9999 1.267779e-02 90.9601 43.4197)" class="st3" width="1.6" height="1.7"/>
		<path class="st3" d="M70.7-21l-5.4-0.8c-0.3,0-0.6-0.1-0.8-0.1c-1.4,0-2.1,0.7-2.2,2.1l-0.1,3.1l-0.5,0c-0.3,0-0.4,0-0.6,0
			c-0.5,0-0.8-0.2-1-0.4c-0.1-0.2-0.2-0.4-0.3-0.7l0-1.8l-1.9,0l-0.1,5c0,0.9-0.6,1.5-1.8,1.6c-1.1,0.2-2,0-2.6-0.5
			c-0.2-0.2-0.3-0.6-0.3-1.2l0-2.5l-1.9,0l0,2.5c0,1.2,0.2,2,0.8,2.5c0.5,0.5,1.3,0.7,2.2,0.9c0.9,0.2,1.7,0.1,2.6,0
			c0.9-0.2,1.6-0.5,2.2-1.1c0.6-0.6,0.9-1.3,0.9-2.2l0-0.3c0.4,0.1,0.8,0.1,1.2,0.1l8.9,0.1c1.1,0,1.8-0.2,2.3-0.7
			c0.4-0.5,0.7-1.3,0.7-2.4c0-1.1-0.1-1.9-0.4-2.3C72.2-20.6,71.6-20.9,70.7-21z M71.4-17.9c0,0.8-0.5,1.2-1.5,1.2l-6-0.1l0.1-2.2
			c0-0.4,0.1-0.7,0.3-0.8c0.2-0.1,0.5-0.2,1.1-0.2l4.8,0.8c0.8,0.1,1.3,0.5,1.3,1L71.4-17.9z"/>
		
			<rect x="70" y="-19.6" transform="matrix(0.2376 -0.9714 0.9714 0.2376 75.6739 59.1168)" class="st3" width="11.1" height="1.9"/>
		<path class="st3" d="M90-11.6c0.5-1,0.6-1.9,0.2-2.6c-0.3-0.6-1-1.2-2.1-1.7c-1.1-0.5-2-0.7-2.7-0.5c-0.8,0.2-1.4,0.8-1.8,1.8
			l-0.4,0.9L83-13.5c-0.3,0.4-0.6,0.5-1,0.4c-0.1,0-0.5-0.2-1.1-0.5l-0.1,0.2l-0.3-0.1l1.6-5L80.3-19l-2.4,7.4
			c-0.2,0.5-0.4,0.8-0.6,1c-0.3,0.2-0.6,0.2-1.1,0c-0.6-0.2-1-0.4-1.2-0.6L75-11.3l-0.5,1.6c0.3,0.2,0.8,0.4,1.3,0.5
			c1.1,0.3,1.9,0.4,2.5,0.2c0.6-0.3,1-0.8,1.3-1.7l0.3-0.9l1,0.3l0-0.1c0.8,0.3,1.4,0.2,1.9-0.1l0.1,0.3l0.1,0.2
			c0.2,0.5,0.7,0.9,1.5,1.3c0.2,0.1,0.4,0.2,0.6,0.3c1.1,0.5,2,0.7,2.7,0.5c0.7-0.2,1.3-0.8,1.8-1.8L90-11.6z M88.2-12.4l-0.4,0.9
			c-0.5,1-1.1,1.2-2.1,0.8c-0.5-0.2-0.8-0.5-0.9-0.8c-0.1-0.3-0.1-0.7,0.2-1.3l0.4-0.9c0.2-0.5,0.5-0.8,0.9-0.9
			c0.3-0.1,0.7,0,1.1,0.2C88.4-14,88.6-13.3,88.2-12.4z"/>
		<path class="st3" d="M97.7-14.9l-4.4,6.8c-0.2,0.3-0.4,0.4-0.7,0.5l2.8-6.2l-1.6-1l-2.9,6.4c-0.1-0.2-0.2-0.4-0.3-0.6l-1.1,1.7
			c0.4,0.5,0.9,1,1.6,1.4c0.7,0.4,1.3,0.5,1.8,0.4c0.6-0.1,1.1-0.5,1.6-1.2l4.7-7.1L97.7-14.9z"/>
		<path class="st3" d="M95.5-14.6l-0.1-0.3c-0.1-0.1-0.1-0.2-0.1-0.3c-0.1-0.3-0.1-0.4,0.1-0.5c0.1,0,0.2,0.1,0.5,0.2l0.2-0.3
			L95.6-16c-0.3-0.2-0.6-0.2-0.8,0c-0.2,0.2-0.2,0.5,0,0.8c-0.1-0.1-0.3-0.1-0.4-0.1l-0.1,0.4c0.2,0,0.6,0.2,1.1,0.5L95.5-14.6z"/>
		<path class="st3" d="M101.2,1.6c0.7,0,1.5-0.3,2.3-1.2l0.7-0.7c0.8-0.8,1.1-1.6,1-2.4c-0.1-0.7-0.6-1.5-1.4-2.3
			c-0.9-0.8-1.6-1.3-2.4-1.3c-0.8,0-1.5,0.3-2.3,1.1l-0.7,0.7c-0.8,0.8-1.2,1.6-1.1,2.3c0.1,0.7,0.6,1.5,1.5,2.4
			C99.7,1.1,100.5,1.5,101.2,1.6z M99.9-3.1l0.7-0.7c0.4-0.4,0.8-0.6,1.2-0.5c0.3,0,0.6,0.2,1,0.6c0.7,0.7,0.8,1.4,0.1,2.1L102.2-1
			c-0.7,0.8-1.5,0.8-2.2,0c-0.4-0.4-0.6-0.7-0.6-1.1C99.3-2.3,99.5-2.7,99.9-3.1z"/>
		
			<rect x="103.7" y="-8.5" transform="matrix(0.6923 -0.7216 0.7216 0.6923 37.6566 73.0843)" class="st3" width="1.6" height="1.7"/>
		
			<rect x="105.5" y="-6.8" transform="matrix(0.6925 -0.7215 0.7215 0.6925 36.9693 74.8488)" class="st3" width="1.6" height="1.7"/>
		<path class="st3" d="M110,1.9l-1.2-1.5l-6,4.9c-0.4,0.3-0.7,0.5-1,0.5c-0.3,0-0.6-0.2-0.9-0.6c-0.4-0.5-0.6-0.9-0.7-1.1l0-0.1
			l-1.3,1.1c0.2,0.3,0.4,0.7,0.8,1.2c0.7,0.9,1.4,1.4,2,1.5c0.6,0.1,1.3-0.1,2-0.7L110,1.9z"/>
		<rect x="118.1" y="11.1" transform="matrix(0.911 -0.4124 0.4124 0.911 5.6399 50.1087)" class="st3" width="1.6" height="1.7"/>
		
			<rect x="120.8" y="11.3" transform="matrix(0.9109 -0.4126 0.4126 0.9109 5.8163 51.2381)" class="st3" width="1.6" height="1.7"/>
		<rect x="119.1" y="13.3" transform="matrix(0.911 -0.4125 0.4125 0.911 4.8232 50.7309)" class="st3" width="1.6" height="1.7"/>
		<path class="st3" d="M111.6,18.9L111.6,18.9l0.1,0.3c0.4,1.1,0.9,1.8,1.4,2.1c0.6,0.3,1.3,0.3,2.1,0l8-2.9l-0.7-1.8l-7.5,2.7
			c-0.4,0.1-0.7,0.1-0.9-0.1c-0.1-0.1-0.3-0.3-0.4-0.5c-0.3-0.7-0.4-1.1-0.4-1.3c0-0.4,0.2-0.7,0.7-0.9l3.8-1.7l-0.8-1.7l-3.8,1.7
			c-0.5,0.2-0.9,0.2-1.1-0.1c-0.1-0.1-0.4-0.5-0.7-1.2l-0.3-0.7l0.1,0l-0.3-0.5l-0.1-0.2l0,0l-0.2-0.3l4.4-2.8l-2-3.1
			c-2.1-3.2-6.7-0.8-7,1.5c-0.1,0.5,0.2,1.2,0.7,2l1.2,1.9l-0.6,0.4c-0.4,0.3-0.8,0.3-1.1,0.2c-0.4-0.1-1.7-1.9-1.9-2.4l-1,1.7
			c0.7,1.1,2.2,2.5,2.8,2.7c0.6,0.2,1.3,0,2.2-0.6l0.8-0.5l0.2,0.3l0.5,1.1c0.5,1.1,1.2,1.9,2.1,2.2
			C111.3,17.3,111.3,18.1,111.6,18.9z M108.1,8.4c-0.9-1.3,2.1-3.2,3.4-1.3l0.9,1.4l-3,1.9L108.1,8.4z"/>
		
			<rect x="113" y="21.6" transform="matrix(0.9599 -0.2805 0.2805 0.9599 -1.5678 34.1651)" class="st3" width="11.1" height="1.9"/>
		
			<rect x="123.7" y="29.7" transform="matrix(0.9888 -0.1494 0.1494 0.9888 -3.1724 18.941)" class="st3" width="1.6" height="1.7"/>
		<path class="st3" d="M126.2,36.2c-0.1-0.8-0.3-1.4-0.7-1.8c-0.5-0.4-1.3-0.6-2.3-0.5c-0.6,0-1,0.2-1.3,0.4c-0.3,0.2-0.6,0.7-1,1.4
			l-1.4,2.4c-0.1,0.2-0.3,0.4-0.4,0.4c-0.1,0.1-0.4,0.1-0.7,0.1c-0.6,0-0.8-0.4-0.9-1.3l-0.1-4.3l-0.1,0l0-0.3l5.2-0.8l-0.3-1.9
			l-7.7,1.2c-0.5,0.1-0.9,0-1.1-0.1c-0.3-0.2-0.4-0.5-0.5-0.9c-0.1-0.7-0.1-1.1,0-1.3l0-0.1L111,29c0,0.4,0,0.9,0.1,1.4
			c0.2,1.1,0.5,1.9,1,2.3c0.5,0.4,1.2,0.6,2.1,0.4l1-0.1l0.2,1l0,0l0.1,4.2c0,0.9,0.3,1.5,0.8,1.9c0.5,0.4,1.2,0.6,2.3,0.5
			c0.7,0,1.1-0.1,1.4-0.3c0.2-0.2,0.5-0.5,0.9-1.1l1.7-2.8c0.1-0.2,0.3-0.4,0.4-0.5c0.2-0.1,0.4-0.2,0.6-0.1c0.3,0,0.6,0.2,0.7,0.4
			c0.1,0.2,0.2,0.5,0.3,1.1l0.3,3.1l1.7-0.1L126.2,36.2z"/>
		<path class="st3" d="M113.6,43.2c-0.2-0.2-0.3-0.5-0.3-1c0.1-0.7,0.1-1.1,0.3-1.3l0.1-0.1l-1.7-0.1c-0.1,0.4-0.2,0.8-0.2,1.4
			c-0.1,1.1,0,2,0.4,2.5c0.4,0.5,1,0.8,1.9,0.9l1,0.1l-0.1,1l0.1,0c-0.1,0.8,0.1,1.4,0.5,1.8l-0.3,0.2l-0.2,0.1
			c-0.4,0.3-0.7,0.9-0.9,1.8c-0.1,0.2-0.1,0.4-0.1,0.6c-0.3,1.2-0.2,2.1,0.1,2.8c0.3,0.7,1.1,1.1,2.2,1.3l1,0.2
			c1.1,0.2,2,0.1,2.6-0.4c0.5-0.4,0.9-1.2,1.2-2.4c0.3-1.2,0.2-2.1-0.1-2.7c-0.4-0.7-1.1-1.2-2.2-1.4l-0.9-0.2l-0.3-0.2
			c-0.4-0.2-0.6-0.5-0.7-0.9c0-0.1,0.1-0.5,0.2-1.2l-0.2,0l0-0.2l5.2,0.4l0.2-1.9l-7.7-0.6C114.2,43.6,113.8,43.5,113.6,43.2z
			 M117.5,50.2l0.9,0.2c0.6,0.1,0.9,0.4,1.1,0.7c0.1,0.3,0.1,0.7,0,1.2c-0.2,1-0.8,1.4-1.8,1.2l-0.9-0.2c-1-0.2-1.4-0.8-1.2-1.9
			c0.1-0.5,0.3-0.9,0.6-1.1C116.5,50.1,116.9,50.1,117.5,50.2z"/>
	</g>
</g>
<g>
	<path d="M125.4,19.2c1,0.8,1.5,2.1,1.5,4v1.7c0,1.9-0.5,3.2-1.4,4c-0.9,0.8-2.4,1.2-4.4,1.2c-2.1,0-3.6-0.4-4.5-1.2
		c-0.9-0.8-1.4-2.1-1.4-4v-1.7c0-1.8,0.5-3.2,1.5-4c0.9-0.7,2.3-1.1,4.3-1.1C123.1,18.1,124.5,18.5,125.4,19.2z M117.5,15.5v-2.6
		h2.8v2.6H117.5z M119.3,21.3c-0.5,0.4-0.8,1.1-0.8,2v1.6c0,1,0.2,1.6,0.6,2c0.4,0.4,1.1,0.6,1.9,0.6c1.8,0,2.6-0.9,2.6-2.6v-1.6
		c0-1.6-0.8-2.4-2.5-2.4C120.3,20.8,119.7,20.9,119.3,21.3z M121.5,15.5v-2.6h2.8v2.6H121.5z"/>
	<path d="M135.4,31.7c0,1.5-0.4,2.6-1.2,3.3c-0.8,0.7-2.2,1-4,1c-0.9,0-1.7-0.1-2.3-0.2v-2.8L128,33c0.3,0.2,1,0.3,2.1,0.3
		c0.8,0,1.3-0.2,1.7-0.6c0.3-0.4,0.5-1,0.5-1.8V18.2h3.2V31.7z"/>
	<path d="M150.9,30h-1.7v1.5c0,1.7-0.4,2.9-1.1,3.5c-0.8,0.6-4,1.4-6.3,1.4l-1.5-2.9c0.8,0,4.5-0.2,5-0.6c0.5-0.4,0.7-1,0.7-1.8
		v-1.1h-3.6c-1.6,0-2.7-0.3-3.3-0.8c-3-2.5-2.3-11,4-11h6.1v8.6h1.7V30z M143.3,21c-3.8,0-3.8,5.8-1.2,5.8h3.9V21H143.3z"/>
	<path d="M149.9,30v-3.2h8.1V30H149.9z"/>
	<path d="M156.5,30v-3.2h8.1V30H156.5z"/>
	<path d="M163.1,30v-3.2h8.1V30H163.1z"/>
	<path d="M169.7,30v-3.2h8.1V30H169.7z"/>
	<path d="M176.3,30v-3.2h8.1V30H176.3z"/>
	<path d="M182.9,30v-3.2h8.1V30H182.9z"/>
	<path d="M189.5,30v-3.2h8.1V30H189.5z"/>
	<path d="M196.1,30v-3.2h8.1V30H196.1z"/>
	<path d="M202.7,30v-3.2h8.1V30H202.7z"/>
	<path d="M209.3,30v-3.2h8.1V30H209.3z"/>
	<path d="M224.6,25c0,0.9,0.3,1.4,0.9,1.7c0.3,0.1,1.1,0.2,2.3,0.2h0.2V30h-0.2c-2,0-3.6-0.5-4.7-1.6c-1.1,1.1-2.7,1.6-4.7,1.6H216
		v-3.2h2.4c1.2,0,2-0.1,2.3-0.2c0.6-0.2,0.9-0.8,0.9-1.7v-6.9h3.1V25z M219.7,15.5v-2.6h2.8v2.6H219.7z M221.8,11.6V9h2.8v2.6H221.8
		z M223.7,15.5v-2.6h2.8v2.6H223.7z"/>
	<path d="M232.8,25.7c0,1.5-0.4,2.6-1.2,3.3c-0.8,0.7-2.1,1-4,1H227v-3.2h0.5c0.7-0.1,1.2-0.2,1.5-0.4c0.4-0.3,0.6-0.8,0.6-1.4V11.8
		h3.2V25.7z"/>
	<path d="M234.8,30V11.8h3.2V30H234.8z"/>
	<path d="M253.8,26.8V30h-1.7v1.6c0,1.5-0.4,2.6-1.2,3.3c-0.8,0.7-2.2,1-4,1c-0.9,0-1.7-0.1-2.3-0.2v-2.8l0.1,0.1
		c0.3,0.2,1,0.3,2.1,0.3c0.8,0,1.3-0.2,1.7-0.6s0.5-1,0.5-1.8V18.2h3.2v8.7H253.8z M249,15.5v-2.6h2.8v2.6H249z"/>
	<path d="M252.8,30v-3.2h8.1V30H252.8z"/>
	<path d="M259.4,30v-3.2h8.1V30H259.4z"/>
	<path d="M266,30v-3.2h8.1V30H266z"/>
	<path d="M272.6,30v-3.2h8.1V30H272.6z"/>
	<path d="M279.2,30v-3.2h8.1V30H279.2z"/>
	<path d="M285.8,30v-3.2h8.1V30H285.8z"/>
	<path d="M292.4,30v-3.2h8.1V30H292.4z"/>
	<path d="M299,30v-3.2h8.1V30H299z"/>
	<path d="M305.6,30v-3.2h8.1V30H305.6z"/>
	<path d="M312.2,30v-3.2h8.1V30H312.2z"/>
	<path d="M326.3,15c-0.9,0-1.5,0.2-1.8,0.4c-0.4,0.2-0.6,0.6-0.7,1.2c0,0.3,0,0.7,0.2,1c0.2,0.3,0.4,0.5,0.8,0.8l4.6,3
		c0.9,0.6,1.5,1.1,1.8,1.5c0.2,0.4,0.3,1.2,0.3,2.3c0,1.8-0.3,3-1,3.8c-0.7,0.8-1.7,1.1-3.2,1.1h-8.6v-3.2h7c1.5,0,2.3-0.4,2.3-1.4
		c0-0.6,0-1-0.1-1.2c-0.1-0.3-0.3-0.5-0.7-0.7l-3.9-2.4c-1.2-0.7-1.9-1.3-2.3-1.8c-0.4-0.5-0.6-1.2-0.6-2.1c0-1.8,0.3-3.1,1-3.8
		c0.6-0.7,1.6-1.1,3-1.1l6.8-0.3v2.9L326.3,15z"/>
	<path d="M341.8,26.8V30h-1.7v1.6c0,1.5-0.4,2.6-1.2,3.3c-0.8,0.7-2.2,1-4,1c-0.9,0-1.7-0.1-2.3-0.2v-2.8l0.1,0.1
		c0.3,0.2,1,0.3,2.1,0.3c0.8,0,1.3-0.2,1.7-0.6s0.5-1,0.5-1.8V18.2h3.2v8.7H341.8z"/>
	<path d="M354.4,19.2c1,0.8,1.5,2.1,1.5,4v1.7c0,1.9-0.5,3.2-1.4,4c-0.9,0.8-2.4,1.2-4.4,1.2c-0.3,0-0.7,0-1,0
		c-1.5-0.1-2.5-0.4-3.2-0.9l-0.3-0.2l-0.4-0.4c-0.6,1-2,1.5-4,1.5h-0.4v-3.2c1.2,0,1.8,0,2-0.1c0.7-0.2,1.1-0.6,1.3-1.4l0.1-0.6
		v-1.6c0-1.8,0.5-3.2,1.5-4c0.9-0.7,2.3-1.1,4.3-1.1S353.5,18.4,354.4,19.2z M348.2,21.2c-0.5,0.4-0.8,1.1-0.8,2v1.6
		c0,1,0.2,1.6,0.6,2c0.4,0.4,1.1,0.6,2,0.6c1.7,0,2.6-0.9,2.6-2.6v-1.6c0-1.7-0.8-2.5-2.5-2.5C349.2,20.8,348.6,20.9,348.2,21.2z"/>
	<path d="M122,74.4c-1.7,0-2.9-0.4-3.5-1.2c-0.6-0.8-0.9-2.3-0.9-4.5c0-2.6,0.4-4.3,1.3-5.2c0.6-0.6,1.8-0.9,3.6-0.9v3.1
		c-0.8,0-1.4,0.2-1.8,0.7c-0.4,0.4-0.6,1.2-0.6,2.1c0,0.8,0.2,1.5,0.6,1.9c0.4,0.5,1,0.7,1.8,0.7h14.3v-8.7h2.8v11.9H122z
		 M128.1,79.7v-2.6h2.8v2.6H128.1z"/>
	<path d="M144.7,69.3c0,0.7,0.2,1.2,0.6,1.4c0.3,0.2,0.7,0.3,1.5,0.4h0.5v3.2h-0.5c-1.9,0-3.2-0.3-4-1c-0.8-0.7-1.2-1.8-1.2-3.3
		V56.1h3.2V69.3z"/>
	<path d="M174.8,74.4h-0.5c-1.8,0-3-0.4-3.7-1.3l0,0c-0.7,0.8-1.9,1.3-3.7,1.3h-13.2c-0.9,0-1.6-0.2-2.1-0.4
		c-0.7-0.3-1.2-0.7-1.5-1.2c-0.2,0.5-0.7,0.9-1.5,1.2c-0.6,0.3-1.1,0.4-1.5,0.4h-0.9v-3.2h0.6c0.5,0,0.8-0.1,1-0.2
		c0.6-0.3,0.9-1,0.9-2.1v-3.5h2.9v3.5c0,1,0.3,1.7,0.8,2c0.3,0.2,0.8,0.3,1.6,0.3V66c0-2.3,1.2-3.5,3.5-3.5c0.4,0,0.9,0,1.4,0.1
		l9,1.3c1.4,0.2,2.4,0.7,2.9,1.4c0.5,0.8,0.8,2,0.8,3.8c0,0.3,0,0.6,0,0.9c0.2,0.6,0.6,0.9,1.3,1.1h1.8V74.4z M169.1,68.8
		c0-1-0.7-1.5-2.1-1.7l-7.9-1.2c-0.9,0-1.4,0.1-1.7,0.3c-0.3,0.2-0.4,0.6-0.5,1.4l-0.1,3.6h9.9c1.6,0,2.3-0.7,2.3-2V68.8z"/>
	<path d="M180.9,65.3c-1.5,0-2.3,0.8-2.3,2.4v1.2c0,0.9,0.1,1.5,0.5,1.8s0.9,0.4,1.8,0.4h5.7v3.2h-12.9v-3.2h1.7
		c-0.1-0.4-0.1-0.9-0.1-1.3v-2.6c0-1.6,0.4-2.7,1.1-3.5c0.7-0.8,1.7-1.2,3-1.2h5.9v2.8H180.9z"/>
	<path d="M197.1,70.1c0,1.4-0.4,2.5-1.1,3.1c-0.7,0.6-1.7,1-2.9,1.1s-2.4,0-3.4-0.5v-3.3c0.2,0.2,0.5,0.4,0.9,0.6l-1.8-11.4h3.1
		l1.8,11c0.4-0.3,0.6-0.8,0.6-1.3V56.1h3V70.1z M191,57c-0.5,0-0.8,0-0.9,0.1c-0.2,0.2-0.1,0.4,0.3,0.7c0.1,0.1,0.2,0.2,0.5,0.3
		l0.4,0.2l-0.1,0.5c-1,0-1.6,0-1.9,0.2l-0.2-0.7c0.2-0.2,0.4-0.2,0.7-0.2c-0.5-0.2-0.7-0.6-0.6-1.1c0.1-0.5,0.5-0.8,1.1-0.8h0.8V57z
		"/>
	<path d="M199.1,74.4V56.1h3.2v18.3H199.1z"/>
	<path d="M216,75.9c0,1.7-0.4,2.9-1.1,3.5c-0.8,0.6-4,1.4-6.3,1.4l-1.5-2.9c0.8,0,4.5-0.2,5-0.6c0.5-0.4,0.7-1,0.7-1.8v-1.1h-3.6
		c-1.6,0-2.7-0.3-3.3-0.8c-3-2.5-2.3-11,4-11h6.1V75.9z M210.1,65.3c-3.8,0-3.8,5.8-1.2,5.8h3.9v-5.8H210.1z"/>
	<path d="M235.5,63.9c1.4,0.2,2.4,0.7,2.9,1.5c0.5,0.7,0.8,1.8,0.8,3.4l0.2,1.1c0.1,0.7,0.6,1.2,1.3,1.4c0.2,0,0.9,0.1,2,0.1h0.2
		v3.2h-0.4c-2.2,0-3.6-0.5-4.3-1.5c-0.1,0.1-0.1,0.2-0.2,0.2c-0.7,0.8-2,1.3-3.7,1.3h-6.2c-0.3,0-0.6,0-0.8,0
		c-0.6,0.1-0.9,0.3-0.9,0.6c-0.1,0.5,0,1,0.1,1.5c0.1,0.3,0.3,0.5,0.5,0.7c0.4,0.4,1,0.5,1.7,0.5h1.7v2.8h-2.4
		c-1.6,0-2.6-0.3-3.3-0.8s-1.2-1.6-1.3-3l-0.1-1v-1c0-2.4,1.4-3.6,4.1-3.6h6.6c1.6,0,2.4-0.7,2.4-2.1v-0.4c0-0.9-0.7-1.5-2.1-1.7
		l-9.7-1.4l0.2-3.2L235.5,63.9z M228.3,59.8v-2.6h2.8v2.6H228.3z"/>
	<path d="M255.6,63.5c1,0.8,1.5,2.1,1.5,4v1.5l0.1,0.6c0.1,0.8,0.6,1.2,1.3,1.4c0.2,0.1,0.9,0.1,2,0.1v3.2h-0.4
		c-2.1,0-3.5-0.5-4.1-1.5c-0.1,0.1-0.2,0.3-0.4,0.4c-0.7,0.7-1.8,1.1-3.4,1.2c-0.3,0-0.7,0-1.1,0c-0.3,0-0.7,0-1,0
		c-1.5-0.1-2.5-0.4-3.2-0.9l-0.3-0.2l-0.4-0.4c-0.6,1-2,1.5-4,1.5H242v-3.2c1.2,0,1.8,0,2-0.1c0.7-0.2,1.1-0.6,1.3-1.4l0.1-0.6v-1.6
		c0-1.8,0.5-3.2,1.5-4c0.9-0.7,2.3-1.1,4.3-1.1S254.7,62.8,255.6,63.5z M249.4,65.6c-0.5,0.4-0.8,1.1-0.8,2v1.6c0,1,0.2,1.6,0.6,2
		c0.4,0.4,1.1,0.6,2,0.6c1.7,0,2.6-0.9,2.6-2.6v-1.6c0-1.7-0.8-2.5-2.5-2.5C250.5,65.1,249.8,65.3,249.4,65.6z"/>
	<path d="M265.3,70.1c0,1.5-0.4,2.6-1.2,3.3c-0.8,0.7-2.1,1-4,1h-0.5v-3.2h0.5c0.7-0.1,1.2-0.2,1.5-0.4c0.4-0.3,0.6-0.8,0.6-1.4
		V56.1h3.2V70.1z"/>
	<path d="M267.3,74.4V56.1h3.2v18.3H267.3z"/>
	<path d="M300.9,62.6l9,1.3c1.4,0.2,2.4,0.7,2.9,1.4c0.5,0.8,0.8,2,0.8,3.8c0,1.8-0.3,3.2-1.1,4c-0.7,0.8-2,1.3-3.7,1.3h-14.6
		c-0.8,0-1.4-0.1-2-0.2v0.5c0,1.4-0.5,2.6-1.5,3.6c-0.9,0.9-2.1,1.5-3.6,1.8c-1.4,0.3-2.8,0.4-4.2,0.1c-1.5-0.3-2.7-0.7-3.6-1.5
		c-1-0.8-1.4-2.1-1.4-4v-4.1h3.2v4.1c0,0.9,0.2,1.6,0.6,1.9c1,0.9,2.5,1.1,4.3,0.8c2-0.3,3-1.3,3-2.8v-8.3h3.2v3
		c0.1,0.5,0.2,0.9,0.4,1.2c0.3,0.3,0.8,0.5,1.6,0.6c0.2,0,0.5,0,1,0h0.8l0-5.1c0-2.3,1.2-3.5,3.5-3.5
		C300,62.5,300.5,62.6,300.9,62.6z M301.1,65.9c-0.9,0-1.4,0.1-1.8,0.3c-0.3,0.2-0.4,0.6-0.4,1.4l-0.1,3.6h9.9c1.6,0,2.4-0.7,2.4-2
		v-0.4c0-1-0.7-1.5-2.1-1.7L301.1,65.9z M303.1,59.8v-2.6h2.8v2.6H303.1z"/>
	<path d="M315.6,74.4V56.1h3.2v18.3H315.6z"/>
	<path d="M329.1,71.2v3.2h-1.7V76c0,1.5-0.4,2.6-1.2,3.3c-0.8,0.7-2.2,1-4,1c-0.9,0-1.7-0.1-2.3-0.2v-2.8l0.1,0.1
		c0.3,0.2,1,0.3,2.1,0.3c0.8,0,1.3-0.2,1.7-0.6c0.3-0.4,0.5-1,0.5-1.8V62.5h3.2v8.7H329.1z"/>
	<path d="M341.7,63.5c1,0.8,1.5,2.1,1.5,4v1.7c0,1.9-0.5,3.2-1.4,4c-0.9,0.8-2.4,1.2-4.4,1.2c-0.3,0-0.7,0-1,0
		c-1.5-0.1-2.5-0.4-3.2-0.9l-0.3-0.2l-0.4-0.4c-0.6,1-2,1.5-4,1.5h-0.4v-3.2c1.2,0,1.8,0,2-0.1c0.7-0.2,1.1-0.6,1.3-1.4l0.1-0.6
		v-1.6c0-1.8,0.5-3.2,1.5-4c0.9-0.7,2.3-1.1,4.3-1.1S340.8,62.8,341.7,63.5z M335.5,65.6c-0.5,0.4-0.8,1.1-0.8,2v1.6
		c0,1,0.2,1.6,0.6,2c0.4,0.4,1.1,0.6,2,0.6c1.7,0,2.6-0.9,2.6-2.6v-1.6c0-1.7-0.8-2.5-2.5-2.5C336.5,65.1,335.9,65.3,335.5,65.6z"/>
	<path d="M353.6,70.1c0,1.4-0.4,2.5-1.1,3.1c-0.7,0.6-1.7,1-2.9,1.1s-2.4,0-3.4-0.5v-3.3c0.2,0.2,0.5,0.4,0.9,0.6l-1.8-11.4h3.1
		l1.8,11c0.4-0.3,0.6-0.8,0.6-1.3V56.1h3V70.1z M347.5,57c-0.5,0-0.8,0-0.9,0.1c-0.2,0.2-0.1,0.4,0.3,0.7c0.1,0.1,0.2,0.2,0.5,0.3
		l0.4,0.2l-0.1,0.5c-1,0-1.6,0-1.9,0.2l-0.2-0.7c0.2-0.2,0.4-0.2,0.7-0.2c-0.5-0.2-0.7-0.6-0.6-1.1c0.1-0.5,0.5-0.8,1.1-0.8h0.8V57z
		"/>
</g>
</svg>
