<?xml version="1.0" encoding="utf-8"?>
<!-- Generator: Adobe Illustrator 23.0.0, SVG Export Plug-In . SVG Version: 6.00 Build 0)  -->
<svg version="1.1" id="Layer_1" xmlns="http://www.w3.org/2000/svg" xmlns:xlink="http://www.w3.org/1999/xlink" x="0px" y="0px"
	 viewBox="0 0 365 90" style="enable-background:new 0 0 365 90;" xml:space="preserve">
<style type="text/css">
	.st0{fill:#FFFFFF;}
</style>
<g>
	<g>
		<g>
			<g>
				<g>
					<path class="st0" d="M73.9,87.6H38.1l0.6-9.2l-0.1-4l-0.1-2l-0.3-2.1L37.6,68l-0.9-2.3l-2.3-4.1l-5.6-8.3l-4.4-6.9l-1.5-3.7
						l-0.7-3.4l-0.3-3.5l0.5-4.5l1.3-4.1l2.4-4.6l2.5-3.7l2.6-3l2.3-2.3l2.6-2.1l5.6-3.8l4.5-2.3L51,3.6l4.1-0.8l4.2-0.6l5.2-0.3
						L69.8,2L75,2.6l5.6,1.3l3.6,1.9l2.6,2.4l2.4,2.8l2.4,4.4l1.5,3.5l1.5,4.9v3.4l-0.4,2.1L93,33l-0.7,1.1l-0.2,0.8l0.3,0.4
						l6.2,7.9l0.8,0.9l1.1,1.4v1.6l-0.7,1.1l-1,0.8l-2.6,0.9l-1.7,0.7l-0.9,1l-0.8,1.6L92.4,56v3l0.3,3.6l0.1,2.7v2.3L92,69.3
						l-1.1,0.9L89,71.1l-2.8,1.1l-9,1.9l-1.6,0.6l-0.9,1.1l-0.5,1.7l-0.3,1.7L73.9,87.6z M39.4,86.4h33.3v-7.1l0.3-1.9l0.6-2.1
						l1.3-1.6l2-0.8l9-1.9l2.6-1.1l1.8-0.9l0.8-0.7l0.5-1v-2l-0.1-2.7L91.2,59v-3.2l0.5-3.1l0.9-1.9l1.2-1.3l2-0.9l2.5-0.9l0.7-0.6
						l0.4-0.6v-0.8l-0.8-1.1l-0.8-0.9l-7-8.8l0.5-1.7l0.8-1.1l1.2-3.2l0.4-1.9v-3.1L92,19.5l-1.5-3.4l-2.4-4.3l-2.3-2.7l-2.4-2.3
						L80,5l-5.3-1.2l-5.1-0.5l-5.2-0.1l-5.1,0.3l-4,0.5l-4,0.8l-4.5,1.7l-4.4,2.3l-5.5,3.8l-2.5,2l-2.2,2.3l-2.5,2.9l-2.4,3.6
						l-2.4,4.5l-1.2,3.9L23.2,36l0.3,3.3l0.6,3.2l1.4,3.5l4.3,6.7l5.6,8.3l2.3,4.2l1,2.5l0.6,2.4l0.3,2.2l0.1,2l0.1,4.1L39.4,86.4z"
						/>
				</g>
			</g>
		</g>
		<g>
			<g>
				<g>
					<path class="st0" d="M64.8,37.9l-1.6-0.2l-1.3-0.3L60.4,37l-0.1-2.2l-1.1-0.7l-1.4-1l-1-1l-2.1,0.7l-0.9-1.5l-1.1-2.5l1.7-1.4
						l-0.2-1.5L54,24.5V23l-1.7-1.4l0.4-1.3l0.6-1.2l0.7-1.4l2.5-0.1l0.8-0.9l1-0.9l1.3-0.9v-2.1l1.6-0.6l1.4-0.3l1.6-0.1l0.9,1.8
						l2.5,0.4l1.3,0.4l1.7-1.5l1.2,0.7l1,0.7l1.2,1l-0.6,2.2l1,1.1l0.7,1.2l0.5,1.3l2,0.1l0.4,1.6l0.2,1.3l-0.1,2l-1.9,0.6L75.8,28
						l-0.6,1.4l-0.8,1.2l1.1,1.8l-1.1,1.3l-1.1,1L71.6,36l-1.5-1.1l-1.5,0.7l-1.5,0.3L65.8,36L64.8,37.9z M61.3,36.3l0.7,0.2
						l1.2,0.2l1,0.1l1-1.8l1.8-0.2l1.4-0.3l1.8-0.9l1.4,1.1l1.2-0.8l1-0.9l0.6-0.7l-1.1-1.7l1.1-1.6l0.5-1.3l0.5-1.7l1.8-0.6v-1.2
						L77,23l-0.2-0.9H75l-0.7-1.9l-0.6-1.1l-1.2-1.5l0.6-2.1L72.3,15l-1-0.7L70.7,14l-1.6,1.4l-1.7-0.5l-2.9-0.4l-0.8-1.7l-0.9,0.1
						l-1.3,0.3l-0.9,0.4v2L59,16.7l-1,0.8l-1,1.1h-2.4l-0.5,0.9l-0.5,1.1l-0.2,0.6l1.6,1.4l-0.1,1.9l0.1,1.3l0.3,2l-1.6,1.3l0.8,1.8
						l0.5,0.8l2-0.6l1.3,1.4l1.3,0.9l1.5,0.9L61.3,36.3z M60,15.2L60,15.2L60,15.2z"/>
				</g>
			</g>
		</g>
		<g>
			<g>
				<g>
					<path class="st0" d="M65.1,30.2c-2.2,0-4.2-1.3-5.1-3.4l0,0c-1.1-2.8,0.2-6,3-7.2c2.8-1.1,6,0.2,7.2,3.1c0.6,1.4,0.5,2.9,0,4.2
						c-0.6,1.3-1.6,2.4-3,2.9C66.5,30.1,65.8,30.2,65.1,30.2z M60.9,26.4c0.9,2.3,3.6,3.5,5.9,2.5c1.1-0.5,2-1.3,2.5-2.4
						s0.5-2.4,0-3.5c-0.9-2.3-3.6-3.5-5.9-2.5C61.1,21.4,60,24.1,60.9,26.4L60.9,26.4z"/>
				</g>
			</g>
		</g>
		<g>
			<g>
				<g>
					<path class="st0" d="M44.3,50.2h-1.7L41.3,50l-1.6-0.5l-0.1-2l-2.2-1.3l-1.1-0.8l-2.1,0.7L33.3,45l-0.7-1.1l-0.7-1.4l1.4-1.8
						l-0.5-1.4l-0.2-1.4v-1.4l-1.8-0.8l0.3-1.6l0.3-1.3l0.8-1.8l2,0.2l0.8-1.1l1.1-1.1l1.2-0.8L36.9,26l1.5-0.8l1.4-0.5l2.1-0.5
						l1,1.6l1.6-0.1L46,26l1.3,0.4l1.7-1.3l1.4,0.8l1.1,0.7l1.2,0.9L52,29.6l0.8,1.1l0.9,1.5l0.5,1.3l2.2,0.2l0.3,1.7l0.1,1.1v1.6
						l-2.1,0.7l-0.3,1.5L54,41.7L53.4,43l1.1,2l-0.8,1l-0.9,0.9l-1.2,1l-2.6-1l-1,0.5l-1.3,0.4l-1.5,0.4L44.3,50.2z M40.6,48.8
						l0.9,0.3l1.3,0.2h1l0.8-1.8l1.9-0.5l1.2-0.4l1.4-0.6l2.2,0.8l0.8-0.7l0.9-0.8l0.4-0.5l-1-1.9l0.8-1.7l0.4-1.3l0.5-2l2-0.6v-0.9
						l-0.1-1l-0.2-0.9l-2.1-0.2L53,32.6l-1-1.4l-1.1-1.4l0.7-1.9L51,27.4l-1-0.7l-0.9-0.5l-1.6,1.3L45.8,27l-1.4-0.2l-2,0.1
						l-0.9-1.5l-1.4,0.3L38.8,26L38,26.4l0.3,2l-1.6,1.1l-1,1l-1.1,1.4l-1.9-0.2L32.3,33L32,34.2l-0.2,0.9l1.7,0.8v2l0.2,1.3
						l0.6,1.8l-1.4,1.7l0.4,0.8l1.1,1.6l2-0.7l1.4,1.1l2.6,1.5L40.6,48.8z"/>
				</g>
			</g>
		</g>
		<g>
			<g>
				<g>
					<path class="st0" d="M44,42.9c-3,0-5.5-2.5-5.5-5.5s2.5-5.5,5.5-5.5s5.5,2.5,5.5,5.5S47.1,42.9,44,42.9z M44,32.8
						c-2.5,0-4.6,2-4.6,4.6S41.5,42,44,42s4.6-2,4.6-4.6S46.5,32.8,44,32.8z"/>
				</g>
			</g>
		</g>
	</g>
</g>
<g>
	<rect x="121.5" y="12.9" class="st0" width="2.8" height="2.6"/>
	<path class="st0" d="M125.5,28.9c0.9-0.8,1.4-2.1,1.4-4v-1.7c0-1.9-0.5-3.2-1.5-4c-0.9-0.7-2.3-1.1-4.4-1.1c-2,0-3.4,0.4-4.3,1.1
		c-1,0.8-1.5,2.2-1.5,4v1.7c0,1.9,0.5,3.2,1.4,4c0.9,0.8,2.4,1.2,4.5,1.2C123.1,30.1,124.6,29.7,125.5,28.9z M119.1,26.9
		c-0.4-0.4-0.6-1-0.6-2v-1.6c0-0.9,0.3-1.6,0.8-2c0.4-0.4,1-0.5,1.8-0.4c1.7,0,2.5,0.8,2.5,2.4v1.6c0,1.7-0.8,2.6-2.6,2.6
		C120.2,27.5,119.5,27.3,119.1,26.9z"/>
	<rect x="117.5" y="12.9" class="st0" width="2.8" height="2.6"/>
	<path class="st0" d="M134.2,35c0.8-0.7,1.2-1.8,1.2-3.3h0.1V18.2h-3.2v12.7c0,0.8-0.2,1.4-0.5,1.8c-0.4,0.4-0.9,0.6-1.7,0.6
		c-1.1,0-1.8-0.1-2.1-0.3h-0.1v2.8c0.6,0.1,1.4,0.2,2.3,0.2C132,36,133.4,35.7,134.2,35z"/>
	<rect x="223.7" y="12.9" class="st0" width="2.8" height="2.6"/>
	<rect x="221.8" y="9" class="st0" width="2.8" height="2.6"/>
	<rect x="219.7" y="12.9" class="st0" width="2.8" height="2.6"/>
	<path class="st0" d="M227.6,30L227.6,30h0.2h0.2c1.7,0,2.9-0.3,3.6-1c0.8-0.7,1.2-1.8,1.2-3.3V11.8h-3.2V25c0,0.6-0.2,1.1-0.6,1.4
		c-0.3,0.2-0.8,0.3-1.5,0.4H227v0.1c-0.8,0-1.3-0.1-1.5-0.2c-0.6-0.3-0.9-0.8-0.9-1.7h0.1v-7h-3.1v6.9c0,0.9-0.3,1.5-0.9,1.7
		c-0.3,0.1-1.1,0.2-2.3,0.2h-1H216h-5.2h-1.5h-5.1h-1.5h-5.1h-1.5H191h-1.5h-5.1h-1.5h-5.1h-1.5h-5.1h-1.5h-5.1h-1.5H158h-1.5h-5.6
		h-1h-0.7v-8.6h-6.1c-6.3,0-7,8.5-4,11c0.6,0.5,1.7,0.8,3.3,0.8h3.6v1.1c0,0.8-0.2,1.4-0.7,1.8c-0.5,0.4-4.2,0.6-5,0.6l1.5,2.9
		c2.3,0,5.5-0.8,6.3-1.4c0.7-0.6,1.1-1.8,1.1-3.5V30h0.7h1h5.6h1.5h5.1h1.5h5.1h1.5h5.1h1.5h5.1h1.5h5.1h1.5h5.1h1.5h5.1h1.5h5.1
		h1.5h5.2h1.4h1c2,0,3.6-0.5,4.7-1.6c0.9,0.9,2.3,1.4,3.9,1.6H227.6z M146,26.8h-3.9c-2.6,0-2.6-5.8,1.2-5.8h2.7V26.8z"/>
	<rect x="234.8" y="11.8" class="st0" width="3.2" height="18.2"/>
	<rect x="249" y="12.9" class="st0" width="2.8" height="2.6"/>
	<path class="st0" d="M327.3,30.1c1.5,0,2.5-0.3,3.2-1.1s1-2,1-3.8c0-1.1-0.1-1.9-0.3-2.3c-0.3-0.4-0.9-0.9-1.8-1.5l-4.6-3
		c-0.4-0.3-0.6-0.5-0.8-0.8c-0.2-0.3-0.2-0.7-0.2-1c0.1-0.6,0.3-1,0.7-1.2c0.3-0.2,0.9-0.4,1.8-0.4h4.9v-2.9l-6.8,0.3
		c-1.4,0-2.4,0.4-3,1.1c-0.7,0.7-1,2-1,3.8c0,0.9,0.2,1.6,0.6,2.1c0.4,0.5,1.1,1.1,2.3,1.8l3.9,2.4c0.4,0.2,0.6,0.4,0.7,0.7
		c0.1,0.2,0.1,0.6,0.1,1.2c0,1-0.8,1.4-2.3,1.4h-5.4v-0.1h-6.6h-1.5h-5.1h-1.5h-5.1H299h-5.1h-1.5h-5.1h-1.5h-5.1h-1.5h-5.1h-1.5
		h-5.1H266h-5.1h-1.5h-6.6v0.1h-0.6v-8.7H249v12.7c0,0.8-0.1,1.4-0.5,1.8c-0.4,0.4-0.9,0.6-1.7,0.6c-1.1,0-1.8-0.1-2.1-0.3l-0.1-0.1
		v2.8c0.6,0.1,1.4,0.2,2.3,0.2c1.8,0,3.2-0.3,4-1c0.8-0.7,1.2-1.8,1.2-3.3V30h0.7h1h5.6h1.5h5.1h1.5h5.1h1.5h5.1h1.5h5.1h1.5h5.1
		h1.5h5.1h1.5h5.1h1.5h5.1h1.5l5,0.1H327.3z"/>
	<path class="st0" d="M354.4,19.2c-0.9-0.8-2.4-1.1-4.4-1.1s-3.4,0.4-4.3,1.1c-1,0.8-1.5,2.2-1.5,4v1.6l-0.1,0.6
		c-0.2,0.8-0.6,1.2-1.3,1.4c-0.2,0.1-0.8,0.1-2,0.1h-0.6v-8.7H337v12.7c0,0.8-0.1,1.4-0.5,1.8c-0.4,0.4-0.9,0.6-1.7,0.6
		c-1.1,0-1.8-0.1-2.1-0.3l-0.1-0.1v2.8c0.6,0.1,1.4,0.2,2.3,0.2c1.8,0,3.2-0.3,4-1c0.8-0.7,1.2-1.8,1.2-3.3V30h0.7v0.1h0.4
		c2,0,3.4-0.5,4-1.5l0.4,0.4l0.3,0.2c0.7,0.5,1.7,0.8,3.2,0.9c0.3,0,0.7,0,1,0c2,0,3.5-0.4,4.4-1.2c0.9-0.8,1.4-2.1,1.4-4v-1.7
		C355.9,21.3,355.4,20,354.4,19.2z M350,27.4c-0.9,0-1.6-0.2-2-0.6c-0.4-0.4-0.6-1-0.6-2v-1.6c0-0.9,0.3-1.6,0.8-2
		c0.4-0.3,1-0.4,1.9-0.5c1.7,0,2.5,0.8,2.5,2.5v1.6h0C352.6,26.5,351.7,27.4,350,27.4z"/>
	<path class="st0" d="M136.8,71.1h-14.3c-0.8,0-1.4-0.2-1.8-0.7c-0.4-0.4-0.6-1.1-0.6-1.9c0-0.9,0.2-1.7,0.6-2.1
		c0.4-0.5,1-0.7,1.8-0.7v-3.1c-1.8,0-3,0.3-3.6,0.9c-0.9,0.9-1.3,2.6-1.3,5.2c0,2.2,0.3,3.7,0.9,4.5s1.8,1.2,3.5,1.2v-0.1h17.6V62.4
		h-2.8V71.1z"/>
	<rect x="128.1" y="77.1" class="st0" width="2.8" height="2.6"/>
	<path class="st0" d="M179.1,70.7c-0.4-0.3-0.5-0.9-0.5-1.8v-1.2c0-1.6,0.8-2.4,2.3-2.4h4.4v-2.8h-5.9c-1.3,0-2.3,0.4-3,1.2
		c-0.7,0.8-1.1,1.9-1.1,3.5v2.6c0,0.4,0,0.9,0.1,1.3h-0.7h-1h-0.8c-0.7-0.2-1.1-0.5-1.3-1.1c0-0.3,0-0.6,0-0.9c0-1.8-0.3-3-0.8-3.8
		c-0.5-0.7-1.5-1.2-2.9-1.4l-9-1.3c-0.5-0.1-1-0.1-1.4-0.1c-2.3,0-3.5,1.2-3.5,3.5v5.2c-0.8,0-1.3-0.1-1.6-0.3c-0.5-0.3-0.8-1-0.8-2
		v-3.5h-2.9v3.5c0,1.1-0.3,1.8-0.9,2.1c-0.1,0.1-0.3,0.1-0.5,0.2v-0.1h-0.5c-0.8-0.1-1.2-0.2-1.5-0.4c-0.4-0.2-0.6-0.7-0.6-1.4h0.1
		V56.1h-3.2V70c0,1.5,0.4,2.6,1.2,3.3c0.7,0.6,1.8,0.9,3.4,1v0.1h0.9c0.4,0,0.9-0.1,1.5-0.4c0.8-0.3,1.3-0.7,1.5-1.2
		c0.3,0.5,0.8,0.9,1.5,1.2c0.5,0.2,1.2,0.4,2.1,0.4h13.2c1.8,0,3-0.5,3.7-1.3c0.7,0.9,1.9,1.3,3.7,1.3h0.4v-0.1h11.9v-3.2h-5.7
		C180,71.1,179.5,71,179.1,70.7z M169,68.8v0.4c0,1.3-0.7,2-2.3,2h-9.9l0.1-3.6c0.1-0.8,0.2-1.2,0.5-1.4s0.8-0.3,1.7-0.3l7.9,1.2
		c1.4,0.2,2.1,0.7,2.1,1.7H169z"/>
	<path class="st0" d="M194.3,69.4c0,0.5-0.2,1-0.6,1.3l-1.8-11h-3.1l1.8,11.4c-0.4-0.2-0.7-0.4-0.9-0.6v3.3c1,0.5,2.2,0.6,3.4,0.5
		c1.2-0.1,2.2-0.5,2.9-1.1s1.1-1.7,1.1-3.1h0.2v-14h-3V69.4z"/>
	<path class="st0" d="M189.3,59c0.3-0.2,0.9-0.2,1.9-0.2l0.1-0.5l-0.4-0.2c-0.3-0.1-0.4-0.2-0.5-0.3c-0.4-0.3-0.5-0.5-0.3-0.7
		c0.1-0.1,0.4-0.1,0.9-0.1h0.1v-0.8h-0.8c-0.6,0-1,0.3-1.1,0.8c-0.1,0.5,0.1,0.9,0.6,1.1c-0.3,0-0.5,0-0.7,0.2L189.3,59z"/>
	<rect x="199.1" y="56.1" class="st0" width="3.2" height="18.3"/>
	<path class="st0" d="M205.9,73.6c0.6,0.5,1.7,0.8,3.3,0.8h3.6v1.1c0,0.8-0.2,1.4-0.7,1.8c-0.5,0.4-4.2,0.6-5,0.6l1.5,2.9
		c2.3,0,5.5-0.8,6.3-1.4c0.7-0.6,1.1-1.8,1.1-3.5V62.6h-6.1C203.6,62.6,202.9,71.1,205.9,73.6z M212.8,65.3v5.8h-3.9
		c-2.6,0-2.6-5.8,1.2-5.8H212.8z"/>
	<rect x="228.3" y="57.2" class="st0" width="2.8" height="2.6"/>
	<path class="st0" d="M262.2,69.4c0,0.6-0.2,1.1-0.6,1.4c-0.2,0.2-0.6,0.3-1.1,0.3c-1.1,0-1.8,0-2-0.1c-0.7-0.2-1.2-0.6-1.3-1.4
		l-0.1-0.6v-1.5c0-1.9-0.5-3.2-1.5-4c-0.9-0.7-2.4-1.1-4.4-1.1s-3.4,0.4-4.3,1.1c-1,0.8-1.5,2.2-1.5,4v1.6l-0.1,0.6
		c-0.2,0.8-0.6,1.2-1.3,1.4c-0.2,0.1-0.8,0.1-2,0.1v0.2c-0.7,0-1.1-0.1-1.3-0.1c-0.7-0.2-1.2-0.7-1.3-1.4l-0.2-1.1
		c0-1.6-0.3-2.7-0.8-3.4c-0.5-0.8-1.5-1.3-2.9-1.5l-10.7-1.4l-0.2,3.2l9.7,1.4c1.4,0.2,2.1,0.8,2.1,1.7v0.4c0,1.4-0.8,2.1-2.4,2.1
		h-6.6c-2.7,0-4.1,1.2-4.1,3.6v1l0.1,1c0.1,1.4,0.6,2.5,1.3,3s1.7,0.8,3.3,0.8h2.4v-2.8h-1.7c-0.7,0-1.3-0.1-1.7-0.5
		c-0.2-0.2-0.4-0.4-0.5-0.7c-0.1-0.5-0.2-1-0.1-1.5c0-0.3,0.3-0.5,0.9-0.6c0.2,0,0.5,0,0.8,0h6.2c1.7,0,3-0.5,3.7-1.3
		c0.1,0,0.1-0.1,0.2-0.2c0.7,1,2.1,1.5,4.3,1.5h0.4v-0.2c1.6-0.1,2.8-0.6,3.3-1.5l0.4,0.4l0.3,0.2c0.7,0.5,1.7,0.8,3.2,0.9
		c0.3,0,0.7,0,1,0c0.4,0,0.8,0,1.1,0c1.6-0.1,2.7-0.5,3.4-1.2c0.2-0.1,0.3-0.3,0.4-0.4c0.6,0.9,1.8,1.4,3.6,1.5v0.1h0.5
		c1.9,0,3.2-0.3,4-1c0.8-0.7,1.2-1.8,1.2-3.3h0.1v-14h-3.2V69.4z M253.8,69.2c0,1.7-0.9,2.6-2.6,2.6c-0.9,0-1.6-0.2-2-0.6
		c-0.4-0.4-0.6-1-0.6-2v-1.6c0-0.9,0.3-1.6,0.8-2c0.4-0.3,1.1-0.5,1.9-0.5c1.7,0,2.5,0.8,2.5,2.5V69.2z"/>
	<rect x="267.3" y="56.1" class="st0" width="3.2" height="18.3"/>
	<rect x="303.1" y="57.2" class="st0" width="2.8" height="2.6"/>
	<path class="st0" d="M309.9,63.9l-9-1.3c-0.4,0-0.9-0.1-1.4-0.1c-2.3,0-3.5,1.2-3.5,3.5v5.1h-0.8c-0.5,0-0.8,0-1,0
		c-0.8-0.1-1.3-0.3-1.6-0.6c-0.2-0.3-0.3-0.7-0.4-1.2v-3H289v8.3c0,1.5-1,2.5-3,2.8c-1.8,0.3-3.3,0.1-4.3-0.8
		c-0.4-0.3-0.6-1-0.6-1.9v-4.1h-3.2v4.1c0,1.9,0.4,3.2,1.4,4c0.9,0.8,2.1,1.2,3.6,1.5c1.4,0.3,2.8,0.2,4.2-0.1
		c1.5-0.3,2.7-0.9,3.6-1.8c1-1,1.5-2.2,1.5-3.6v-0.5c0.6,0.1,1.2,0.2,2,0.2h14.6c1.7,0,3-0.5,3.7-1.3c0.8-0.8,1.1-2.2,1.1-4
		c0-1.8-0.3-3-0.8-3.8C312.3,64.6,311.3,64.1,309.9,63.9z M311.1,69.2c0,1.3-0.8,2-2.4,2h-9.9l0.1-3.6c0-0.8,0.1-1.2,0.4-1.4
		c0.4-0.2,0.9-0.3,1.8-0.3l7.9,1.2c1.4,0.2,2.1,0.7,2.1,1.7V69.2z"/>
	<rect x="315.6" y="56.1" class="st0" width="3.2" height="18.3"/>
	<path class="st0" d="M337.3,62.4c-2,0-3.4,0.4-4.3,1.1c-1,0.8-1.5,2.2-1.5,4v1.6l-0.1,0.6c-0.2,0.8-0.6,1.2-1.3,1.4
		c-0.2,0.1-0.8,0.1-2,0.1h-0.6v-8.7h-3.2v12.8c0,0.8-0.2,1.4-0.5,1.8c-0.4,0.4-0.9,0.6-1.7,0.6c-1.1,0-1.8-0.1-2.1-0.3l-0.1-0.1v2.8
		c0.6,0.1,1.4,0.2,2.3,0.2c1.8,0,3.2-0.3,4-1s1.2-1.8,1.2-3.3v-1.6h0.7h0.4h0.6c1.7-0.1,2.9-0.6,3.4-1.5l0.4,0.4l0.3,0.2
		c0.7,0.5,1.7,0.8,3.2,0.9c0.3,0,0.7,0,1,0c2,0,3.5-0.4,4.4-1.2c0.9-0.8,1.4-2.1,1.4-4v-1.7c0-1.9-0.5-3.2-1.5-4
		C340.8,62.8,339.3,62.4,337.3,62.4z M337.3,71.8c-0.9,0-1.6-0.2-2-0.6c-0.4-0.4-0.6-1-0.6-2v-1.6c0-0.9,0.3-1.6,0.8-2
		c0.4-0.3,1-0.5,1.9-0.5c1.7,0,2.5,0.8,2.5,2.5v1.6h0C339.9,70.9,339,71.8,337.3,71.8z"/>
	<path class="st0" d="M345.8,59c0.3-0.2,0.9-0.2,1.9-0.2l0.1-0.5l-0.4-0.2c-0.3-0.1-0.4-0.2-0.5-0.3c-0.4-0.3-0.5-0.5-0.3-0.7
		c0.1-0.1,0.4-0.1,0.9-0.1h0.1v-0.8h-0.8c-0.6,0-1,0.3-1.1,0.8c-0.1,0.5,0.1,0.9,0.6,1.1c-0.3,0-0.5,0-0.7,0.2L345.8,59z"/>
	<path class="st0" d="M350.8,69.4c0,0.5-0.2,1-0.6,1.3l-1.8-11h-3.1l1.8,11.4c-0.4-0.2-0.7-0.4-0.9-0.6v3.3c1,0.5,2.2,0.6,3.4,0.5
		c1.2-0.1,2.2-0.5,2.9-1.1s1.1-1.7,1.1-3.1h0.2v-14h-3V69.4z"/>
</g>
</svg>
