<?xml version="1.0" encoding="utf-8"?>
<!-- Generator: Adobe Illustrator 23.0.0, SVG Export Plug-In . SVG Version: 6.00 Build 0)  -->
<svg version="1.1" id="Layer_1" xmlns="http://www.w3.org/2000/svg" xmlns:xlink="http://www.w3.org/1999/xlink" x="0px" y="0px"
	 viewBox="0 0 101 33" style="enable-background:new 0 0 101 33;" xml:space="preserve">
<style type="text/css">
	.st0{fill:#FFFFFF;}
</style>
<g>
	<g>
		<g>
			<g>
				<g>
					<g>
						<path class="st0" d="M16,29.4H5.2l0.2-2.8l0-1.2l0-0.6l-0.1-0.6L5,23.5l-0.3-0.7l-0.7-1.2l-1.7-2.5L1.1,17l-0.5-1.1l-0.2-1
							l-0.1-1.1l0.2-1.4l0.4-1.2l0.7-1.4l0.8-1.1l0.8-0.9l0.7-0.7l0.8-0.6l1.7-1.1l1.4-0.7l1.4-0.5l1.2-0.2l1.3-0.2l1.6-0.1l1.6,0
							l1.6,0.2L18,4.2L19,4.8l0.8,0.7l0.7,0.8l0.7,1.3l0.5,1.1l0.5,1.5v1L22,11.9L21.7,13l-0.2,0.3l-0.1,0.2l0.1,0.1l1.9,2.4
							l0.2,0.3l0.3,0.4v0.5l-0.2,0.3l-0.3,0.2L22.7,18l-0.5,0.2l-0.3,0.3L21.6,19l-0.1,0.8v0.9l0.1,1.1l0,0.8v0.7l-0.2,0.5l-0.3,0.3
							l-0.6,0.3l-0.8,0.3l-2.7,0.6l-0.5,0.2l-0.3,0.3L16,26.3L16,26.8L16,29.4z M5.6,29h10v-2.1l0.1-0.6l0.2-0.6l0.4-0.5l0.6-0.2
							l2.7-0.6l0.8-0.3l0.5-0.3l0.2-0.2l0.2-0.3v-0.6l0-0.8l-0.1-1.1v-1l0.2-0.9l0.3-0.6l0.4-0.4l0.6-0.3l0.8-0.3l0.2-0.2l0.1-0.2
							v-0.2l-0.2-0.3l-0.2-0.3L21,13.5l0.2-0.5l0.2-0.3l0.4-1l0.1-0.6v-0.9l-0.5-1.3l-0.5-1l-0.7-1.3l-0.7-0.8l-0.7-0.7l-1-0.5
							l-1.6-0.4L14.7,4l-1.6,0l-1.5,0.1l-1.2,0.2L9.2,4.5L7.8,5L6.5,5.7L4.8,6.8L4.1,7.4L3.4,8.1L2.7,9L2,10.1l-0.7,1.4l-0.4,1.2
							l-0.2,1.3l0.1,1l0.2,1l0.4,1.1l1.3,2l1.7,2.5l0.7,1.3l0.3,0.8l0.2,0.7l0.1,0.7l0,0.6l0,1.2L5.6,29z"/>
					</g>
				</g>
			</g>
			<g>
				<g>
					<g>
						<path class="st0" d="M13.2,14.4l-0.5-0.1l-0.4-0.1l-0.5-0.1l0-0.7l-0.3-0.2L11.1,13l-0.3-0.3l-0.6,0.2l-0.3-0.5l-0.3-0.8
							l0.5-0.4L10,10.8L10,10.4V10L9.5,9.5l0.1-0.4l0.2-0.4L10,8.4l0.8,0L11,8.1l0.3-0.3l0.4-0.3V6.9l0.5-0.2l0.4-0.1l0.5,0l0.3,0.5
							l0.8,0.1l0.4,0.1L15,6.9l0.4,0.2l0.3,0.2L16,7.7l-0.2,0.7l0.3,0.3L16.3,9l0.2,0.4l0.6,0l0.1,0.5l0.1,0.4l0,0.6l-0.6,0.2
							l-0.1,0.4l-0.2,0.4l-0.2,0.4l0.3,0.5l-0.3,0.4l-0.3,0.3l-0.5,0.4l-0.5-0.3l-0.5,0.2l-0.5,0.1l-0.4,0L13.2,14.4z M12.2,14
							l0.2,0.1l0.4,0.1l0.3,0l0.3-0.5l0.5-0.1l0.4-0.1l0.5-0.3l0.4,0.3l0.4-0.2l0.3-0.3l0.2-0.2l-0.3-0.5l0.3-0.5l0.2-0.4l0.2-0.5
							l0.5-0.2v-0.4L16.9,10l-0.1-0.3h-0.5l-0.2-0.6l-0.2-0.3l-0.4-0.5l0.2-0.6l-0.2-0.2l-0.3-0.2L15,7.3l-0.5,0.4L14,7.5l-0.9-0.1
							l-0.2-0.5l-0.3,0L12.2,7L12,7.1v0.6l-0.5,0.3l-0.3,0.2l-0.3,0.3h-0.7L10,8.9L9.9,9.2L9.8,9.4l0.5,0.4l0,0.6l0,0.4l0.1,0.6
							l-0.5,0.4l0.2,0.5l0.2,0.2l0.6-0.2l0.4,0.4l0.4,0.3l0.5,0.3L12.2,14z M11.8,7.6L11.8,7.6L11.8,7.6z"/>
					</g>
				</g>
			</g>
			<g>
				<g>
					<g>
						<path class="st0" d="M13.3,12.1c-0.7,0-1.3-0.4-1.5-1l0,0c-0.3-0.8,0.1-1.8,0.9-2.2c0.8-0.3,1.8,0.1,2.2,0.9
							c0.2,0.4,0.2,0.9,0,1.3c-0.2,0.4-0.5,0.7-0.9,0.9C13.7,12.1,13.5,12.1,13.3,12.1z M12,11c0.3,0.7,1.1,1.1,1.8,0.8
							c0.3-0.2,0.6-0.4,0.8-0.7c0.2-0.3,0.2-0.7,0-1.1c-0.3-0.7-1.1-1.1-1.8-0.8C12.1,9.5,11.8,10.3,12,11L12,11z"/>
					</g>
				</g>
			</g>
			<g>
				<g>
					<g>
						<path class="st0" d="M7.1,18.1H6.5l-0.4-0.1l-0.5-0.2l0-0.6L5,16.9l-0.3-0.2L4,16.9l-0.3-0.3l-0.2-0.3l-0.2-0.4l0.4-0.5
							l-0.2-0.4l-0.1-0.4V14L3,13.8l0.1-0.5l0.1-0.4l0.2-0.5L4,12.4l0.2-0.3l0.3-0.3L5,11.5l-0.1-0.7l0.5-0.2l0.4-0.2l0.6-0.2
							l0.3,0.5l0.5,0l0.5,0.1L8,11l0.5-0.4l0.4,0.2L9.2,11l0.4,0.3l-0.2,0.6l0.2,0.3l0.3,0.5l0.2,0.4l0.7,0.1l0.1,0.5l0,0.3v0.5
							l-0.6,0.2l-0.1,0.5L10,15.6L9.8,16l0.3,0.6l-0.2,0.3l-0.3,0.3l-0.4,0.3l-0.8-0.3l-0.3,0.2l-0.4,0.1l-0.5,0.1L7.1,18.1z
							 M5.9,17.7l0.3,0.1l0.4,0.1h0.3l0.2-0.5l0.6-0.2l0.4-0.1l0.4-0.2l0.7,0.2l0.2-0.2l0.3-0.2l0.1-0.2l-0.3-0.6l0.2-0.5L9.9,15
							l0.2-0.6l0.6-0.2V14l0-0.3l-0.1-0.3l-0.6-0.1l-0.2-0.5l-0.3-0.4L9,12l0.2-0.6l-0.2-0.2l-0.3-0.2l-0.3-0.2L8,11.3l-0.5-0.2
							l-0.4-0.1l-0.6,0l-0.3-0.5l-0.4,0.1l-0.4,0.1L5.2,11l0.1,0.6l-0.5,0.3l-0.3,0.3l-0.3,0.4l-0.6-0.1L3.5,13l-0.1,0.4l-0.1,0.3
							l0.5,0.2v0.6l0.1,0.4l0.2,0.5l-0.4,0.5l0.1,0.2l0.3,0.5l0.6-0.2l0.4,0.3l0.8,0.5L5.9,17.7z"/>
					</g>
				</g>
			</g>
			<g>
				<g>
					<g>
						<path class="st0" d="M7,15.9c-0.9,0-1.7-0.8-1.7-1.7c0-0.9,0.8-1.7,1.7-1.7s1.7,0.8,1.7,1.7C8.6,15.2,7.9,15.9,7,15.9z
							 M7,12.9c-0.8,0-1.4,0.6-1.4,1.4s0.6,1.4,1.4,1.4s1.4-0.6,1.4-1.4S7.7,12.9,7,12.9z"/>
					</g>
				</g>
			</g>
		</g>
	</g>
	<g>
		<rect x="30.3" y="6.9" class="st0" width="0.8" height="0.8"/>
		<path class="st0" d="M31.5,11.7c0.3-0.2,0.4-0.6,0.4-1.2V10c0-0.6-0.2-1-0.5-1.2c-0.3-0.2-0.7-0.3-1.3-0.3c-0.6,0-1,0.1-1.3,0.3
			c-0.3,0.2-0.5,0.7-0.5,1.2v0.5c0,0.6,0.2,1,0.4,1.2c0.3,0.2,0.7,0.4,1.4,0.4C30.7,12.1,31.2,12,31.5,11.7z M29.5,11.1
			c-0.1-0.1-0.2-0.3-0.2-0.6v-0.5c0-0.3,0.1-0.5,0.2-0.6c0.1-0.1,0.3-0.2,0.5-0.1c0.5,0,0.8,0.2,0.8,0.7v0.5c0,0.5-0.2,0.8-0.8,0.8
			C29.9,11.3,29.7,11.3,29.5,11.1z"/>
		<rect x="29" y="6.9" class="st0" width="0.8" height="0.8"/>
		<path class="st0" d="M34.1,13.6c0.2-0.2,0.4-0.5,0.4-1h0V8.5h-1v3.8c0,0.2-0.1,0.4-0.2,0.5c-0.1,0.1-0.3,0.2-0.5,0.2
			c-0.3,0-0.5,0-0.6-0.1h0v0.8c0.2,0,0.4,0.1,0.7,0.1C33.4,13.9,33.8,13.8,34.1,13.6z"/>
		<rect x="61" y="6.9" class="st0" width="0.8" height="0.8"/>
		<rect x="60.4" y="5.8" class="st0" width="0.8" height="0.8"/>
		<rect x="59.8" y="6.9" class="st0" width="0.8" height="0.8"/>
		<path class="st0" d="M62.1,12.1L62.1,12.1L62.1,12.1h0.1c0.5,0,0.9-0.1,1.1-0.3c0.2-0.2,0.4-0.5,0.4-1V6.6h-1v4
			c0,0.2-0.1,0.3-0.2,0.4c-0.1,0.1-0.2,0.1-0.5,0.1h-0.2v0c-0.2,0-0.4,0-0.5-0.1c-0.2-0.1-0.3-0.2-0.3-0.5h0V8.5h-0.9v2.1
			c0,0.3-0.1,0.5-0.3,0.5c-0.1,0-0.3,0.1-0.7,0.1h-0.3h-0.4h-1.6h-0.5h-1.5h-0.5h-1.5h-0.5h-1.5h-0.5h-1.5h-0.5h-1.5h-0.5h-1.5h-0.5
			h-1.5h-0.5h-1.5h-0.5h-1.7h-0.3h-0.2V8.5h-1.8c-1.9,0-2.1,2.6-1.2,3.3c0.2,0.2,0.5,0.2,1,0.2h1.1v0.3c0,0.2-0.1,0.4-0.2,0.5
			c-0.2,0.1-1.3,0.2-1.5,0.2l0.5,0.9c0.7,0,1.7-0.2,1.9-0.4c0.2-0.2,0.3-0.5,0.3-1.1v-0.5h0.2h0.3h1.7h0.5h1.5h0.5h1.5h0.5h1.5h0.5
			h1.5h0.5h1.5h0.5h1.5h0.5h1.5h0.5h1.5h0.5h1.6h0.4h0.3c0.6,0,1.1-0.2,1.4-0.5c0.3,0.3,0.7,0.4,1.2,0.5H62.1z M37.6,11.1h-1.2
			c-0.8,0-0.8-1.7,0.4-1.7h0.8V11.1z"/>
		<rect x="64.3" y="6.6" class="st0" width="1" height="5.5"/>
		<rect x="68.6" y="6.9" class="st0" width="0.8" height="0.8"/>
		<path class="st0" d="M92.1,12.1c0.5,0,0.8-0.1,1-0.3c0.2-0.2,0.3-0.6,0.3-1.1c0-0.3,0-0.6-0.1-0.7c-0.1-0.1-0.3-0.3-0.5-0.5
			l-1.4-0.9c-0.1-0.1-0.2-0.2-0.2-0.2C91,8.3,91,8.1,91,8c0-0.2,0.1-0.3,0.2-0.4c0.1-0.1,0.3-0.1,0.5-0.1h1.5V6.7l-2,0.1
			c-0.4,0-0.7,0.1-0.9,0.3C90.1,7.3,90,7.7,90,8.3c0,0.3,0.1,0.5,0.2,0.6c0.1,0.2,0.3,0.3,0.7,0.5l1.2,0.7c0.1,0.1,0.2,0.1,0.2,0.2
			c0,0.1,0,0.2,0,0.4c0,0.3-0.2,0.4-0.7,0.4H90v0h-2h-0.5H86h-0.5H84h-0.5H82h-0.5h-1.5h-0.5h-1.5h-0.5h-1.5h-0.5h-1.5h-0.5h-1.5
			h-0.5h-2v0h-0.2V8.5h-1v3.8c0,0.2,0,0.4-0.2,0.5c-0.1,0.1-0.3,0.2-0.5,0.2c-0.3,0-0.5,0-0.6-0.1l0,0v0.8c0.2,0,0.4,0.1,0.7,0.1
			c0.5,0,1-0.1,1.2-0.3c0.2-0.2,0.4-0.5,0.4-1v-0.5h0.2H70h1.7h0.5h1.5h0.5h1.5h0.5h1.5h0.5h1.5h0.5h1.5H82h1.5H84h1.5H86h1.5H88
			l1.5,0H92.1z"/>
		<path class="st0" d="M100.2,8.8c-0.3-0.2-0.7-0.3-1.3-0.3s-1,0.1-1.3,0.3c-0.3,0.2-0.5,0.7-0.5,1.2v0.5l0,0.2
			c-0.1,0.2-0.2,0.4-0.4,0.4c-0.1,0-0.2,0-0.6,0H96V8.5h-1v3.8c0,0.2,0,0.4-0.2,0.5c-0.1,0.1-0.3,0.2-0.5,0.2c-0.3,0-0.5,0-0.6-0.1
			l0,0v0.8c0.2,0,0.4,0.1,0.7,0.1c0.5,0,1-0.1,1.2-0.3c0.2-0.2,0.4-0.5,0.4-1v-0.5h0.2v0h0.1c0.6,0,1-0.2,1.2-0.5l0.1,0.1l0.1,0.1
			c0.2,0.2,0.5,0.2,1,0.3c0.1,0,0.2,0,0.3,0c0.6,0,1.1-0.1,1.3-0.4c0.3-0.2,0.4-0.6,0.4-1.2V10C100.7,9.5,100.5,9.1,100.2,8.8z
			 M98.9,11.3c-0.3,0-0.5-0.1-0.6-0.2c-0.1-0.1-0.2-0.3-0.2-0.6V10c0-0.3,0.1-0.5,0.2-0.6c0.1-0.1,0.3-0.1,0.6-0.2
			c0.5,0,0.8,0.2,0.8,0.8v0.5h0C99.7,11,99.4,11.3,98.9,11.3z"/>
		<path class="st0" d="M34.8,24.4h-4.3c-0.2,0-0.4-0.1-0.5-0.2c-0.1-0.1-0.2-0.3-0.2-0.6c0-0.3,0.1-0.5,0.2-0.6
			c0.1-0.2,0.3-0.2,0.5-0.2v-0.9c-0.5,0-0.9,0.1-1.1,0.3c-0.3,0.3-0.4,0.8-0.4,1.6c0,0.7,0.1,1.1,0.3,1.4c0.2,0.2,0.5,0.4,1.1,0.4v0
			h5.3v-3.6h-0.8V24.4z"/>
		<rect x="32.2" y="26.2" class="st0" width="0.8" height="0.8"/>
		<path class="st0" d="M47.6,24.3c-0.1-0.1-0.2-0.3-0.2-0.5v-0.4c0-0.5,0.2-0.7,0.7-0.7h1.3v-0.8h-1.8c-0.4,0-0.7,0.1-0.9,0.4
			c-0.2,0.2-0.3,0.6-0.3,1.1V24c0,0.1,0,0.3,0,0.4h-0.2h-0.3h-0.2c-0.2-0.1-0.3-0.2-0.4-0.3c0-0.1,0-0.2,0-0.3
			c0-0.5-0.1-0.9-0.2-1.1c-0.2-0.2-0.5-0.4-0.9-0.4l-2.7-0.4c-0.2,0-0.3,0-0.4,0c-0.7,0-1.1,0.4-1.1,1.1v1.6c-0.2,0-0.4,0-0.5-0.1
			c-0.2-0.1-0.2-0.3-0.2-0.6v-1.1h-0.9v1.1c0,0.3-0.1,0.5-0.3,0.6c0,0-0.1,0-0.2,0.1v0h-0.2c-0.2,0-0.4-0.1-0.5-0.1
			c-0.1-0.1-0.2-0.2-0.2-0.4h0v-4h-1v4.2c0,0.5,0.1,0.8,0.4,1c0.2,0.2,0.5,0.3,1,0.3v0h0.3c0.1,0,0.3,0,0.5-0.1
			c0.2-0.1,0.4-0.2,0.5-0.4c0.1,0.2,0.2,0.3,0.5,0.4c0.2,0.1,0.4,0.1,0.6,0.1h4c0.5,0,0.9-0.2,1.1-0.4c0.2,0.3,0.6,0.4,1.1,0.4h0.1
			v0h3.6v-1h-1.7C47.8,24.4,47.7,24.4,47.6,24.3z M44.5,23.7v0.1c0,0.4-0.2,0.6-0.7,0.6h-3l0-1.1c0-0.2,0.1-0.4,0.2-0.4
			c0.1-0.1,0.2-0.1,0.5-0.1l2.4,0.4C44.3,23.3,44.6,23.4,44.5,23.7L44.5,23.7z"/>
		<path class="st0" d="M52.1,23.9c0,0.2-0.1,0.3-0.2,0.4L51.4,21h-0.9l0.5,3.4c-0.1-0.1-0.2-0.1-0.3-0.2v1c0.3,0.2,0.7,0.2,1,0.2
			c0.4,0,0.7-0.2,0.9-0.3c0.2-0.2,0.3-0.5,0.3-0.9H53v-4.2h-0.9V23.9z"/>
		<path class="st0" d="M50.6,20.8c0.1-0.1,0.3-0.1,0.6-0.1l0-0.2l-0.1-0.1c-0.1,0-0.1-0.1-0.2-0.1c-0.1-0.1-0.2-0.2-0.1-0.2
			c0,0,0.1,0,0.3,0h0v-0.2h-0.2c-0.2,0-0.3,0.1-0.3,0.2c0,0.2,0,0.3,0.2,0.3c-0.1,0-0.2,0-0.2,0.1L50.6,20.8z"/>
		<rect x="53.6" y="19.9" class="st0" width="1" height="5.5"/>
		<path class="st0" d="M55.6,25.2c0.2,0.2,0.5,0.2,1,0.2h1.1v0.3c0,0.2-0.1,0.4-0.2,0.5c-0.2,0.1-1.3,0.2-1.5,0.2l0.5,0.9
			c0.7,0,1.7-0.2,1.9-0.4c0.2-0.2,0.3-0.5,0.3-1.1v-4h-1.8C54.9,21.9,54.7,24.4,55.6,25.2z M57.7,22.7v1.7h-1.2
			c-0.8,0-0.8-1.7,0.4-1.7H57.7z"/>
		<rect x="62.3" y="20.2" class="st0" width="0.8" height="0.8"/>
		<path class="st0" d="M72.5,23.9c0,0.2-0.1,0.3-0.2,0.4c-0.1,0.1-0.2,0.1-0.3,0.1c-0.3,0-0.5,0-0.6,0C71.2,24.3,71,24.2,71,24
			l0-0.2v-0.5c0-0.6-0.2-1-0.5-1.2c-0.3-0.2-0.7-0.3-1.3-0.3s-1,0.1-1.3,0.3c-0.3,0.2-0.5,0.7-0.5,1.2v0.5l0,0.2
			c-0.1,0.2-0.2,0.4-0.4,0.4c-0.1,0-0.2,0-0.6,0v0.1c-0.2,0-0.3,0-0.4,0c-0.2-0.1-0.4-0.2-0.4-0.4l-0.1-0.3c0-0.5-0.1-0.8-0.2-1
			c-0.2-0.2-0.5-0.4-0.9-0.5l-3.2-0.4l-0.1,1l2.9,0.4c0.4,0.1,0.6,0.2,0.6,0.5v0.1c0,0.4-0.2,0.6-0.7,0.6h-2c-0.8,0-1.2,0.4-1.2,1.1
			v0.3l0,0.3c0,0.4,0.2,0.8,0.4,0.9c0.2,0.2,0.5,0.2,1,0.2H63v-0.8h-0.5c-0.2,0-0.4,0-0.5-0.2c-0.1-0.1-0.1-0.1-0.2-0.2
			c0-0.2-0.1-0.3,0-0.5c0-0.1,0.1-0.2,0.3-0.2c0.1,0,0.2,0,0.2,0h1.9c0.5,0,0.9-0.2,1.1-0.4c0,0,0,0,0.1-0.1
			c0.2,0.3,0.6,0.5,1.3,0.5h0.1v-0.1c0.5,0,0.8-0.2,1-0.5l0.1,0.1l0.1,0.1c0.2,0.2,0.5,0.2,1,0.3c0.1,0,0.2,0,0.3,0
			c0.1,0,0.2,0,0.3,0c0.5,0,0.8-0.2,1-0.4c0.1,0,0.1-0.1,0.1-0.1c0.2,0.3,0.5,0.4,1.1,0.5v0h0.2c0.6,0,1-0.1,1.2-0.3
			c0.2-0.2,0.4-0.5,0.4-1h0v-4.2h-1V23.9z M70,23.8c0,0.5-0.3,0.8-0.8,0.8c-0.3,0-0.5-0.1-0.6-0.2c-0.1-0.1-0.2-0.3-0.2-0.6v-0.5
			c0-0.3,0.1-0.5,0.2-0.6c0.1-0.1,0.3-0.2,0.6-0.2c0.5,0,0.8,0.2,0.8,0.8V23.8z"/>
		<rect x="74.1" y="19.9" class="st0" width="1" height="5.5"/>
		<rect x="84.8" y="20.2" class="st0" width="0.8" height="0.8"/>
		<path class="st0" d="M86.9,22.3l-2.7-0.4c-0.1,0-0.3,0-0.4,0c-0.7,0-1.1,0.4-1.1,1.1v1.5h-0.2c-0.2,0-0.2,0-0.3,0
			c-0.2,0-0.4-0.1-0.5-0.2c-0.1-0.1-0.1-0.2-0.1-0.4V23h-1v2.5c0,0.5-0.3,0.8-0.9,0.8c-0.5,0.1-1,0-1.3-0.2
			c-0.1-0.1-0.2-0.3-0.2-0.6v-1.2h-1v1.2c0,0.6,0.1,1,0.4,1.2c0.3,0.2,0.6,0.4,1.1,0.5c0.4,0.1,0.8,0.1,1.3,0
			c0.5-0.1,0.8-0.3,1.1-0.5c0.3-0.3,0.5-0.7,0.5-1.1v-0.2c0.2,0,0.4,0.1,0.6,0.1h4.4c0.5,0,0.9-0.2,1.1-0.4c0.2-0.2,0.3-0.7,0.3-1.2
			c0-0.5-0.1-0.9-0.2-1.1C87.6,22.5,87.3,22.3,86.9,22.3z M87.2,23.8c0,0.4-0.2,0.6-0.7,0.6h-3l0-1.1c0-0.2,0-0.4,0.1-0.4
			c0.1-0.1,0.3-0.1,0.5-0.1l2.4,0.4c0.4,0.1,0.6,0.2,0.6,0.5V23.8z"/>
		<rect x="88.6" y="19.9" class="st0" width="1" height="5.5"/>
		<path class="st0" d="M95.1,21.8c-0.6,0-1,0.1-1.3,0.3c-0.3,0.2-0.5,0.7-0.5,1.2v0.5l0,0.2c-0.1,0.2-0.2,0.4-0.4,0.4
			c-0.1,0-0.2,0-0.6,0h-0.2v-2.6h-1v3.8c0,0.2-0.1,0.4-0.2,0.5c-0.1,0.1-0.3,0.2-0.5,0.2c-0.3,0-0.5,0-0.6-0.1l0,0v0.8
			c0.2,0,0.4,0.1,0.7,0.1c0.5,0,1-0.1,1.2-0.3c0.2-0.2,0.4-0.5,0.4-1v-0.5h0.2h0.1h0.2c0.5,0,0.9-0.2,1-0.5l0.1,0.1l0.1,0.1
			c0.2,0.2,0.5,0.2,1,0.3c0.1,0,0.2,0,0.3,0c0.6,0,1.1-0.1,1.3-0.4c0.3-0.2,0.4-0.6,0.4-1.2v-0.5c0-0.6-0.2-1-0.5-1.2
			C96.1,21.9,95.7,21.8,95.1,21.8z M95.1,24.6c-0.3,0-0.5-0.1-0.6-0.2c-0.1-0.1-0.2-0.3-0.2-0.6v-0.5c0-0.3,0.1-0.5,0.2-0.6
			c0.1-0.1,0.3-0.2,0.6-0.2c0.5,0,0.8,0.2,0.8,0.8v0.5h0C95.9,24.4,95.6,24.6,95.1,24.6z"/>
		<path class="st0" d="M97.6,20.8c0.1-0.1,0.3-0.1,0.6-0.1l0-0.2l-0.1-0.1c-0.1,0-0.1-0.1-0.2-0.1c-0.1-0.1-0.2-0.2-0.1-0.2
			c0,0,0.1,0,0.3,0h0v-0.2h-0.2c-0.2,0-0.3,0.1-0.3,0.2c0,0.2,0,0.3,0.2,0.3c-0.1,0-0.2,0-0.2,0.1L97.6,20.8z"/>
		<path class="st0" d="M99.1,23.9c0,0.2-0.1,0.3-0.2,0.4L98.4,21h-0.9l0.5,3.4c-0.1-0.1-0.2-0.1-0.3-0.2v1c0.3,0.2,0.7,0.2,1,0.2
			c0.4,0,0.7-0.2,0.9-0.3c0.2-0.2,0.3-0.5,0.3-0.9h0.1v-4.2h-0.9V23.9z"/>
	</g>
</g>
</svg>
